<?xml version="1.0" encoding="UTF-8"?>
<svg id="Calque_1" xmlns="http://www.w3.org/2000/svg" version="1.1" viewBox="0 0 451.06 70">
  <!-- Generator: Adobe Illustrator 29.8.4, SVG Export Plug-In . SVG Version: 2.1.1 Build 6)  -->
  <path d="M328.32,28.14l5.95-4.16-7.73-8.99-.53-.59h-19.1c-.33,0-.73,0-1.12-.07s-.79-.2-1.06-.33c-.33-.2-.66-.46-.86-.73-.26-.33-.4-.66-.46-1.06l-1.06-.07c-.26,1.26-.46,2.51-.46,3.83,0,.59.07,1.26.26,1.85.13.59.46,1.19.86,1.65.26.33.66.59,1.12.73.4.2.86.2,1.32.2h9.39l-4.23,2.51c-.86.53-1.78,1.26-2.38,2.11-.26.46-.46.99-.59,1.52-.07.46-.07,1.06-.07,1.59l-.07,11.24c-.13,1.26-.53,2.58-1.32,3.64-.46.53-.99,1.06-1.59,1.39l.46,1.19c2.97-.73,6.01-2.38,7.73-4.82.53-.79.99-1.65,1.26-2.64.26-.93.26-1.85.26-2.84v-9.32c0-1.06.07-2.11.46-3.11.4-.93,1.12-1.65,1.85-2.38h6.54l5.02,6.08-6.34,4.69v.33c1.39.53,2.78,1.12,4.1,1.85,1.92,1.19,2.84,2.58,2.84,2.58v10.24l-3.9,1.78c-.93-.79-1.19-1.06-3.04-2.11-1.85-1.06-6.21-1.85-8.46-1.72l-2.45.33c-5.02,1.06-9.58,4.43-12.16,8.92h1.12c1.06-.99,2.25-1.85,3.57-2.45,1.45-.66,3.11-1.06,4.69-1.19,3.7-.33,7.53.53,10.84,2.25l15.93-8.2v-12.03c-1.12-.93-2.25-1.72-3.5-2.38-1.06-.46-2.05-.93-3.11-1.32h.02Z"/>
  <path d="M356.21,29.92l5.68,4.56v13.68l-5.75-3.83v-11.9l-1.85-1.39-5.02-3.83-10.71,6.15v13.22l6.94,5.35,4.76-2.91-5.55-4.56v-13.61l5.49,3.64v12.16l1.78,1.26c1.59,1.19,3.97,2.84,5.35,3.9l10.51-6.41v-12.89l-6.87-5.22-4.76,2.64h0Z"/>
  <path d="M171.55,20.6c-1.26-1.65-2.84-3.04-4.82-3.83-1.85-.79-4.03-.86-6.01-.86h-12.56c-.33,0-.73,0-1.12-.07-.4-.07-.79-.2-1.06-.33-.33-.2-.66-.46-.86-.73-.26-.33-.4-.66-.46-1.06l-1.06-.07c-.26,1.26-.46,2.51-.46,3.83,0,.59.07,1.26.26,1.85.13.59.46,1.19.86,1.65.26.33.66.59,1.12.73.4.2.86.2,1.32.2h7.86l-4.23,2.51c-.86.53-1.78,1.26-2.38,2.11-.26.46-.46.99-.59,1.52-.07.46-.07,1.06-.07,1.59l-.07,10.77c-.13,1.26-.53,2.58-1.32,3.64-.46.53-.99,1.06-1.59,1.39l.46,1.19c2.97-.73,6.01-2.38,7.73-4.82.53-.79.99-1.65,1.26-2.64.26-.93.26-1.85.26-2.84v-8.86c0-1.06.07-2.11.46-3.11.4-.93,1.12-1.65,1.85-2.38h2.84c1.06,0,2.25.07,3.3.46,1.12.4,2.18,1.12,2.97,2.05,1.85,2.18,2.64,5.62,2.64,8.33.07,2.58-.07,5.09-.46,7.67-.46,2.71-1.26,5.42-2.25,7.93-3.64-2.84-8.79-4.3-13.28-3.44-5.68,1.12-8.2,4.43-11.24,9.12h1.39c2.58-2.91,5.02-3.97,8.79-3.83,2.91.07,5.82,1.06,8.2,2.78l12.36-6.81c.79-1.65,1.45-3.44,2.05-5.22.93-3.3,1.32-6.74,1.19-10.18-.4-3.7-1.19-7.34-3.3-10.24h.02Z"/>
  <path d="M193.09,32.23h.07l-7.6-4.89-5.42,2.84c-.59.26-1.12.59-1.65,1.06-.46.4-.86.86-1.06,1.45-.26.53-.4,1.19-.33,1.78.07.66.26,1.26.59,1.85.66,1.06,1.78,1.78,2.91,2.31.26.07.46.26.66.33-1.12.59-2.25,1.32-3.24,2.18-.66.59-1.32,1.32-1.85,2.11-.46.79-.79,1.65-.86,2.64-.07,1.45.46,2.91,1.39,4.03,1.26,1.59,3.24,2.58,5.22,2.84l5.22-3.83,3.77,3.83,5.22-3.64-3.04-2.97v-13.95h0v.03ZM187.01,48.29c-.53.13-1.06.2-1.65.07-.66-.13-1.39-.46-1.92-.99-.53-.46-.93-1.06-1.26-1.65-.66-1.32-1.06-2.84-.79-4.36.07-.73.4-1.45.79-2.11.66.2,1.26.46,1.92.66.99.26,1.92.53,2.91.86v7.53h0ZM187.01,39.31c-.86-.2-1.78-.4-2.64-.66-.59-.2-1.19-.4-1.78-.59-.33-.13-.66-.26-.99-.46-.86-.46-1.72-.99-2.38-1.72-.46-.53-.73-1.19-.73-1.85,0-.46.13-.93.4-1.39.26-.46.53-.79.93-1.06.26-.26.66-.46,1.06-.59l6.21,3.83c-.07,1.39-.07,2.97-.07,4.49h0Z"/>
  <path d="M214.31,27.08c-.46.73-1.19,1.39-2.58,1.39-1.19,0-1.98-.66-2.45-1.39h-.53l-3.37,3.9-3.64-3.9-5.16,3.64,2.78,2.84v13.02l-1.39,1.45,6.15,4.76,7.34-5.35-.93-1.06-2.64,1.78-1.92-1.52v-14.74c.66.66,1.52,1.26,2.45,1.65.59.26,1.19.46,1.85.46s1.26-.13,1.85-.4c.73-.33,1.32-.86,1.78-1.59.46-.66.73-1.45.93-2.25.26-.86.46-1.78.53-2.71h-1.06v.02Z"/>
  <path d="M240.08,46.77l-2.11,1.45-9.72-14.41.46-.99c.66.66,1.59,1.19,2.45,1.45.73.26,1.59.26,2.38.2.79-.07,1.52-.4,2.18-.86s1.26-1.12,1.72-1.85c.46-.66.73-1.52.99-2.31.2-.66.33-1.39.46-2.05h-.93c-.26.53-.73,1.06-1.26,1.39s-1.12.46-1.78.46-1.32-.07-1.92-.46c-.59-.33-1.06-.86-1.39-1.45h-.46l-7.34,11.37,9.72,14.21,7.6-5.02-1.06-1.12h0Z"/>
  <path d="M223.23,14.52h-.93l-8.06,5.68,2.31,2.58c.07.26.07.46.07.73v22.54l-1.65,1.06,6.15,5.35,5.22-3.5-3.11-2.45V14.52h0Z"/>
  <path d="M395.47,46.77l-2.11,1.45-9.72-14.41.46-.99c.66.66,1.59,1.19,2.45,1.45.73.26,1.59.26,2.38.2.79-.07,1.52-.4,2.18-.86s1.26-1.12,1.72-1.85c.46-.66.73-1.52.99-2.31.2-.66.33-1.39.46-2.05h-.93c-.26.53-.73,1.06-1.26,1.39s-1.12.46-1.78.46-1.32-.07-1.92-.46c-.59-.33-1.06-.86-1.39-1.45h-.53l-7.34,11.37,9.72,14.21,7.6-5.02-.99-1.12h.01Z"/>
  <path d="M378.68,14.52h-.93l-8.06,5.68,2.31,2.58c.07.26.07.46.07.73v22.54l-1.65,1.06,6.15,5.35,5.22-3.5-3.11-2.45V14.52h0Z"/>
  <path d="M108.16,32.63l-5.95-4.96-5.95,5.55V13.93h-.93l-7.6,6.81,1.72,1.59c.07.26.07.53.07.73v23l-1.65,1.06,6.28,5.42,5.35-3.57-3.17-2.45v-11.76l2.58-2.45,2.91,2.38v13.13l5.35,5.37,3.54-3.97-2.54-2.27v-14.31h-.01Z"/>
  <path d="M123.1,47.9l-5.82-3.97v-2.11l10.44-6.48v-.26l-4.82-7.4-11.63,6.01v13.35l7.93,5.95,9.98-8.13-.73-1.19-5.35,4.23h0ZM117.29,31.97l.93-.53,4.16,6.01-5.09,3.24s0-8.72,0-8.72Z"/>
  <polygon points="242.6 43.87 246.89 36.4 238.3 36.4 242.6 43.87"/>
  <path d="M261.63,19.61c2.45,2.45,4.63,3.24,7.47,3.64l7.14-5.82-1.19-1.06-1.39,1.06c-4.1,0-8.33-1.92-9.45-3.77l-9.58,8.46v6.74h-2.11l-4.63,3.9v1.06c7.01,0,1.06,0,6.74,0v9.85c0,3.24-.07,4.82-.46,5.82-1.32-.46-2.84-.93-5.02-.66-5.62.73-9.52,5.42-10.91,8.39h1.26s1.59-2.91,6.28-2.91c1.65,0,3.04.53,4.03,1.26,0,0,9.12-8.26,11.9-11.63v-10.05h4.03l6.41-4.23v-.99h-10.51v-9.05h0Z"/>
  <polygon points="283.44 48.23 281.85 46.51 281.85 31.57 278.02 27.08 273.06 30.45 275.64 33.49 275.64 46.51 274.06 47.63 279.74 52.72 286.81 47.7 285.62 46.77 283.44 48.23"/>
  <rect x="275.56" y="18.26" width="5.42" height="5.42" transform="translate(59.43 194.12) rotate(-42.66)"/>
  <polygon points="316.42 25.69 316.42 43.4 321.64 38.98 321.64 22.39 316.42 25.69"/>
  <path d="M62.82,17.75c-.91.81-4.35,3.6-8.22,6.67l5.11,6.73,4.31-4.49-4.68-5.4c3.82-.17,16.99-.04,16.99-.04-7.23,1.66-9.82,6.16-11.26,8.37-1.72,2.59-2.58,5.66-2.58,9.23,0,3.29.73,5.35,2.75,7.62,2.53,2.83,5.62,4.49,9.52,5.38,1.51.34,3.66.81,7.8,0,.84-1.11,1.71-2.18,2.6-3.22s1.8-2.07,2.71-3.09l-.37-.42c-1.76.98-3.65,1.33-5.68,1.47-2.57.18-4.04.02-6.38-.68-3.56-1.06-5.3-2.86-6.31-4.71-.63-1.19-.8-2.13-.8-4.47,0-2.52.68-4.91,2.05-7.18,2.22-3.69,5.71-7.45,10.17-8.28h.42c4.36-.08,9.1-4.86,9.82-7.76l-1.19-.46c-.33.59-.86,1.12-1.39,1.59-.86.79-2.51,1.59-4.69,1.65h-15.33c-.99,0-1.92,0-2.84.26-.93.26-1.61.41-2.52,1.23h0Z"/>
  <polygon points="73.55 45.26 79.61 41.54 79.47 24.66 73.55 29.54 73.55 45.26"/>
</svg>