<?xml version="1.0" encoding="utf-8"?>
<!-- Generator: Adobe Illustrator 25.4.1, SVG Export Plug-In . SVG Version: 6.00 Build 0)  -->
<svg version="1.1" id="Calque_1" xmlns="http://www.w3.org/2000/svg" xmlns:xlink="http://www.w3.org/1999/xlink" x="0px" y="0px"
	 viewBox="0 0 687.3 179" style="enable-background:new 0 0 687.3 179;" xml:space="preserve">
<style type="text/css">
	.st0{fill:#FFFFFF;}
</style>
<desc>Generated with Qt</desc>
<g transform="matrix(1.45797,0,0,1.45797,502.142,172.042)">
</g>
<g transform="matrix(1.45797,0,0,1.45797,502.142,172.042)">
</g>
<g transform="matrix(1.45797,0,0,1.45797,502.142,172.042)">
</g>
<g transform="matrix(1.45797,0,0,1.45797,502.142,172.042)">
</g>
<g transform="matrix(1.45797,0,0,1.45797,502.142,172.042)">
</g>
<g transform="matrix(1.45797,0,0,1.45797,502.142,172.042)">
</g>
<g transform="matrix(1.45797,0,0,1.45797,502.142,172.042)">
</g>
<g transform="matrix(1.45797,0,0,1.45797,502.142,172.042)">
</g>
<g transform="matrix(1.45797,0,0,1.45797,502.142,172.042)">
</g>
<g transform="matrix(1.45797,0,0,1.45797,502.142,172.042)">
</g>
<g transform="matrix(1.45797,0,0,1.45797,502.142,172.042)">
</g>
<g transform="matrix(1.45797,0,0,1.45797,502.142,172.042)">
</g>
<g transform="matrix(1.45797,0,0,1.45797,502.142,172.042)">
</g>
<g transform="matrix(1.45797,0,0,1.45797,502.142,172.042)">
</g>
<g transform="matrix(1.45797,0,0,1.45797,502.142,172.042)">
</g>
<g transform="matrix(1.45797,0,0,1.45797,502.142,172.042)">
</g>
<g transform="matrix(0.18662,0,0,-0.18662,548.797,376.392)">
</g>
<g transform="matrix(0.18662,0,0,-0.18662,548.797,376.392)">
</g>
<g transform="matrix(0.18662,0,0,-0.18662,548.797,376.392)">
</g>
<g transform="matrix(0.18662,0,0,-0.18662,688.949,376.392)">
</g>
<g transform="matrix(0.18662,0,0,-0.18662,688.949,376.392)">
</g>
<g transform="matrix(0.18662,0,0,-0.18662,688.949,376.392)">
</g>
<g transform="matrix(0.18662,0,0,-0.18662,777.034,376.392)">
</g>
<g transform="matrix(0.18662,0,0,-0.18662,777.034,376.392)">
</g>
<g transform="matrix(0.18662,0,0,-0.18662,777.034,376.392)">
</g>
<g transform="matrix(0.18662,0,0,-0.18662,834.513,376.392)">
</g>
<g transform="matrix(0.18662,0,0,-0.18662,834.513,376.392)">
</g>
<g transform="matrix(0.18662,0,0,-0.18662,834.513,376.392)">
</g>
<g transform="matrix(0.18662,0,0,-0.18662,834.513,376.392)">
</g>
<g transform="matrix(0.18662,0,0,-0.18662,938.46,376.392)">
</g>
<g transform="matrix(0.18662,0,0,-0.18662,938.46,376.392)">
</g>
<g transform="matrix(0.18662,0,0,-0.18662,938.46,376.392)">
</g>
<g transform="matrix(0.18662,0,0,-0.18662,938.46,376.392)">
</g>
<g transform="matrix(0.18662,0,0,-0.18662,1054.91,376.392)">
</g>
<g transform="matrix(0.18662,0,0,-0.18662,1054.91,376.392)">
</g>
<g transform="matrix(0.18662,0,0,-0.18662,1054.91,376.392)">
</g>
<g transform="matrix(0.18662,0,0,-0.18662,1054.91,376.392)">
</g>
<g transform="matrix(0.18662,0,0,-0.18662,548.797,579.808)">
</g>
<g transform="matrix(0.18662,0,0,-0.18662,548.797,579.808)">
</g>
<g transform="matrix(0.18662,0,0,-0.18662,548.797,579.808)">
</g>
<g transform="matrix(0.18662,0,0,-0.18662,688.949,579.808)">
</g>
<g transform="matrix(0.18662,0,0,-0.18662,688.949,579.808)">
</g>
<g transform="matrix(0.18662,0,0,-0.18662,688.949,579.808)">
</g>
<g transform="matrix(0.18662,0,0,-0.18662,777.034,579.808)">
</g>
<g transform="matrix(0.18662,0,0,-0.18662,777.034,579.808)">
</g>
<g transform="matrix(0.18662,0,0,-0.18662,777.034,579.808)">
</g>
<g transform="matrix(0.18662,0,0,-0.18662,834.513,579.808)">
</g>
<g transform="matrix(0.18662,0,0,-0.18662,834.513,579.808)">
</g>
<g transform="matrix(0.18662,0,0,-0.18662,834.513,579.808)">
</g>
<g transform="matrix(0.18662,0,0,-0.18662,834.513,579.808)">
</g>
<g transform="matrix(0.18662,0,0,-0.18662,938.46,579.808)">
</g>
<g transform="matrix(0.18662,0,0,-0.18662,938.46,579.808)">
</g>
<g transform="matrix(0.18662,0,0,-0.18662,938.46,579.808)">
</g>
<g transform="matrix(0.18662,0,0,-0.18662,954.51,579.808)">
</g>
<g transform="matrix(0.18662,0,0,-0.18662,954.51,579.808)">
</g>
<g transform="matrix(0.18662,0,0,-0.18662,954.51,579.808)">
</g>
<g transform="matrix(0.18662,0,0,-0.18662,954.51,579.808)">
</g>
<g transform="matrix(0.18662,0,0,-0.18662,1070.96,579.808)">
</g>
<g transform="matrix(0.18662,0,0,-0.18662,1070.96,579.808)">
</g>
<g transform="matrix(0.18662,0,0,-0.18662,1070.96,579.808)">
</g>
<g transform="matrix(0.18662,0,0,-0.18662,1070.96,579.808)">
</g>
<g transform="matrix(1.45797,0,0,1.45797,502.142,172.042)">
</g>
<g transform="matrix(1.45797,0,0,1.45797,502.142,172.042)">
</g>
<g transform="matrix(1.45797,0,0,1.45797,502.142,172.042)">
</g>
<g transform="matrix(1.45797,0,0,1.45797,502.142,172.042)">
</g>
<g transform="matrix(1.45797,0,0,1.45797,502.142,172.042)">
</g>
<g transform="matrix(1.45797,0,0,1.45797,502.142,172.042)">
</g>
<g transform="matrix(1.45797,0,0,1.45797,502.142,172.042)">
</g>
<g transform="matrix(1,0,0,1,0,0)">
</g>
<g transform="matrix(1,0,0,1,0,0)">
</g>
<g transform="matrix(1.45797,0,0,1.45797,502.142,172.042)">
</g>
<g transform="matrix(1.45797,0,0,1.45797,502.142,172.042)">
</g>
<g transform="matrix(1,0,0,1,0,0)">
	<path vector-effect="non-scaling-stroke" class="st0" d="M295.6,49H287c-2.3,2.1-4.5,4.4-5.8,7.3c-1.4,3-1.5,6.4-1.5,9.6v11.8v15.4
		c0,3,0,5.9-0.8,8.8c-0.8,2.9-2.1,5.6-3.8,8c-5.3,7.6-14.7,12.6-23.8,14.9l-1.4-3.6c1.8-1.1,3.5-2.6,4.9-4.2
		c2.4-3.2,3.6-7.1,4.1-11.1l0.3-33.1c0-1.7,0-3.3,0.3-4.9c0.3-1.7,0.9-3.2,1.8-4.7c1.8-2.7,4.5-4.9,7.3-6.5l12.9-7.7h-24.1
		c-1.4,0-2.9,0-4.1-0.6c-1.4-0.5-2.6-1.2-3.5-2.3c-1.2-1.5-2.1-3.3-2.6-5.2c-0.5-2-0.8-3.9-0.8-5.8c-0.2-3.9,0.5-7.9,1.4-11.7
		l3.3,0.2c0.3,1.2,0.8,2.3,1.5,3.3c0.6,0.9,1.7,1.7,2.7,2.3c0.9,0.5,2.1,0.9,3.3,1.1c1.2,0.2,2.4,0.2,3.5,0.2h38.5
		c6.2,0,12.7,0.3,18.5,2.7c5.9,2.4,10.9,6.7,14.7,11.8c6.4,8.9,8.9,20,9.7,30.9c0.5,10.5-0.8,21.1-3.6,31.2
		c-1.7,5.5-3.8,10.9-6.2,16.1l-37.9,20.9c-7.3-5.3-16.2-8.3-25.2-8.5c-11.5-0.3-19.1,2.9-27,11.8h-4.2c9.3-14.3,17-24.4,34.4-27.9
		c13.8-2.7,29.6,1.8,40.8,10.5c3-7.9,5.3-16.1,6.8-24.4c1.2-7.9,1.8-15.6,1.5-23.5c0-8.5-2.6-19-8.2-25.6c-2.4-2.7-5.6-5-9.1-6.2
		C302.5,49.3,299,49,295.6,49"/>
</g>
<g transform="matrix(1,0,0,1,0,0)">
	<path vector-effect="non-scaling-stroke" class="st0" d="M400.3,123.1V80.6l-23.4-15l-16.7,8.8c-1.8,0.9-3.5,1.8-5,3.2
		c-1.4,1.2-2.6,2.7-3.3,4.4c-0.8,1.7-1.2,3.6-1.1,5.5c0.2,2,0.8,3.9,1.8,5.6c2.1,3.2,5.5,5.5,8.9,7.1c0.8,0.3,1.4,0.8,2.1,1.1
		c-3.5,1.8-6.8,4.1-9.9,6.7c-2.1,1.8-4.1,4.1-5.6,6.5s-2.4,5.2-2.6,8c-0.3,4.4,1.5,8.9,4.2,12.3c3.9,4.9,9.9,7.9,16.1,8.6l16.1-11.7
		l11.5,11.7l16.1-11.2L400.3,123.1 M381.3,102.4c-2.7-0.6-5.5-1.2-8.2-2.1c-1.8-0.6-3.6-1.2-5.5-1.8c-1.1-0.5-2-0.9-3-1.4
		c-2.7-1.4-5.3-3-7.3-5.3c-1.4-1.7-2.3-3.6-2.3-5.8c0-1.5,0.5-2.9,1.2-4.2c0.8-1.4,1.7-2.4,2.9-3.3c0.9-0.8,2.1-1.4,3.2-1.8l19,11.7
		C381.3,93,381.3,97.7,381.3,102.4 M381.3,106.8c0,7.7,0,15.5,0,23.2c-1.7,0.5-3.3,0.6-5,0.3c-2.1-0.5-4.2-1.5-5.9-3
		c-1.7-1.5-2.9-3.2-3.9-5.2c-2.1-4.1-3.2-8.8-2.4-13.3c0.3-2.3,1.2-4.5,2.4-6.5c2,0.6,3.9,1.4,5.9,2
		C375.4,105.1,378.3,105.8,381.3,106.8"/>
</g>
<g transform="matrix(1,0,0,1,0,0)">
	<path vector-effect="non-scaling-stroke" class="st0" d="M453.5,123.7l-8.2,5.5l-5.9-4.7V79.8c2.1,2.1,4.7,3.8,7.4,5
		c1.8,0.8,3.6,1.4,5.6,1.4s3.8-0.5,5.6-1.2c2.3-1.1,4.1-2.7,5.5-4.9c1.4-2.1,2.3-4.4,2.9-6.8c0.8-2.7,1.4-5.5,1.7-8.3h-2.9
		c-1.4,2.3-3.6,4.2-7.9,4.2c-3.6,0-6.1-2-7.4-4.2h-1.7l-10.5,12l-11.2-12l-15.8,11.1l8.5,8.6v39.9L415,129l18.8,14.6l22.6-16.4
		L453.5,123.7"/>
</g>
<g transform="matrix(1,0,0,1,0,0)">
	<path vector-effect="none" class="st0" d="M544,125.3l-6.5,4.4l-29.7-44.3l1.4-3c2.1,2,4.9,3.6,7.6,4.4c2.3,0.8,4.9,0.9,7.3,0.6
		c2.4-0.3,4.7-1.2,6.7-2.6c2.1-1.5,3.9-3.5,5.3-5.6c1.4-2.1,2.3-4.7,3-7.1c0.6-2.1,1.1-4.2,1.4-6.4h-2.9c-0.9,1.7-2.3,3.2-3.9,4.2
		c-1.7,1.1-3.5,1.5-5.5,1.5c-2.1,0-4.1-0.3-5.9-1.4s-3.2-2.6-4.2-4.4h-1.5l-22.4,34.9l29.7,43.7l23.4-15.3L544,125.3"/>
</g>
<g transform="matrix(1,0,0,1,0,0)">
	<path vector-effect="non-scaling-stroke" class="st0" d="M492.5,124.5V26.4h-2.9l-24.7,17.4l7.1,7.9c0.2,0.8,0.2,1.5,0.2,2.3v69.1
		l-5,3.2l18.8,16.4l16.1-10.8L492.5,124.5"/>
</g>
<g transform="matrix(1,0,0,1,0,0)">
	<path vector-effect="none" class="st0" d="M565,93.4h-26.4l13.2,23L565,93.4"/>
</g>
<path class="st0" d="M610.3,42c7.4,7.4,14.3,10,22.9,11.1l22-17.7l-3.6-3.2l-4.2,3.2c-12.6,0-25.5-5.9-29-11.5L589,49.8v20.6h-6.5
	l-14.1,12v3.3c21.4,0,3.3,0,20.6,0v30.2c0,9.9-0.2,14.7-1.5,17.7c-4.1-1.5-8.6-2.9-15.3-2c-17.1,2.3-29.1,16.7-33.5,25.8h3.8
	c0,0,4.9-8.9,19.3-8.9c5,0,9.3,1.7,12.3,3.9c0,0,28.1-25.3,36.4-35.6V85.7h12.4l19.7-12.9v-3h-32.1V42H610.3z"/>
<g transform="matrix(1,0,0,1,0,0)">
	<path vector-effect="none" class="st0" d="M683.8,125.3l-6.7,4.4l-5-5.2V78.7l-11.7-13.8l-15.2,10.3l7.9,9.4v39.9l-4.9,3.5
		l17.3,15.5l21.8-15.3L683.8,125.3"/>
</g>
<g transform="matrix(1,0,0,1,0,0)">
	<path vector-effect="none" class="st0" d="M661.6,34.5l11.3,12.3L660.7,58l-11.3-12.3L661.6,34.5"/>
</g>
<g>
	<path class="st0" d="M103.3,38.4c-12.4,0-22.4,10-22.4,22.4s10,22.4,22.4,22.4s22.4-10,22.4-22.4S115.7,38.4,103.3,38.4z M103.3,71
		c-5.6,0-10.1-4.5-10.1-10.1s4.5-10.1,10.1-10.1s10.1,4.5,10.1,10.1S108.9,71,103.3,71z"/>
	<path class="st0" d="M0,0l103.3,179L206.6,0H0L0,0z M103.3,92.8c-20.1,0-37.2-16-45.9-32c8.7-16,25.8-32,45.9-32s37.2,16,45.9,32
		C140.5,76.8,123.5,92.8,103.3,92.8z"/>
</g>
</svg>
