<?xml version="1.0" encoding="utf-8"?>
<!-- Generator: Adobe Illustrator 26.0.1, SVG Export Plug-In . SVG Version: 6.00 Build 0)  -->
<svg version="1.1" id="Calque_1" xmlns="http://www.w3.org/2000/svg" xmlns:xlink="http://www.w3.org/1999/xlink" x="0px" y="0px"
	 viewBox="0 0 117 141.5" style="enable-background:new 0 0 117 141.5;" xml:space="preserve">
<path d="M16.3,137.5V92.6l-5.6-3.3v52.2h40.2c-7.5-3.3-15.6-5-23.8-5C23.5,136.5,19.9,136.8,16.3,137.5L16.3,137.5z"/>
<path d="M106.2,89.3l-5.6,3.3v44.9c-3.5-0.7-7.1-1-10.8-1c-8.2-0.1-16.3,1.6-23.7,5h40.1L106.2,89.3z"/>
<path d="M41.6,81.8c-3.2-2.8-8-4.8-12.1-4.9c-2.3,0-4.5,0.2-6.7,0.8v52.7c2.4-0.3,4.8-0.4,7.3-0.4c6.8,0,16.8,1.1,26.5,5.9l0.1,0
	v-28.1l-1.3-2.3L41.6,81.8z"/>
<path d="M94.1,130.4V77.8c-2.2-0.5-4.5-0.8-6.7-0.8c-4.1,0.1-8.5,2.1-12.1,4.8l-13.8,23.8l-1.3,2.3V136l0.1,0
	c9.8-4.9,19.7-5.9,26.5-5.9C89.2,130,91.7,130.2,94.1,130.4L94.1,130.4z"/>
<path d="M70.7,33.1c0-2.4-0.7-4.8-2.1-6.8c-1.3-2-3.3-3.6-5.5-4.5c-2.2-0.9-4.7-1.2-7.1-0.7c-2.4,0.5-4.6,1.6-6.3,3.3
	c-1.7,1.7-2.9,3.9-3.4,6.2c-0.5,2.4-0.2,4.8,0.7,7.1c0.9,2.2,2.5,4.1,4.5,5.5c2,1.3,4.4,2.1,6.8,2.1c3.3,0,6.4-1.3,8.7-3.6
	C69.4,39.5,70.7,36.4,70.7,33.1L70.7,33.1z M52.9,33.1c0-1.1,0.3-2.2,0.9-3.1c0.6-0.9,1.5-1.6,2.5-2c1-0.4,2.1-0.5,3.2-0.3
	c1.1,0.2,2.1,0.7,2.8,1.5c0.8,0.8,1.3,1.8,1.5,2.8c0.2,1.1,0.1,2.2-0.3,3.2c-0.4,1-1.1,1.9-2,2.5c-0.9,0.6-2,0.9-3.1,0.9
	c-1.5,0-2.9-0.6-3.9-1.6C53.5,36,52.9,34.6,52.9,33.1L52.9,33.1z"/>
<path d="M115,0H2l56.5,97.4L115,0z M33.4,33.1c4.8-8.7,14.1-17.4,25.1-17.4s20.3,8.7,25.1,17.4c-4.8,8.7-14.1,17.4-25.1,17.4
	S38.1,41.8,33.4,33.1z"/>
</svg>
