<?xml version="1.0" encoding="UTF-8" standalone="no"?>
<svg
   viewBox="0 0 1280 720"
   version="1.1"
   id="svg66"
   sodipodi:docname="bench_laptop_verify_dao-propose-input_pdf.svg"
   inkscape:version="1.3.2 (091e20ef0f, 2023-11-25)"
   xmlns:inkscape="http://www.inkscape.org/namespaces/inkscape"
   xmlns:sodipodi="http://sodipodi.sourceforge.net/DTD/sodipodi-0.dtd"
   xmlns:xlink="http://www.w3.org/1999/xlink"
   xmlns="http://www.w3.org/2000/svg"
   xmlns:svg="http://www.w3.org/2000/svg"
   xmlns:rdf="http://www.w3.org/1999/02/22-rdf-syntax-ns#"
   xmlns:cc="http://creativecommons.org/ns#"
   xmlns:dc="http://purl.org/dc/elements/1.1/">
  <defs
     id="defs66">
    <defs
       id="defs2">
      <circle
         id="gpDot"
         r="0.5"
         stroke-width="0.5"
         stroke="currentColor" />
      <path
         id="gpPt0"
         stroke-width="0.222"
         stroke="currentColor"
         d="M-1,0 h2 M0,-1 v2" />
      <path
         id="gpPt1"
         stroke-width="0.222"
         stroke="currentColor"
         d="M-1,-1 L1,1 M1,-1 L-1,1" />
      <path
         id="gpPt2"
         stroke-width="0.222"
         stroke="currentColor"
         d="M-1,0 L1,0 M0,-1 L0,1 M-1,-1 L1,1 M-1,1 L1,-1" />
      <rect
         id="gpPt3"
         stroke-width="0.222"
         stroke="currentColor"
         x="-1"
         y="-1"
         width="2"
         height="2" />
      <rect
         id="gpPt4"
         stroke-width="0.222"
         stroke="currentColor"
         fill="currentColor"
         x="-1"
         y="-1"
         width="2"
         height="2" />
      <circle
         id="gpPt5"
         stroke-width="0.222"
         stroke="currentColor"
         cx="0"
         cy="0"
         r="1" />
      <use
         xlink:href="#gpPt5"
         id="gpPt6"
         fill="currentColor"
         stroke="none" />
      <path
         id="gpPt7"
         stroke-width="0.222"
         stroke="currentColor"
         d="M0,-1.33 L-1.33,0.67 L1.33,0.67 z" />
      <use
         xlink:href="#gpPt7"
         id="gpPt8"
         fill="currentColor"
         stroke="none" />
      <use
         xlink:href="#gpPt7"
         id="gpPt9"
         stroke="currentColor"
         transform="rotate(180)" />
      <use
         xlink:href="#gpPt9"
         id="gpPt10"
         fill="currentColor"
         stroke="none" />
      <use
         xlink:href="#gpPt3"
         id="gpPt11"
         stroke="currentColor"
         transform="rotate(45)" />
      <use
         xlink:href="#gpPt11"
         id="gpPt12"
         fill="currentColor"
         stroke="none" />
      <path
         id="gpPt13"
         stroke-width="0.222"
         stroke="currentColor"
         d="M0,1.330 L1.265,0.411 L0.782,-1.067 L-0.782,-1.076 L-1.265,0.411 z" />
      <use
         xlink:href="#gpPt13"
         id="gpPt14"
         fill="currentColor"
         stroke="none" />
      <filter
         id="textbox"
         filterUnits="objectBoundingBox"
         x="0"
         y="0"
         height="1"
         width="1">
        <feFlood
           flood-color="white"
           flood-opacity="1"
           result="bgnd"
           id="feFlood1" />
        <feComposite
           in="SourceGraphic"
           in2="bgnd"
           operator="atop"
           id="feComposite1" />
      </filter>
      <filter
         id="greybox"
         filterUnits="objectBoundingBox"
         x="0"
         y="0"
         height="1"
         width="1">
        <feFlood
           flood-color="lightgrey"
           flood-opacity="1"
           result="grey"
           id="feFlood2" />
        <feComposite
           in="SourceGraphic"
           in2="grey"
           operator="atop"
           id="feComposite2" />
      </filter>
    </defs>
  </defs>
  <sodipodi:namedview
     id="namedview66"
     pagecolor="#2d2d2d"
     bordercolor="#000000"
     borderopacity="0.25"
     inkscape:showpageshadow="2"
     inkscape:pageopacity="0.0"
     inkscape:pagecheckerboard="0"
     inkscape:deskcolor="#d1d1d1"
     inkscape:zoom="1.789864"
     inkscape:cx="640.8308"
     inkscape:cy="309.24137"
     inkscape:window-width="3838"
     inkscape:window-height="2158"
     inkscape:window-x="0"
     inkscape:window-y="0"
     inkscape:window-maximized="0"
     inkscape:current-layer="svg66" />
  <title
     id="title1">Gnuplot</title>
  <desc
     id="desc1">Produced by GNUPLOT 6.0 patchlevel 0 </desc>
  <rect
     x="0"
     y="0"
     width="1280"
     height="720"
     fill="none"
     id="rect1" />
  <path
     stroke="#000000"
     d="m 72.53,662.4 h 9"
     id="path2"
     style="color:#000000;fill:none;stroke-width:1;stroke-linecap:butt;stroke-linejoin:miter" />
  <text
     id="text2"
     style="color:#000000;font-size:12px;font-family:Helvetica;text-anchor:end;fill:#ffffff;stroke:none;stroke-width:1;stroke-linecap:butt;stroke-linejoin:miter;fill-opacity:1"
     x="64.139999"
     y="666.29999"><tspan
       font-family="Helvetica"
       id="tspan2"
       style="fill:#ffffff;fill-opacity:1">0</tspan></text>
  <path
     stroke="#000000"
     d="m 72.53,575.49 h 9"
     id="path4"
     style="color:#000000;fill:none;stroke-width:1;stroke-linecap:butt;stroke-linejoin:miter;stroke:#ffffff;stroke-opacity:1" />
  <text
     id="text4"
     style="color:#000000;font-size:12px;font-family:Helvetica;text-anchor:end;fill:#ffffff;stroke:none;stroke-width:1;stroke-linecap:butt;stroke-linejoin:miter;fill-opacity:1"
     x="64.139999"
     y="579.39001"><tspan
       font-family="Helvetica"
       id="tspan4"
       style="fill:#ffffff;fill-opacity:1">0.2</tspan></text>
  <path
     stroke="#000000"
     d="m 72.53,488.57 h 9"
     id="path6"
     style="color:#000000;fill:none;stroke-width:1;stroke-linecap:butt;stroke-linejoin:miter;stroke:#ffffff;stroke-opacity:1" />
  <text
     id="text6"
     style="color:#000000;font-size:12px;font-family:Helvetica;text-anchor:end;fill:#ffffff;stroke:none;stroke-width:1;stroke-linecap:butt;stroke-linejoin:miter;fill-opacity:1"
     x="64.139999"
     y="492.47"><tspan
       font-family="Helvetica"
       id="tspan6"
       style="fill:#ffffff;fill-opacity:1">0.4</tspan></text>
  <path
     stroke="#000000"
     d="m 72.53,401.66 h 9"
     id="path8"
     style="color:#000000;fill:none;stroke-width:1;stroke-linecap:butt;stroke-linejoin:miter;stroke:#ffffff;stroke-opacity:1" />
  <text
     id="text8"
     style="color:#000000;font-size:12px;font-family:Helvetica;text-anchor:end;fill:#ffffff;stroke:none;stroke-width:1;stroke-linecap:butt;stroke-linejoin:miter;fill-opacity:1"
     x="64.139999"
     y="405.56"><tspan
       font-family="Helvetica"
       id="tspan8"
       style="fill:#ffffff;fill-opacity:1">0.6</tspan></text>
  <path
     stroke="#000000"
     d="m 72.53,314.75 h 9"
     id="path10"
     style="color:#000000;fill:none;stroke-width:1;stroke-linecap:butt;stroke-linejoin:miter;stroke:#ffffff;stroke-opacity:1" />
  <text
     id="text10"
     style="color:#000000;font-size:12px;font-family:Helvetica;text-anchor:end;fill:#ffffff;stroke:none;stroke-width:1;stroke-linecap:butt;stroke-linejoin:miter;fill-opacity:1"
     x="64.139999"
     y="318.64999"><tspan
       font-family="Helvetica"
       id="tspan10"
       style="fill:#ffffff;fill-opacity:1">0.8</tspan></text>
  <path
     stroke="#000000"
     d="m 72.53,227.84 h 9"
     id="path12"
     style="color:#000000;fill:none;stroke-width:1;stroke-linecap:butt;stroke-linejoin:miter;stroke:#ffffff;stroke-opacity:1" />
  <text
     id="text12"
     style="color:#000000;font-size:12px;font-family:Helvetica;text-anchor:end;fill:#ffffff;stroke:none;stroke-width:1;stroke-linecap:butt;stroke-linejoin:miter;fill-opacity:1"
     x="64.139999"
     y="231.74001"><tspan
       font-family="Helvetica"
       id="tspan12"
       style="fill:#ffffff;fill-opacity:1">1</tspan></text>
  <path
     stroke="#000000"
     d="m 72.53,140.92 h 9"
     id="path14"
     style="color:#000000;fill:none;stroke-width:1;stroke-linecap:butt;stroke-linejoin:miter;stroke:#ffffff;stroke-opacity:1" />
  <text
     id="text14"
     style="color:#000000;font-size:12px;font-family:Helvetica;text-anchor:end;fill:#ffffff;stroke:none;stroke-width:1;stroke-linecap:butt;stroke-linejoin:miter;fill-opacity:1"
     x="64.139999"
     y="144.82001"><tspan
       font-family="Helvetica"
       id="tspan14"
       style="fill:#ffffff;fill-opacity:1">1.2</tspan></text>
  <path
     stroke="#000000"
     d="m 72.53,54.01 h 9"
     id="path16"
     style="color:#000000;fill:none;stroke-width:1;stroke-linecap:butt;stroke-linejoin:miter;stroke:#ffffff;stroke-opacity:1" />
  <text
     id="text16"
     style="color:#000000;font-size:12px;font-family:Helvetica;text-anchor:end;fill:#ffffff;stroke:none;stroke-width:1;stroke-linecap:butt;stroke-linejoin:miter;fill-opacity:1"
     x="64.139999"
     y="57.91"><tspan
       font-family="Helvetica"
       id="tspan16"
       style="fill:#ffffff;fill-opacity:1">1.4</tspan></text>
  <path
     stroke="#000000"
     d="m 72.53,662.4 v -9"
     id="path18"
     style="color:#000000;fill:none;stroke-width:1;stroke-linecap:butt;stroke-linejoin:miter" />
  <text
     id="text18"
     style="color:#000000;font-size:12px;font-family:Helvetica;text-anchor:middle;fill:#ffffff;stroke:none;stroke-width:1;stroke-linecap:butt;stroke-linejoin:miter;fill-opacity:1"
     x="72.529999"
     y="684.29999"><tspan
       font-family="Helvetica"
       id="tspan18"
       style="fill:#ffffff;fill-opacity:1">30</tspan></text>
  <path
     stroke="#000000"
     d="m 203.46,662.4 v -9"
     id="path20"
     style="color:#000000;fill:none;stroke-width:1;stroke-linecap:butt;stroke-linejoin:miter;stroke:#ffffff;stroke-opacity:1" />
  <text
     id="text20"
     style="color:#000000;font-size:12px;font-family:Helvetica;text-anchor:middle;fill:#ffffff;stroke:none;stroke-width:1;stroke-linecap:butt;stroke-linejoin:miter;fill-opacity:1"
     x="203.46001"
     y="684.29999"><tspan
       font-family="Helvetica"
       id="tspan20"
       style="fill:#ffffff;fill-opacity:1">40</tspan></text>
  <path
     stroke="#000000"
     d="m 334.39,662.4 v -9"
     id="path22"
     style="color:#000000;fill:none;stroke-width:1;stroke-linecap:butt;stroke-linejoin:miter;stroke:#ffffff;stroke-opacity:1" />
  <text
     id="text22"
     style="color:#000000;font-size:12px;font-family:Helvetica;text-anchor:middle;fill:#ffffff;stroke:none;stroke-width:1;stroke-linecap:butt;stroke-linejoin:miter;fill-opacity:1"
     x="334.39001"
     y="684.29999"><tspan
       font-family="Helvetica"
       id="tspan22"
       style="fill:#ffffff;fill-opacity:1">50</tspan></text>
  <path
     stroke="#000000"
     d="m 465.32,662.4 v -9"
     id="path24"
     style="color:#000000;fill:none;stroke-width:1;stroke-linecap:butt;stroke-linejoin:miter;stroke:#ffffff;stroke-opacity:1" />
  <text
     id="text24"
     style="color:#000000;font-size:12px;font-family:Helvetica;text-anchor:middle;fill:#ffffff;stroke:none;stroke-width:1;stroke-linecap:butt;stroke-linejoin:miter;fill-opacity:1"
     x="465.32001"
     y="684.29999"><tspan
       font-family="Helvetica"
       id="tspan24"
       style="fill:#ffffff;fill-opacity:1">60</tspan></text>
  <path
     stroke="#000000"
     d="m 596.25,662.4 v -9"
     id="path26"
     style="color:#000000;fill:none;stroke-width:1;stroke-linecap:butt;stroke-linejoin:miter;stroke:#ffffff;stroke-opacity:1" />
  <text
     id="text26"
     style="color:#000000;font-size:12px;font-family:Helvetica;text-anchor:middle;fill:#ffffff;stroke:none;stroke-width:1;stroke-linecap:butt;stroke-linejoin:miter;fill-opacity:1"
     x="596.25"
     y="684.29999"><tspan
       font-family="Helvetica"
       id="tspan26"
       style="fill:#ffffff;fill-opacity:1">70</tspan></text>
  <path
     stroke="#000000"
     d="m 727.18,662.4 v -9"
     id="path28"
     style="color:#000000;fill:none;stroke-width:1;stroke-linecap:butt;stroke-linejoin:miter;stroke:#ffffff;stroke-opacity:1" />
  <text
     id="text28"
     style="color:#000000;font-size:12px;font-family:Helvetica;text-anchor:middle;fill:#ffffff;stroke:none;stroke-width:1;stroke-linecap:butt;stroke-linejoin:miter;fill-opacity:1"
     x="727.17999"
     y="684.29999"><tspan
       font-family="Helvetica"
       id="tspan28"
       style="fill:#ffffff;fill-opacity:1">80</tspan></text>
  <path
     stroke="#000000"
     d="m 858.11,662.4 v -9"
     id="path30"
     style="color:#000000;fill:none;stroke-width:1;stroke-linecap:butt;stroke-linejoin:miter;stroke:#ffffff;stroke-opacity:1" />
  <text
     id="text30"
     style="color:#000000;font-size:12px;font-family:Helvetica;text-anchor:middle;fill:#ffffff;stroke:none;stroke-width:1;stroke-linecap:butt;stroke-linejoin:miter;fill-opacity:1"
     x="858.10999"
     y="684.29999"><tspan
       font-family="Helvetica"
       id="tspan30"
       style="fill:#ffffff;fill-opacity:1">90</tspan></text>
  <path
     stroke="#000000"
     d="m 989.04,662.4 v -9"
     id="path32"
     style="color:#000000;fill:none;stroke-width:1;stroke-linecap:butt;stroke-linejoin:miter;stroke:#ffffff;stroke-opacity:1" />
  <text
     id="text32"
     style="color:#000000;font-size:12px;font-family:Helvetica;text-anchor:middle;fill:#ffffff;stroke:none;stroke-width:1;stroke-linecap:butt;stroke-linejoin:miter;fill-opacity:1"
     x="989.03998"
     y="684.29999"><tspan
       font-family="Helvetica"
       id="tspan32"
       style="fill:#ffffff;fill-opacity:1">100</tspan></text>
  <path
     stroke="#000000"
     d="m 1119.97,662.4 v -9"
     id="path34"
     style="color:#000000;fill:none;stroke-width:1;stroke-linecap:butt;stroke-linejoin:miter;stroke:#ffffff;stroke-opacity:1" />
  <text
     id="text34"
     style="color:#000000;font-size:12px;font-family:Helvetica;text-anchor:middle;fill:#ffffff;stroke:none;stroke-width:1;stroke-linecap:butt;stroke-linejoin:miter;fill-opacity:1"
     x="1119.97"
     y="684.29999"><tspan
       font-family="Helvetica"
       id="tspan34"
       style="fill:#ffffff;fill-opacity:1">110</tspan></text>
  <path
     stroke="#000000"
     d="M 72.53,54.01 V 662.4 H 1119.97 V 54.01 Z"
     id="path37"
     style="color:#000000;fill:none;stroke-width:1;stroke-linecap:butt;stroke-linejoin:miter" />
  <polygon
     fill="#e31a1c"
     fill-opacity="0.5"
     points="183.32,662.02 183.42,661.97 183.52,661.92 183.63,661.85 183.73,661.78 183.84,661.71 183.94,661.62 184.05,661.52 184.15,661.42 184.26,661.3 184.36,661.17 184.46,661.03 184.57,660.88 184.67,660.7 184.78,660.52 184.88,660.31 184.99,660.09 185.09,659.84 185.2,659.57 185.3,659.28 185.4,658.96 185.51,658.62 185.61,658.25 185.72,657.84 185.82,657.4 185.93,656.93 186.03,656.41 186.14,655.86 186.24,655.27 186.34,654.62 186.45,653.93 186.55,653.19 186.66,652.4 186.76,651.54 186.87,650.62 186.97,649.64 187.08,648.59 187.18,647.47 187.28,646.27 187.39,644.99 187.49,643.62 187.6,642.16 187.7,640.6 187.81,638.95 187.91,637.19 188.02,635.31 188.12,633.32 188.22,631.21 188.33,628.96 188.43,626.58 188.54,624.06 188.64,621.39 188.75,618.56 188.85,615.57 188.96,612.42 189.06,609.08 189.16,605.57 189.27,601.86 189.37,597.96 189.48,593.85 189.58,589.54 189.69,585 189.79,580.25 189.9,575.27 190,570.06 190.1,564.6 190.21,558.91 190.31,552.97 190.42,546.78 190.52,540.34 190.63,533.64 190.73,526.69 190.84,519.48 190.94,512.02 191.04,504.3 191.15,496.33 191.25,488.12 191.36,479.67 191.46,470.97 191.57,462.05 191.67,452.91 191.78,443.56 191.88,434.01 191.98,424.27 192.09,414.35 192.19,404.27 192.3,394.05 192.4,383.69 192.51,373.22 192.61,362.66 192.72,352.03 192.82,341.34 192.92,330.61 193.03,319.87 193.13,309.15 193.24,298.46 193.34,287.82 193.45,277.26 193.55,266.81 193.66,256.48 193.76,246.3 193.86,236.3 193.97,226.5 194.07,216.91 194.18,207.57 194.28,198.49 194.39,189.69 194.49,181.2 194.6,173.04 194.7,165.21 194.8,157.75 194.91,150.66 195.01,143.96 195.12,137.67 195.22,131.79 195.33,126.34 195.43,121.33 195.54,116.76 195.64,112.64 195.74,108.98 195.85,105.78 195.95,103.05 196.06,100.78 196.16,98.98 196.27,97.64 196.37,96.76 196.48,96.34 196.58,96.38 196.68,96.86 196.79,97.78 196.89,99.14 197,100.93 197.1,103.13 197.21,105.73 197.31,108.74 197.42,112.13 197.52,115.89 197.62,120.01 197.73,124.48 197.83,129.29 197.94,134.42 198.04,139.86 198.15,145.6 198.25,151.62 198.36,157.92 198.46,164.46 198.56,171.25 198.67,178.27 198.77,185.51 198.88,192.94 198.98,200.57 199.09,208.36 199.19,216.32 199.3,224.42 199.4,232.66 199.5,241.02 199.61,249.49 199.71,258.05 199.82,266.69 199.92,275.4 200.03,284.17 200.13,292.98 200.24,301.81 200.34,310.67 200.44,319.53 200.55,328.39 200.65,337.22 200.76,346.03 200.86,354.79 200.97,363.5 201.07,372.14 201.18,380.71 201.28,389.18 201.38,397.57 201.49,405.84 201.59,414 201.7,422.03 201.8,429.92 201.91,437.67 202.01,445.27 202.12,452.7 202.22,459.97 202.32,467.07 202.43,473.98 202.53,480.71 202.64,487.25 202.74,493.6 202.85,499.74 202.95,505.69 203.06,511.43 203.16,516.97 203.26,522.3 203.37,527.43 203.47,532.35 203.58,537.06 203.68,541.57 203.79,545.88 203.89,549.99 204,553.9 204.1,557.63 204.2,561.16 204.31,564.51 204.41,567.69 204.52,570.69 204.62,573.53 204.73,576.21 204.83,578.74 204.94,581.11 205.04,583.35 205.14,585.46 205.25,587.44 205.35,589.31 205.46,591.06 205.56,592.72 205.67,594.27 205.77,595.74 205.88,597.12 205.98,598.43 206.08,599.67 206.19,600.84 206.29,601.96 206.4,603.03 206.5,604.05 206.61,605.03 206.71,605.98 206.82,606.89 206.92,607.78 207.02,608.64 207.13,609.48 207.23,610.31 207.34,611.12 207.44,611.92 207.55,612.71 207.65,613.49 207.76,614.27 207.86,615.05 207.96,615.82 208.07,616.59 208.17,617.36 208.28,618.13 208.38,618.91 208.49,619.68 208.59,620.46 208.7,621.24 208.8,622.02 208.9,622.8 209.01,623.59 209.11,624.37 209.22,625.17 209.32,625.96 209.43,626.76 209.53,627.55 209.64,628.36 209.74,629.16 209.84,629.96 209.95,630.76 210.05,631.57 210.16,632.37 210.26,633.18 210.37,633.98 210.47,634.78 210.58,635.58 210.68,636.38 210.78,637.17 210.89,637.96 210.99,638.74 211.1,639.51 211.2,640.28 211.31,641.04 211.41,641.79 211.52,642.53 211.62,643.25 211.72,643.96 211.83,644.66 211.93,645.34 212.04,646.01 212.14,646.65 212.25,647.28 212.35,647.88 212.46,648.46 212.56,649.02 212.66,649.55 212.77,650.06 212.87,650.54 212.98,651 213.08,651.42 213.19,651.82 213.29,652.18 213.4,652.52 213.5,652.82 213.6,653.1 213.71,653.34 213.81,653.55 213.92,653.72 214.02,653.87 214.13,653.98 214.23,654.06 214.34,654.11 214.44,654.14 214.54,654.13 214.65,654.09 214.75,654.02 214.86,653.93 214.96,653.81 215.07,653.67 215.17,653.5 215.28,653.31 215.38,653.1 215.48,652.88 215.59,652.63 215.69,652.37 215.8,652.09 215.9,651.8 216.01,651.5 216.11,651.19 216.22,650.88 216.32,650.55 216.42,650.23 216.53,649.9 216.63,649.58 216.74,649.25 216.84,648.93 216.95,648.61 217.05,648.31 217.16,648.01 217.26,647.72 217.36,647.44 217.47,647.17 217.57,646.92 217.68,646.69 217.78,646.47 217.89,646.27 217.99,646.09 218.1,645.93 218.2,645.8 218.3,645.68 218.41,645.59 218.51,645.52 218.62,645.47 218.72,645.44 218.83,645.44 218.93,645.47 219.03,645.51 219.14,645.58 219.24,645.68 219.35,645.79 219.45,645.93 219.56,646.09 219.66,646.28 219.77,646.48 219.87,646.7 219.97,646.94 220.08,647.2 220.18,647.47 220.29,647.76 220.39,648.07 220.5,648.38 220.6,648.71 220.71,649.05 220.81,649.39 220.91,649.74 221.02,650.1 221.12,650.46 221.23,650.82 221.33,651.19 221.44,651.55 221.54,651.91 221.65,652.26 221.75,652.61 221.85,652.96 221.96,653.29 222.06,653.62 222.17,653.93 222.27,654.23 222.38,654.52 222.48,654.79 222.59,655.05 222.69,655.3 222.79,655.52 222.9,655.73 223,655.92 223.11,656.09 223.21,656.24 223.32,656.37 223.42,656.48 223.53,656.57 223.63,656.64 223.73,656.69 223.84,656.71 223.94,656.72 224.05,656.71 224.15,656.69 224.26,656.64 224.36,656.58 224.47,656.5 224.57,656.4 224.67,656.29 224.78,656.17 224.88,656.03 224.99,655.89 225.09,655.73 225.2,655.57 225.3,655.39 225.41,655.22 225.51,655.04 225.61,654.85 225.72,654.67 225.82,654.48 225.93,654.3 226.03,654.13 226.14,653.95 226.24,653.79 226.35,653.63 226.45,653.48 226.55,653.34 226.66,653.21 226.76,653.1 226.87,653 226.97,652.91 227.08,652.84 227.18,652.79 227.29,652.75 227.39,652.73 227.49,652.73 227.6,652.74 227.7,652.77 227.81,652.82 227.91,652.89 228.02,652.98 228.12,653.08 228.23,653.2 228.33,653.33 228.43,653.48 228.54,653.64 228.64,653.82 228.75,654.01 228.85,654.21 228.96,654.42 229.06,654.64 229.17,654.87 229.27,655.11 229.37,655.35 229.48,655.6 229.58,655.85 229.69,656.11 229.79,656.37 229.9,656.63 230,656.88 230.11,657.14 230.21,657.39 230.31,657.65 230.42,657.89 230.52,658.14 230.63,658.37 230.73,658.61 230.84,658.83 230.94,659.05 231.05,659.26 231.15,659.47 231.25,659.66 231.36,659.85 231.46,660.03 231.57,660.2 231.67,660.36 231.78,660.52 231.88,660.66 231.99,660.8 232.09,660.93 232.19,661.05 232.3,661.17 232.4,661.27 232.51,661.37 232.61,661.47 232.72,661.55 232.82,661.63 232.93,661.71 233.03,661.77 233.13,661.84 233.24,661.89 233.34,661.94 233.45,661.99 233.55,662.04 233.66,662.07 233.76,662.11 233.87,662.14 233.97,662.17 234.07,662.2 234.18,662.22 234.28,662.24 234.39,662.26 234.49,662.28 234.6,662.29 234.6,662.4 234.49,662.4 234.39,662.4 234.28,662.4 234.18,662.4 234.07,662.4 233.97,662.4 233.87,662.4 233.76,662.4 233.66,662.4 233.55,662.4 233.45,662.4 233.34,662.4 233.24,662.4 233.13,662.4 233.03,662.4 232.93,662.4 232.82,662.4 232.72,662.4 232.61,662.4 232.51,662.4 232.4,662.4 232.3,662.4 232.19,662.4 232.09,662.4 231.99,662.4 231.88,662.4 231.78,662.4 231.67,662.4 231.57,662.4 231.46,662.4 231.36,662.4 231.25,662.4 231.15,662.4 231.05,662.4 230.94,662.4 230.84,662.4 230.73,662.4 230.63,662.4 230.52,662.4 230.42,662.4 230.31,662.4 230.21,662.4 230.11,662.4 230,662.4 229.9,662.4 229.79,662.4 229.69,662.4 229.58,662.4 229.48,662.4 229.37,662.4 229.27,662.4 229.17,662.4 229.06,662.4 228.96,662.4 228.85,662.4 228.75,662.4 228.64,662.4 228.54,662.4 228.43,662.4 228.33,662.4 228.23,662.4 228.12,662.4 228.02,662.4 227.91,662.4 227.81,662.4 227.7,662.4 227.6,662.4 227.49,662.4 227.39,662.4 227.29,662.4 227.18,662.4 227.08,662.4 226.97,662.4 226.87,662.4 226.76,662.4 226.66,662.4 226.55,662.4 226.45,662.4 226.35,662.4 226.24,662.4 226.14,662.4 226.03,662.4 225.93,662.4 225.82,662.4 225.72,662.4 225.61,662.4 225.51,662.4 225.41,662.4 225.3,662.4 225.2,662.4 225.09,662.4 224.99,662.4 224.88,662.4 224.78,662.4 224.67,662.4 224.57,662.4 224.47,662.4 224.36,662.4 224.26,662.4 224.15,662.4 224.05,662.4 223.94,662.4 223.84,662.4 223.73,662.4 223.63,662.4 223.53,662.4 223.42,662.4 223.32,662.4 223.21,662.4 223.11,662.4 223,662.4 222.9,662.4 222.79,662.4 222.69,662.4 222.59,662.4 222.48,662.4 222.38,662.4 222.27,662.4 222.17,662.4 222.06,662.4 221.96,662.4 221.85,662.4 221.75,662.4 221.65,662.4 221.54,662.4 221.44,662.4 221.33,662.4 221.23,662.4 221.12,662.4 221.02,662.4 220.91,662.4 220.81,662.4 220.71,662.4 220.6,662.4 220.5,662.4 220.39,662.4 220.29,662.4 220.18,662.4 220.08,662.4 219.97,662.4 219.87,662.4 219.77,662.4 219.66,662.4 219.56,662.4 219.45,662.4 219.35,662.4 219.24,662.4 219.14,662.4 219.03,662.4 218.93,662.4 218.83,662.4 218.72,662.4 218.62,662.4 218.51,662.4 218.41,662.4 218.3,662.4 218.2,662.4 218.1,662.4 217.99,662.4 217.89,662.4 217.78,662.4 217.68,662.4 217.57,662.4 217.47,662.4 217.36,662.4 217.26,662.4 217.16,662.4 217.05,662.4 216.95,662.4 216.84,662.4 216.74,662.4 216.63,662.4 216.53,662.4 216.42,662.4 216.32,662.4 216.22,662.4 216.11,662.4 216.01,662.4 215.9,662.4 215.8,662.4 215.69,662.4 215.59,662.4 215.48,662.4 215.38,662.4 215.28,662.4 215.17,662.4 215.07,662.4 214.96,662.4 214.86,662.4 214.75,662.4 214.65,662.4 214.54,662.4 214.44,662.4 214.34,662.4 214.23,662.4 214.13,662.4 214.02,662.4 213.92,662.4 213.81,662.4 213.71,662.4 213.6,662.4 213.5,662.4 213.4,662.4 213.29,662.4 213.19,662.4 213.08,662.4 212.98,662.4 212.87,662.4 212.77,662.4 212.66,662.4 212.56,662.4 212.46,662.4 212.35,662.4 212.25,662.4 212.14,662.4 212.04,662.4 211.93,662.4 211.83,662.4 211.72,662.4 211.62,662.4 211.52,662.4 211.41,662.4 211.31,662.4 211.2,662.4 211.1,662.4 210.99,662.4 210.89,662.4 210.78,662.4 210.68,662.4 210.58,662.4 210.47,662.4 210.37,662.4 210.26,662.4 210.16,662.4 210.05,662.4 209.95,662.4 209.84,662.4 209.74,662.4 209.64,662.4 209.53,662.4 209.43,662.4 209.32,662.4 209.22,662.4 209.11,662.4 209.01,662.4 208.9,662.4 208.8,662.4 208.7,662.4 208.59,662.4 208.49,662.4 208.38,662.4 208.28,662.4 208.17,662.4 208.07,662.4 207.96,662.4 207.86,662.4 207.76,662.4 207.65,662.4 207.55,662.4 207.44,662.4 207.34,662.4 207.23,662.4 207.13,662.4 207.02,662.4 206.92,662.4 206.82,662.4 206.71,662.4 206.61,662.4 206.5,662.4 206.4,662.4 206.29,662.4 206.19,662.4 206.08,662.4 205.98,662.4 205.88,662.4 205.77,662.4 205.67,662.4 205.56,662.4 205.46,662.4 205.35,662.4 205.25,662.4 205.14,662.4 205.04,662.4 204.94,662.4 204.83,662.4 204.73,662.4 204.62,662.4 204.52,662.4 204.41,662.4 204.31,662.4 204.2,662.4 204.1,662.4 204,662.4 203.89,662.4 203.79,662.4 203.68,662.4 203.58,662.4 203.47,662.4 203.37,662.4 203.26,662.4 203.16,662.4 203.06,662.4 202.95,662.4 202.85,662.4 202.74,662.4 202.64,662.4 202.53,662.4 202.43,662.4 202.32,662.4 202.22,662.4 202.12,662.4 202.01,662.4 201.91,662.4 201.8,662.4 201.7,662.4 201.59,662.4 201.49,662.4 201.38,662.4 201.28,662.4 201.18,662.4 201.07,662.4 200.97,662.4 200.86,662.4 200.76,662.4 200.65,662.4 200.55,662.4 200.44,662.4 200.34,662.4 200.24,662.4 200.13,662.4 200.03,662.4 199.92,662.4 199.82,662.4 199.71,662.4 199.61,662.4 199.5,662.4 199.4,662.4 199.3,662.4 199.19,662.4 199.09,662.4 198.98,662.4 198.88,662.4 198.77,662.4 198.67,662.4 198.56,662.4 198.46,662.4 198.36,662.4 198.25,662.4 198.15,662.4 198.04,662.4 197.94,662.4 197.83,662.4 197.73,662.4 197.62,662.4 197.52,662.4 197.42,662.4 197.31,662.4 197.21,662.4 197.1,662.4 197,662.4 196.89,662.4 196.79,662.4 196.68,662.4 196.58,662.4 196.48,662.4 196.37,662.4 196.27,662.4 196.16,662.4 196.06,662.4 195.95,662.4 195.85,662.4 195.74,662.4 195.64,662.4 195.54,662.4 195.43,662.4 195.33,662.4 195.22,662.4 195.12,662.4 195.01,662.4 194.91,662.4 194.8,662.4 194.7,662.4 194.6,662.4 194.49,662.4 194.39,662.4 194.28,662.4 194.18,662.4 194.07,662.4 193.97,662.4 193.86,662.4 193.76,662.4 193.66,662.4 193.55,662.4 193.45,662.4 193.34,662.4 193.24,662.4 193.13,662.4 193.03,662.4 192.92,662.4 192.82,662.4 192.72,662.4 192.61,662.4 192.51,662.4 192.4,662.4 192.3,662.4 192.19,662.4 192.09,662.4 191.98,662.4 191.88,662.4 191.78,662.4 191.67,662.4 191.57,662.4 191.46,662.4 191.36,662.4 191.25,662.4 191.15,662.4 191.04,662.4 190.94,662.4 190.84,662.4 190.73,662.4 190.63,662.4 190.52,662.4 190.42,662.4 190.31,662.4 190.21,662.4 190.1,662.4 190,662.4 189.9,662.4 189.79,662.4 189.69,662.4 189.58,662.4 189.48,662.4 189.37,662.4 189.27,662.4 189.16,662.4 189.06,662.4 188.96,662.4 188.85,662.4 188.75,662.4 188.64,662.4 188.54,662.4 188.43,662.4 188.33,662.4 188.22,662.4 188.12,662.4 188.02,662.4 187.91,662.4 187.81,662.4 187.7,662.4 187.6,662.4 187.49,662.4 187.39,662.4 187.28,662.4 187.18,662.4 187.08,662.4 186.97,662.4 186.87,662.4 186.76,662.4 186.66,662.4 186.55,662.4 186.45,662.4 186.34,662.4 186.24,662.4 186.14,662.4 186.03,662.4 185.93,662.4 185.82,662.4 185.72,662.4 185.61,662.4 185.51,662.4 185.4,662.4 185.3,662.4 185.2,662.4 185.09,662.4 184.99,662.4 184.88,662.4 184.78,662.4 184.67,662.4 184.57,662.4 184.46,662.4 184.36,662.4 184.26,662.4 184.15,662.4 184.05,662.4 183.94,662.4 183.84,662.4 183.73,662.4 183.63,662.4 183.52,662.4 183.42,662.4 183.32,662.4 183.21,662.4 183.11,662.4 183,662.4 182.9,662.4 182.79,662.4 182.69,662.4 182.58,662.4 182.48,662.4 182.48,662.27 182.58,662.25 182.69,662.23 182.79,662.2 182.9,662.17 183,662.14 183.11,662.11 183.21,662.07 "
     id="polygon42"
     style="color:#000000;stroke:none;stroke-width:1;stroke-linecap:butt;stroke-linejoin:miter;shape-rendering:crispEdges" />
  <polygon
     fill="#1f78b4"
     fill-opacity="0.5"
     points="403.61,662.37 405.03,662.37 406.46,662.37 407.88,662.36 409.31,662.36 410.74,662.35 412.16,662.35 413.59,662.34 415.02,662.34 416.44,662.33 417.87,662.32 419.29,662.31 420.72,662.31 422.15,662.3 423.57,662.29 425,662.27 426.42,662.26 427.85,662.25 429.28,662.24 430.7,662.22 432.13,662.2 433.55,662.19 434.98,662.17 436.41,662.15 437.83,662.13 439.26,662.11 440.69,662.08 442.11,662.06 443.54,662.03 444.96,662 446.39,661.97 447.82,661.94 449.24,661.9 450.67,661.86 452.09,661.83 453.52,661.78 454.95,661.74 456.37,661.69 457.8,661.64 459.22,661.59 460.65,661.53 462.08,661.47 463.5,661.41 464.93,661.34 466.36,661.27 467.78,661.19 469.21,661.11 470.63,661.03 472.06,660.93 473.49,660.84 474.91,660.73 476.34,660.62 477.76,660.5 479.19,660.37 480.62,660.24 482.04,660.09 483.47,659.93 484.89,659.77 486.32,659.59 487.75,659.39 489.17,659.19 490.6,658.97 492.03,658.73 493.45,658.48 494.88,658.21 496.3,657.92 497.73,657.61 499.16,657.28 500.58,656.93 502.01,656.56 503.43,656.16 504.86,655.73 506.29,655.28 507.71,654.8 509.14,654.29 510.57,653.76 511.99,653.19 513.42,652.59 514.84,651.95 516.27,651.29 517.7,650.59 519.12,649.85 520.55,649.08 521.97,648.28 523.4,647.44 524.83,646.56 526.25,645.65 527.68,644.71 529.1,643.73 530.53,642.72 531.96,641.68 533.38,640.61 534.81,639.51 536.24,638.39 537.66,637.24 539.09,636.06 540.51,634.87 541.94,633.66 543.37,632.44 544.79,631.2 546.22,629.96 547.64,628.72 549.07,627.47 550.5,626.23 551.92,625 553.35,623.78 554.77,622.57 556.2,621.38 557.63,620.22 559.05,619.09 560.48,618 561.91,616.94 563.33,615.92 564.76,614.95 566.18,614.03 567.61,613.17 569.04,612.36 570.46,611.61 571.89,610.93 573.31,610.32 574.74,609.78 576.17,609.31 577.59,608.92 579.02,608.61 580.45,608.37 581.87,608.21 583.3,608.14 584.72,608.14 586.15,608.23 587.58,608.4 589,608.64 590.43,608.97 591.85,609.37 593.28,609.85 594.71,610.4 596.13,611.02 597.56,611.71 598.98,612.47 600.41,613.28 601.84,614.16 603.26,615.09 604.69,616.07 606.12,617.1 607.54,618.16 608.97,619.27 610.39,620.41 611.82,621.58 613.25,622.78 614.67,623.99 616.1,625.23 617.52,626.47 618.95,627.72 620.38,628.98 621.8,630.23 623.23,631.49 624.65,632.73 626.08,633.97 627.51,635.19 628.93,636.39 630.36,637.58 631.79,638.74 633.21,639.88 634.64,640.99 636.06,642.07 637.49,643.12 638.92,644.14 640.34,645.13 641.77,646.08 643.19,647 644.62,647.89 646.05,648.74 647.47,649.55 648.9,650.33 650.32,651.07 651.75,651.77 653.18,652.44 654.6,653.08 656.03,653.68 657.46,654.25 658.88,654.79 660.31,655.3 661.73,655.77 663.16,656.22 664.59,656.64 666.01,657.03 667.44,657.39 668.86,657.74 670.29,658.05 671.72,658.35 673.14,658.62 674.57,658.87 676,659.11 677.42,659.32 678.85,659.52 680.27,659.71 681.7,659.88 683.13,660.03 684.55,660.17 685.98,660.3 687.4,660.42 688.83,660.53 690.26,660.63 691.68,660.72 693.11,660.8 694.53,660.88 695.96,660.95 697.39,661.01 698.81,661.06 700.24,661.11 701.67,661.16 703.09,661.2 704.52,661.23 705.94,661.27 707.37,661.3 708.8,661.32 710.22,661.35 711.65,661.37 713.07,661.39 714.5,661.4 715.93,661.42 717.35,661.43 718.78,661.44 720.2,661.45 721.63,661.46 723.06,661.47 724.48,661.47 725.91,661.48 727.34,661.48 728.76,661.49 730.19,661.49 731.61,661.49 733.04,661.49 734.47,661.49 735.89,661.49 737.32,661.49 738.74,661.49 740.17,661.49 741.6,661.49 743.02,661.49 744.45,661.48 745.87,661.48 747.3,661.48 748.73,661.47 750.15,661.47 751.58,661.46 753.01,661.45 754.43,661.44 755.86,661.43 757.28,661.42 758.71,661.41 760.14,661.4 761.56,661.39 762.99,661.37 764.41,661.35 765.84,661.33 767.27,661.31 768.69,661.29 770.12,661.27 771.55,661.24 772.97,661.21 774.4,661.18 775.82,661.15 777.25,661.12 778.68,661.08 780.1,661.04 781.53,661 782.95,660.96 784.38,660.91 785.81,660.87 787.23,660.82 788.66,660.76 790.08,660.71 791.51,660.65 792.94,660.6 794.36,660.54 795.79,660.47 797.22,660.41 798.64,660.34 800.07,660.28 801.49,660.21 802.92,660.14 804.35,660.07 805.77,660 807.2,659.93 808.62,659.86 810.05,659.79 811.48,659.72 812.9,659.65 814.33,659.58 815.75,659.52 817.18,659.45 818.61,659.39 820.03,659.32 821.46,659.26 822.89,659.21 824.31,659.15 825.74,659.1 827.16,659.05 828.59,659 830.02,658.96 831.44,658.92 832.87,658.88 834.29,658.85 835.72,658.82 837.15,658.8 838.57,658.78 840,658.77 841.42,658.76 842.85,658.75 844.28,658.75 845.7,658.75 847.13,658.76 848.56,658.77 849.98,658.79 851.41,658.81 852.83,658.84 854.26,658.87 855.69,658.9 857.11,658.94 858.54,658.98 859.96,659.02 861.39,659.07 862.82,659.12 864.24,659.17 865.67,659.23 867.1,659.28 868.52,659.34 869.95,659.4 871.37,659.47 872.8,659.53 874.23,659.6 875.65,659.66 877.08,659.73 878.5,659.79 879.93,659.86 881.36,659.93 882.78,660 884.21,660.06 885.63,660.13 887.06,660.19 888.49,660.26 889.91,660.32 891.34,660.38 892.77,660.44 894.19,660.5 895.62,660.55 897.04,660.61 898.47,660.66 899.9,660.72 901.32,660.77 902.75,660.82 904.17,660.86 905.6,660.91 907.03,660.95 908.45,660.99 909.88,661.03 911.3,661.07 912.73,661.11 914.16,661.14 915.58,661.18 917.01,661.21 918.44,661.24 919.86,661.27 921.29,661.3 922.71,661.32 924.14,661.35 925.57,661.37 926.99,661.39 928.42,661.41 929.84,661.44 931.27,661.45 932.7,661.47 934.12,661.49 935.55,661.51 936.98,661.52 938.4,661.54 939.83,661.55 941.25,661.56 942.68,661.58 944.11,661.59 945.53,661.6 946.96,661.61 948.38,661.62 949.81,661.63 951.24,661.63 952.66,661.64 954.09,661.65 955.51,661.65 956.94,661.66 958.37,661.66 959.79,661.66 961.22,661.67 962.65,661.67 964.07,661.67 965.5,661.67 966.92,661.67 968.35,661.67 969.78,661.67 971.2,661.67 972.63,661.67 974.05,661.67 975.48,661.67 976.91,661.67 978.33,661.67 979.76,661.67 981.18,661.67 982.61,661.67 984.04,661.67 985.46,661.67 986.89,661.67 988.32,661.67 989.74,661.67 991.17,661.68 992.59,661.68 994.02,661.68 995.45,661.69 996.87,661.69 998.3,661.69 999.72,661.7 1001.15,661.71 1002.58,661.71 1004,661.72 1005.43,661.73 1006.85,661.74 1008.28,661.75 1009.71,661.76 1011.13,661.77 1012.56,661.78 1013.99,661.8 1015.41,661.81 1016.84,661.82 1018.26,661.84 1019.69,661.85 1021.12,661.87 1022.54,661.88 1023.97,661.9 1025.39,661.91 1026.82,661.93 1028.25,661.94 1029.67,661.96 1031.1,661.98 1032.53,661.99 1033.95,662.01 1035.38,662.03 1036.8,662.04 1038.23,662.06 1039.66,662.07 1041.08,662.09 1042.51,662.11 1043.93,662.12 1045.36,662.14 1046.79,662.15 1048.21,662.16 1049.64,662.18 1051.06,662.19 1052.49,662.2 1053.92,662.21 1055.34,662.23 1056.77,662.24 1058.2,662.25 1059.62,662.26 1061.05,662.27 1062.47,662.28 1063.9,662.29 1065.33,662.29 1066.75,662.3 1068.18,662.31 1069.6,662.32 1071.03,662.32 1072.46,662.33 1073.88,662.34 1075.31,662.34 1076.73,662.35 1078.16,662.35 1079.59,662.36 1081.01,662.36 1082.44,662.36 1083.87,662.37 1085.29,662.37 1086.72,662.37 1088.14,662.38 1089.57,662.38 1091,662.38 1092.42,662.38 1093.85,662.38 1095.27,662.39 1096.7,662.39 1098.13,662.39 1099.55,662.39 1100.98,662.39 1102.4,662.39 1103.83,662.39 1103.83,662.4 1102.4,662.4 1100.98,662.4 1099.55,662.4 1098.13,662.4 1096.7,662.4 1095.27,662.4 1093.85,662.4 1092.42,662.4 1091,662.4 1089.57,662.4 1088.14,662.4 1086.72,662.4 1085.29,662.4 1083.87,662.4 1082.44,662.4 1081.01,662.4 1079.59,662.4 1078.16,662.4 1076.73,662.4 1075.31,662.4 1073.88,662.4 1072.46,662.4 1071.03,662.4 1069.6,662.4 1068.18,662.4 1066.75,662.4 1065.33,662.4 1063.9,662.4 1062.47,662.4 1061.05,662.4 1059.62,662.4 1058.2,662.4 1056.77,662.4 1055.34,662.4 1053.92,662.4 1052.49,662.4 1051.06,662.4 1049.64,662.4 1048.21,662.4 1046.79,662.4 1045.36,662.4 1043.93,662.4 1042.51,662.4 1041.08,662.4 1039.66,662.4 1038.23,662.4 1036.8,662.4 1035.38,662.4 1033.95,662.4 1032.53,662.4 1031.1,662.4 1029.67,662.4 1028.25,662.4 1026.82,662.4 1025.39,662.4 1023.97,662.4 1022.54,662.4 1021.12,662.4 1019.69,662.4 1018.26,662.4 1016.84,662.4 1015.41,662.4 1013.99,662.4 1012.56,662.4 1011.13,662.4 1009.71,662.4 1008.28,662.4 1006.85,662.4 1005.43,662.4 1004,662.4 1002.58,662.4 1001.15,662.4 999.72,662.4 998.3,662.4 996.87,662.4 995.45,662.4 994.02,662.4 992.59,662.4 991.17,662.4 989.74,662.4 988.32,662.4 986.89,662.4 985.46,662.4 984.04,662.4 982.61,662.4 981.18,662.4 979.76,662.4 978.33,662.4 976.91,662.4 975.48,662.4 974.05,662.4 972.63,662.4 971.2,662.4 969.78,662.4 968.35,662.4 966.92,662.4 965.5,662.4 964.07,662.4 962.65,662.4 961.22,662.4 959.79,662.4 958.37,662.4 956.94,662.4 955.51,662.4 954.09,662.4 952.66,662.4 951.24,662.4 949.81,662.4 948.38,662.4 946.96,662.4 945.53,662.4 944.11,662.4 942.68,662.4 941.25,662.4 939.83,662.4 938.4,662.4 936.98,662.4 935.55,662.4 934.12,662.4 932.7,662.4 931.27,662.4 929.84,662.4 928.42,662.4 926.99,662.4 925.57,662.4 924.14,662.4 922.71,662.4 921.29,662.4 919.86,662.4 918.44,662.4 917.01,662.4 915.58,662.4 914.16,662.4 912.73,662.4 911.3,662.4 909.88,662.4 908.45,662.4 907.03,662.4 905.6,662.4 904.17,662.4 902.75,662.4 901.32,662.4 899.9,662.4 898.47,662.4 897.04,662.4 895.62,662.4 894.19,662.4 892.77,662.4 891.34,662.4 889.91,662.4 888.49,662.4 887.06,662.4 885.63,662.4 884.21,662.4 882.78,662.4 881.36,662.4 879.93,662.4 878.5,662.4 877.08,662.4 875.65,662.4 874.23,662.4 872.8,662.4 871.37,662.4 869.95,662.4 868.52,662.4 867.1,662.4 865.67,662.4 864.24,662.4 862.82,662.4 861.39,662.4 859.96,662.4 858.54,662.4 857.11,662.4 855.69,662.4 854.26,662.4 852.83,662.4 851.41,662.4 849.98,662.4 848.56,662.4 847.13,662.4 845.7,662.4 844.28,662.4 842.85,662.4 841.42,662.4 840,662.4 838.57,662.4 837.15,662.4 835.72,662.4 834.29,662.4 832.87,662.4 831.44,662.4 830.02,662.4 828.59,662.4 827.16,662.4 825.74,662.4 824.31,662.4 822.89,662.4 821.46,662.4 820.03,662.4 818.61,662.4 817.18,662.4 815.75,662.4 814.33,662.4 812.9,662.4 811.48,662.4 810.05,662.4 808.62,662.4 807.2,662.4 805.77,662.4 804.35,662.4 802.92,662.4 801.49,662.4 800.07,662.4 798.64,662.4 797.22,662.4 795.79,662.4 794.36,662.4 792.94,662.4 791.51,662.4 790.08,662.4 788.66,662.4 787.23,662.4 785.81,662.4 784.38,662.4 782.95,662.4 781.53,662.4 780.1,662.4 778.68,662.4 777.25,662.4 775.82,662.4 774.4,662.4 772.97,662.4 771.55,662.4 770.12,662.4 768.69,662.4 767.27,662.4 765.84,662.4 764.41,662.4 762.99,662.4 761.56,662.4 760.14,662.4 758.71,662.4 757.28,662.4 755.86,662.4 754.43,662.4 753.01,662.4 751.58,662.4 750.15,662.4 748.73,662.4 747.3,662.4 745.87,662.4 744.45,662.4 743.02,662.4 741.6,662.4 740.17,662.4 738.74,662.4 737.32,662.4 735.89,662.4 734.47,662.4 733.04,662.4 731.61,662.4 730.19,662.4 728.76,662.4 727.34,662.4 725.91,662.4 724.48,662.4 723.06,662.4 721.63,662.4 720.2,662.4 718.78,662.4 717.35,662.4 715.93,662.4 714.5,662.4 713.07,662.4 711.65,662.4 710.22,662.4 708.8,662.4 707.37,662.4 705.94,662.4 704.52,662.4 703.09,662.4 701.67,662.4 700.24,662.4 698.81,662.4 697.39,662.4 695.96,662.4 694.53,662.4 693.11,662.4 691.68,662.4 690.26,662.4 688.83,662.4 687.4,662.4 685.98,662.4 684.55,662.4 683.13,662.4 681.7,662.4 680.27,662.4 678.85,662.4 677.42,662.4 676,662.4 674.57,662.4 673.14,662.4 671.72,662.4 670.29,662.4 668.86,662.4 667.44,662.4 666.01,662.4 664.59,662.4 663.16,662.4 661.73,662.4 660.31,662.4 658.88,662.4 657.46,662.4 656.03,662.4 654.6,662.4 653.18,662.4 651.75,662.4 650.32,662.4 648.9,662.4 647.47,662.4 646.05,662.4 644.62,662.4 643.19,662.4 641.77,662.4 640.34,662.4 638.92,662.4 637.49,662.4 636.06,662.4 634.64,662.4 633.21,662.4 631.79,662.4 630.36,662.4 628.93,662.4 627.51,662.4 626.08,662.4 624.65,662.4 623.23,662.4 621.8,662.4 620.38,662.4 618.95,662.4 617.52,662.4 616.1,662.4 614.67,662.4 613.25,662.4 611.82,662.4 610.39,662.4 608.97,662.4 607.54,662.4 606.12,662.4 604.69,662.4 603.26,662.4 601.84,662.4 600.41,662.4 598.98,662.4 597.56,662.4 596.13,662.4 594.71,662.4 593.28,662.4 591.85,662.4 590.43,662.4 589,662.4 587.58,662.4 586.15,662.4 584.72,662.4 583.3,662.4 581.87,662.4 580.45,662.4 579.02,662.4 577.59,662.4 576.17,662.4 574.74,662.4 573.31,662.4 571.89,662.4 570.46,662.4 569.04,662.4 567.61,662.4 566.18,662.4 564.76,662.4 563.33,662.4 561.91,662.4 560.48,662.4 559.05,662.4 557.63,662.4 556.2,662.4 554.77,662.4 553.35,662.4 551.92,662.4 550.5,662.4 549.07,662.4 547.64,662.4 546.22,662.4 544.79,662.4 543.37,662.4 541.94,662.4 540.51,662.4 539.09,662.4 537.66,662.4 536.24,662.4 534.81,662.4 533.38,662.4 531.96,662.4 530.53,662.4 529.1,662.4 527.68,662.4 526.25,662.4 524.83,662.4 523.4,662.4 521.97,662.4 520.55,662.4 519.12,662.4 517.7,662.4 516.27,662.4 514.84,662.4 513.42,662.4 511.99,662.4 510.57,662.4 509.14,662.4 507.71,662.4 506.29,662.4 504.86,662.4 503.43,662.4 502.01,662.4 500.58,662.4 499.16,662.4 497.73,662.4 496.3,662.4 494.88,662.4 493.45,662.4 492.03,662.4 490.6,662.4 489.17,662.4 487.75,662.4 486.32,662.4 484.89,662.4 483.47,662.4 482.04,662.4 480.62,662.4 479.19,662.4 477.76,662.4 476.34,662.4 474.91,662.4 473.49,662.4 472.06,662.4 470.63,662.4 469.21,662.4 467.78,662.4 466.36,662.4 464.93,662.4 463.5,662.4 462.08,662.4 460.65,662.4 459.22,662.4 457.8,662.4 456.37,662.4 454.95,662.4 453.52,662.4 452.09,662.4 450.67,662.4 449.24,662.4 447.82,662.4 446.39,662.4 444.96,662.4 443.54,662.4 442.11,662.4 440.69,662.4 439.26,662.4 437.83,662.4 436.41,662.4 434.98,662.4 433.55,662.4 432.13,662.4 430.7,662.4 429.28,662.4 427.85,662.4 426.42,662.4 425,662.4 423.57,662.4 422.15,662.4 420.72,662.4 419.29,662.4 417.87,662.4 416.44,662.4 415.02,662.4 413.59,662.4 412.16,662.4 410.74,662.4 409.31,662.4 407.88,662.4 406.46,662.4 405.03,662.4 403.61,662.4 402.18,662.4 400.75,662.4 399.33,662.4 397.9,662.4 396.48,662.4 395.05,662.4 393.62,662.4 392.2,662.4 392.2,662.39 393.62,662.39 395.05,662.39 396.48,662.38 397.9,662.38 399.33,662.38 400.75,662.38 402.18,662.38 "
     id="polygon51"
     style="color:#000000;stroke:none;stroke-width:1;stroke-linecap:butt;stroke-linejoin:miter;shape-rendering:crispEdges" />
  <path
     stroke="#000000"
     d="M 72.53,54.01 V 662.4 H 1119.97 V 54.01 Z"
     id="path58"
     style="color:#000000;fill:none;stroke-width:1;stroke-linecap:butt;stroke-linejoin:miter;stroke:#ffffff;stroke-opacity:1" />
  <text
     id="text58"
     transform="rotate(-90)"
     style="color:#000000;font-size:12px;font-family:Helvetica;text-anchor:middle;fill:#ffffff;stroke:none;stroke-width:1;stroke-linecap:butt;stroke-linejoin:miter;fill-opacity:1"
     x="-358.20999"
     y="19.18"><tspan
       font-family="Helvetica"
       id="tspan58"
       style="fill:#ffffff;fill-opacity:1">Density (a.u.)</tspan></text>
  <text
     id="text60"
     style="color:#000000;font-size:12px;font-family:Helvetica;text-anchor:middle;fill:#ffffff;stroke:none;stroke-width:1;stroke-linecap:butt;stroke-linejoin:miter;fill-opacity:1"
     x="596.25"
     y="711.29999"><tspan
       font-family="Helvetica"
       id="tspan60"
       style="fill:#ffffff;fill-opacity:1">Average time (ms)</tspan></text>
  <text
     id="text63"
     style="color:#000000;font-size:12px;font-family:Helvetica;text-anchor:middle;fill:#ffffff;stroke:none;stroke-width:1;stroke-linecap:butt;stroke-linejoin:miter;fill-opacity:1"
     x="596.25"
     y="30.91"><tspan
       font-family="Helvetica"
       id="tspan63"
       style="fill:#ffffff;fill-opacity:1">verify DAO::propose-input</tspan></text>
  <metadata
     id="metadata66">
    <rdf:RDF>
      <cc:Work
         rdf:about="">
        <dc:title>Gnuplot</dc:title>
      </cc:Work>
    </rdf:RDF>
  </metadata>
</svg>
