<?xml version="1.0" encoding="UTF-8" standalone="no"?>
<svg
   viewBox="0 0 1280 720"
   version="1.1"
   id="svg72"
   sodipodi:docname="bench_verify_dao-vote-input_pdf.svg"
   inkscape:version="1.3.2 (091e20ef0f, 2023-11-25)"
   xmlns:inkscape="http://www.inkscape.org/namespaces/inkscape"
   xmlns:sodipodi="http://sodipodi.sourceforge.net/DTD/sodipodi-0.dtd"
   xmlns:xlink="http://www.w3.org/1999/xlink"
   xmlns="http://www.w3.org/2000/svg"
   xmlns:svg="http://www.w3.org/2000/svg"
   xmlns:rdf="http://www.w3.org/1999/02/22-rdf-syntax-ns#"
   xmlns:cc="http://creativecommons.org/ns#"
   xmlns:dc="http://purl.org/dc/elements/1.1/">
  <defs
     id="defs72">
    <defs
       id="defs2">
      <circle
         id="gpDot"
         r="0.5"
         stroke-width="0.5"
         stroke="currentColor" />
      <path
         id="gpPt0"
         stroke-width="0.222"
         stroke="currentColor"
         d="M-1,0 h2 M0,-1 v2" />
      <path
         id="gpPt1"
         stroke-width="0.222"
         stroke="currentColor"
         d="M-1,-1 L1,1 M1,-1 L-1,1" />
      <path
         id="gpPt2"
         stroke-width="0.222"
         stroke="currentColor"
         d="M-1,0 L1,0 M0,-1 L0,1 M-1,-1 L1,1 M-1,1 L1,-1" />
      <rect
         id="gpPt3"
         stroke-width="0.222"
         stroke="currentColor"
         x="-1"
         y="-1"
         width="2"
         height="2" />
      <rect
         id="gpPt4"
         stroke-width="0.222"
         stroke="currentColor"
         fill="currentColor"
         x="-1"
         y="-1"
         width="2"
         height="2" />
      <circle
         id="gpPt5"
         stroke-width="0.222"
         stroke="currentColor"
         cx="0"
         cy="0"
         r="1" />
      <use
         xlink:href="#gpPt5"
         id="gpPt6"
         fill="currentColor"
         stroke="none" />
      <path
         id="gpPt7"
         stroke-width="0.222"
         stroke="currentColor"
         d="M0,-1.33 L-1.33,0.67 L1.33,0.67 z" />
      <use
         xlink:href="#gpPt7"
         id="gpPt8"
         fill="currentColor"
         stroke="none" />
      <use
         xlink:href="#gpPt7"
         id="gpPt9"
         stroke="currentColor"
         transform="rotate(180)" />
      <use
         xlink:href="#gpPt9"
         id="gpPt10"
         fill="currentColor"
         stroke="none" />
      <use
         xlink:href="#gpPt3"
         id="gpPt11"
         stroke="currentColor"
         transform="rotate(45)" />
      <use
         xlink:href="#gpPt11"
         id="gpPt12"
         fill="currentColor"
         stroke="none" />
      <path
         id="gpPt13"
         stroke-width="0.222"
         stroke="currentColor"
         d="M0,1.330 L1.265,0.411 L0.782,-1.067 L-0.782,-1.076 L-1.265,0.411 z" />
      <use
         xlink:href="#gpPt13"
         id="gpPt14"
         fill="currentColor"
         stroke="none" />
      <filter
         id="textbox"
         filterUnits="objectBoundingBox"
         x="0"
         y="0"
         height="1"
         width="1">
        <feFlood
           flood-color="white"
           flood-opacity="1"
           result="bgnd"
           id="feFlood1" />
        <feComposite
           in="SourceGraphic"
           in2="bgnd"
           operator="atop"
           id="feComposite1" />
      </filter>
      <filter
         id="greybox"
         filterUnits="objectBoundingBox"
         x="0"
         y="0"
         height="1"
         width="1">
        <feFlood
           flood-color="lightgrey"
           flood-opacity="1"
           result="grey"
           id="feFlood2" />
        <feComposite
           in="SourceGraphic"
           in2="grey"
           operator="atop"
           id="feComposite2" />
      </filter>
    </defs>
  </defs>
  <sodipodi:namedview
     id="namedview72"
     pagecolor="#2e2e2e"
     bordercolor="#000000"
     borderopacity="0.25"
     inkscape:showpageshadow="2"
     inkscape:pageopacity="0.0"
     inkscape:pagecheckerboard="0"
     inkscape:deskcolor="#d1d1d1"
     inkscape:zoom="1.789864"
     inkscape:cx="619.04143"
     inkscape:cy="420.423"
     inkscape:window-width="3838"
     inkscape:window-height="2158"
     inkscape:window-x="0"
     inkscape:window-y="0"
     inkscape:window-maximized="0"
     inkscape:current-layer="svg72" />
  <title
     id="title1">Gnuplot</title>
  <desc
     id="desc1">Produced by GNUPLOT 6.0 patchlevel 0 </desc>
  <rect
     x="0"
     y="0"
     width="1280"
     height="720"
     fill="none"
     id="rect1" />
  <path
     stroke="#000000"
     d="m 72.53,662.4 h 9"
     id="path2"
     style="color:#000000;fill:none;stroke-width:1;stroke-linecap:butt;stroke-linejoin:miter;stroke:#ffffff;stroke-opacity:1" />
  <text
     id="text2"
     style="color:#000000;font-size:12px;font-family:Helvetica;text-anchor:end;fill:#ffffff;stroke:none;stroke-width:1;stroke-linecap:butt;stroke-linejoin:miter;fill-opacity:1"
     x="64.139999"
     y="666.29999"><tspan
       font-family="Helvetica"
       id="tspan2"
       style="fill:#ffffff;fill-opacity:1">0</tspan></text>
  <path
     stroke="#000000"
     d="m 72.53,586.35 h 9"
     id="path4"
     style="color:#000000;fill:none;stroke-width:1;stroke-linecap:butt;stroke-linejoin:miter;stroke:#ffffff;stroke-opacity:1" />
  <text
     id="text4"
     style="color:#000000;font-size:12px;font-family:Helvetica;text-anchor:end;fill:#ffffff;stroke:none;stroke-width:1;stroke-linecap:butt;stroke-linejoin:miter;fill-opacity:1"
     x="64.139999"
     y="590.25"><tspan
       font-family="Helvetica"
       id="tspan4"
       style="fill:#ffffff;fill-opacity:1">0.2</tspan></text>
  <path
     stroke="#000000"
     d="m 72.53,510.3 h 9"
     id="path6"
     style="color:#000000;fill:none;stroke-width:1;stroke-linecap:butt;stroke-linejoin:miter;stroke:#ffffff;stroke-opacity:1" />
  <text
     id="text6"
     style="color:#000000;font-size:12px;font-family:Helvetica;text-anchor:end;fill:#ffffff;stroke:none;stroke-width:1;stroke-linecap:butt;stroke-linejoin:miter;fill-opacity:1"
     x="64.139999"
     y="514.20001"><tspan
       font-family="Helvetica"
       id="tspan6"
       style="fill:#ffffff;fill-opacity:1">0.4</tspan></text>
  <path
     stroke="#000000"
     d="m 72.53,434.25 h 9"
     id="path8"
     style="color:#000000;fill:none;stroke-width:1;stroke-linecap:butt;stroke-linejoin:miter;stroke:#ffffff;stroke-opacity:1" />
  <text
     id="text8"
     style="color:#000000;font-size:12px;font-family:Helvetica;text-anchor:end;fill:#ffffff;stroke:none;stroke-width:1;stroke-linecap:butt;stroke-linejoin:miter;fill-opacity:1"
     x="64.139999"
     y="438.14999"><tspan
       font-family="Helvetica"
       id="tspan8"
       style="fill:#ffffff;fill-opacity:1">0.6</tspan></text>
  <path
     stroke="#000000"
     d="m 72.53,358.2 h 9"
     id="path10"
     style="color:#000000;fill:none;stroke-width:1;stroke-linecap:butt;stroke-linejoin:miter;stroke:#ffffff;stroke-opacity:1" />
  <text
     id="text10"
     style="color:#000000;font-size:12px;font-family:Helvetica;text-anchor:end;fill:#ffffff;stroke:none;stroke-width:1;stroke-linecap:butt;stroke-linejoin:miter;fill-opacity:1"
     x="64.139999"
     y="362.10001"><tspan
       font-family="Helvetica"
       id="tspan10"
       style="fill:#ffffff;fill-opacity:1">0.8</tspan></text>
  <path
     stroke="#000000"
     d="m 72.53,282.16 h 9"
     id="path12"
     style="color:#000000;fill:none;stroke-width:1;stroke-linecap:butt;stroke-linejoin:miter;stroke:#ffffff;stroke-opacity:1" />
  <text
     id="text12"
     style="color:#000000;font-size:12px;font-family:Helvetica;text-anchor:end;fill:#ffffff;stroke:none;stroke-width:1;stroke-linecap:butt;stroke-linejoin:miter;fill-opacity:1"
     x="64.139999"
     y="286.06"><tspan
       font-family="Helvetica"
       id="tspan12"
       style="fill:#ffffff;fill-opacity:1">1</tspan></text>
  <path
     stroke="#000000"
     d="m 72.53,206.11 h 9"
     id="path14"
     style="color:#000000;fill:none;stroke-width:1;stroke-linecap:butt;stroke-linejoin:miter;stroke:#ffffff;stroke-opacity:1" />
  <text
     id="text14"
     style="color:#000000;font-size:12px;font-family:Helvetica;text-anchor:end;fill:#ffffff;stroke:none;stroke-width:1;stroke-linecap:butt;stroke-linejoin:miter;fill-opacity:1"
     x="64.139999"
     y="210.00999"><tspan
       font-family="Helvetica"
       id="tspan14"
       style="fill:#ffffff;fill-opacity:1">1.2</tspan></text>
  <path
     stroke="#000000"
     d="m 72.53,130.06 h 9"
     id="path16"
     style="color:#000000;fill:none;stroke-width:1;stroke-linecap:butt;stroke-linejoin:miter;stroke:#ffffff;stroke-opacity:1" />
  <text
     id="text16"
     style="color:#000000;font-size:12px;font-family:Helvetica;text-anchor:end;fill:#ffffff;stroke:none;stroke-width:1;stroke-linecap:butt;stroke-linejoin:miter;fill-opacity:1"
     x="64.139999"
     y="133.96001"><tspan
       font-family="Helvetica"
       id="tspan16"
       style="fill:#ffffff;fill-opacity:1">1.4</tspan></text>
  <path
     stroke="#000000"
     d="m 72.53,54.01 h 9"
     id="path18"
     style="color:#000000;fill:none;stroke-width:1;stroke-linecap:butt;stroke-linejoin:miter;stroke:#ffffff;stroke-opacity:1" />
  <text
     id="text18"
     style="color:#000000;font-size:12px;font-family:Helvetica;text-anchor:end;fill:#ffffff;stroke:none;stroke-width:1;stroke-linecap:butt;stroke-linejoin:miter;fill-opacity:1"
     x="64.139999"
     y="57.91"><tspan
       font-family="Helvetica"
       id="tspan18"
       style="fill:#ffffff;fill-opacity:1">1.6</tspan></text>
  <path
     stroke="#000000"
     d="m 72.53,662.4 v -9"
     id="path20"
     style="color:#000000;fill:none;stroke-width:1;stroke-linecap:butt;stroke-linejoin:miter;stroke:#ffffff;stroke-opacity:1" />
  <text
     id="text20"
     style="color:#000000;font-size:12px;font-family:Helvetica;text-anchor:middle;fill:#ffffff;stroke:none;stroke-width:1;stroke-linecap:butt;stroke-linejoin:miter;fill-opacity:1"
     x="72.529999"
     y="684.29999"><tspan
       font-family="Helvetica"
       id="tspan20"
       style="fill:#ffffff;fill-opacity:1">7</tspan></text>
  <path
     stroke="#000000"
     d="m 177.27,662.4 v -9"
     id="path22"
     style="color:#000000;fill:none;stroke-width:1;stroke-linecap:butt;stroke-linejoin:miter;stroke:#ffffff;stroke-opacity:1" />
  <text
     id="text22"
     style="color:#000000;font-size:12px;font-family:Helvetica;text-anchor:middle;fill:#ffffff;stroke:none;stroke-width:1;stroke-linecap:butt;stroke-linejoin:miter;fill-opacity:1"
     x="177.27"
     y="684.29999"><tspan
       font-family="Helvetica"
       id="tspan22"
       style="fill:#ffffff;fill-opacity:1">8</tspan></text>
  <path
     stroke="#000000"
     d="m 282.02,662.4 v -9"
     id="path24"
     style="color:#000000;fill:none;stroke-width:1;stroke-linecap:butt;stroke-linejoin:miter;stroke:#ffffff;stroke-opacity:1" />
  <text
     id="text24"
     style="color:#000000;font-size:12px;font-family:Helvetica;text-anchor:middle;fill:#ffffff;stroke:none;stroke-width:1;stroke-linecap:butt;stroke-linejoin:miter;fill-opacity:1"
     x="282.01999"
     y="684.29999"><tspan
       font-family="Helvetica"
       id="tspan24"
       style="fill:#ffffff;fill-opacity:1">9</tspan></text>
  <path
     stroke="#000000"
     d="m 386.76,662.4 v -9"
     id="path26"
     style="color:#000000;fill:none;stroke-width:1;stroke-linecap:butt;stroke-linejoin:miter;stroke:#ffffff;stroke-opacity:1" />
  <text
     id="text26"
     style="color:#000000;font-size:12px;font-family:Helvetica;text-anchor:middle;fill:#ffffff;stroke:none;stroke-width:1;stroke-linecap:butt;stroke-linejoin:miter;fill-opacity:1"
     x="386.76001"
     y="684.29999"><tspan
       font-family="Helvetica"
       id="tspan26"
       style="fill:#ffffff;fill-opacity:1">10</tspan></text>
  <path
     stroke="#000000"
     d="m 491.51,662.4 v -9"
     id="path28"
     style="color:#000000;fill:none;stroke-width:1;stroke-linecap:butt;stroke-linejoin:miter;stroke:#ffffff;stroke-opacity:1" />
  <text
     id="text28"
     style="color:#000000;font-size:12px;font-family:Helvetica;text-anchor:middle;fill:#ffffff;stroke:none;stroke-width:1;stroke-linecap:butt;stroke-linejoin:miter;fill-opacity:1"
     x="491.51001"
     y="684.29999"><tspan
       font-family="Helvetica"
       id="tspan28"
       style="fill:#ffffff;fill-opacity:1">11</tspan></text>
  <path
     stroke="#000000"
     d="m 596.25,662.4 v -9"
     id="path30"
     style="color:#000000;fill:none;stroke-width:1;stroke-linecap:butt;stroke-linejoin:miter;stroke:#ffffff;stroke-opacity:1" />
  <text
     id="text30"
     style="color:#000000;font-size:12px;font-family:Helvetica;text-anchor:middle;fill:#ffffff;stroke:none;stroke-width:1;stroke-linecap:butt;stroke-linejoin:miter;fill-opacity:1"
     x="596.25"
     y="684.29999"><tspan
       font-family="Helvetica"
       id="tspan30"
       style="fill:#ffffff;fill-opacity:1">12</tspan></text>
  <path
     stroke="#000000"
     d="m 700.99,662.4 v -9"
     id="path32"
     style="color:#000000;fill:none;stroke-width:1;stroke-linecap:butt;stroke-linejoin:miter;stroke:#ffffff;stroke-opacity:1" />
  <text
     id="text32"
     style="color:#000000;font-size:12px;font-family:Helvetica;text-anchor:middle;fill:#ffffff;stroke:none;stroke-width:1;stroke-linecap:butt;stroke-linejoin:miter;fill-opacity:1"
     x="700.98999"
     y="684.29999"><tspan
       font-family="Helvetica"
       id="tspan32"
       style="fill:#ffffff;fill-opacity:1">13</tspan></text>
  <path
     stroke="#000000"
     d="m 805.74,662.4 v -9"
     id="path34"
     style="color:#000000;fill:none;stroke-width:1;stroke-linecap:butt;stroke-linejoin:miter;stroke:#ffffff;stroke-opacity:1" />
  <text
     id="text34"
     style="color:#000000;font-size:12px;font-family:Helvetica;text-anchor:middle;fill:#ffffff;stroke:none;stroke-width:1;stroke-linecap:butt;stroke-linejoin:miter;fill-opacity:1"
     x="805.73999"
     y="684.29999"><tspan
       font-family="Helvetica"
       id="tspan34"
       style="fill:#ffffff;fill-opacity:1">14</tspan></text>
  <path
     stroke="#000000"
     d="m 910.48,662.4 v -9"
     id="path36"
     style="color:#000000;fill:none;stroke-width:1;stroke-linecap:butt;stroke-linejoin:miter;stroke:#ffffff;stroke-opacity:1" />
  <text
     id="text36"
     style="color:#000000;font-size:12px;font-family:Helvetica;text-anchor:middle;fill:#ffffff;stroke:none;stroke-width:1;stroke-linecap:butt;stroke-linejoin:miter;fill-opacity:1"
     x="910.47998"
     y="684.29999"><tspan
       font-family="Helvetica"
       id="tspan36"
       style="fill:#ffffff;fill-opacity:1">15</tspan></text>
  <path
     stroke="#000000"
     d="m 1015.23,662.4 v -9"
     id="path38"
     style="color:#000000;fill:none;stroke-width:1;stroke-linecap:butt;stroke-linejoin:miter;stroke:#ffffff;stroke-opacity:1" />
  <text
     id="text38"
     style="color:#000000;font-size:12px;font-family:Helvetica;text-anchor:middle;fill:#ffffff;stroke:none;stroke-width:1;stroke-linecap:butt;stroke-linejoin:miter;fill-opacity:1"
     x="1015.23"
     y="684.29999"><tspan
       font-family="Helvetica"
       id="tspan38"
       style="fill:#ffffff;fill-opacity:1">16</tspan></text>
  <path
     stroke="#000000"
     d="m 1119.97,662.4 v -9"
     id="path40"
     style="color:#000000;fill:none;stroke-width:1;stroke-linecap:butt;stroke-linejoin:miter;stroke:#ffffff;stroke-opacity:1" />
  <text
     id="text40"
     style="color:#000000;font-size:12px;font-family:Helvetica;text-anchor:middle;fill:#ffffff;stroke:none;stroke-width:1;stroke-linecap:butt;stroke-linejoin:miter;fill-opacity:1"
     x="1119.97"
     y="684.29999"><tspan
       font-family="Helvetica"
       id="tspan40"
       style="fill:#ffffff;fill-opacity:1">17</tspan></text>
  <path
     stroke="#000000"
     d="M 72.53,54.01 V 662.4 H 1119.97 V 54.01 Z"
     id="path43"
     style="color:#000000;fill:none;stroke-width:1;stroke-linecap:butt;stroke-linejoin:miter" />
  <polygon
     fill="#e31a1c"
     fill-opacity="0.5"
     points="110.03,660.49 111.3,660.33 112.57,660.15 113.84,659.96 115.12,659.76 116.39,659.54 117.66,659.31 118.93,659.06 120.2,658.79 121.48,658.5 122.75,658.19 124.02,657.87 125.29,657.52 126.56,657.14 127.84,656.75 129.11,656.32 130.38,655.87 131.65,655.4 132.93,654.89 134.2,654.35 135.47,653.78 136.74,653.17 138.01,652.53 139.29,651.85 140.56,651.13 141.83,650.37 143.1,649.57 144.37,648.73 145.65,647.84 146.92,646.9 148.19,645.91 149.46,644.88 150.73,643.79 152.01,642.65 153.28,641.45 154.55,640.2 155.82,638.89 157.1,637.52 158.37,636.08 159.64,634.59 160.91,633.02 162.18,631.4 163.46,629.7 164.73,627.94 166,626.11 167.27,624.21 168.54,622.23 169.82,620.18 171.09,618.06 172.36,615.87 173.63,613.6 174.9,611.26 176.18,608.84 177.45,606.35 178.72,603.78 179.99,601.13 181.27,598.41 182.54,595.62 183.81,592.76 185.08,589.82 186.35,586.81 187.63,583.73 188.9,580.58 190.17,577.36 191.44,574.08 192.71,570.74 193.99,567.34 195.26,563.88 196.53,560.36 197.8,556.79 199.07,553.17 200.35,549.51 201.62,545.81 202.89,542.06 204.16,538.28 205.44,534.48 206.71,530.64 207.98,526.79 209.25,522.91 210.52,519.03 211.8,515.14 213.07,511.25 214.34,507.36 215.61,503.48 216.88,499.62 218.16,495.78 219.43,491.96 220.7,488.18 221.97,484.43 223.24,480.73 224.52,477.07 225.79,473.48 227.06,469.94 228.33,466.47 229.61,463.08 230.88,459.76 232.15,456.53 233.42,453.39 234.69,450.35 235.97,447.41 237.24,444.57 238.51,441.85 239.78,439.25 241.05,436.76 242.33,434.4 243.6,432.18 244.87,430.08 246.14,428.13 247.41,426.32 248.69,424.65 249.96,423.13 251.23,421.77 252.5,420.55 253.78,419.5 255.05,418.6 256.32,417.86 257.59,417.28 258.86,416.87 260.14,416.61 261.41,416.52 262.68,416.59 263.95,416.82 265.22,417.22 266.5,417.77 267.77,418.49 269.04,419.36 270.31,420.38 271.58,421.56 272.86,422.89 274.13,424.37 275.4,425.99 276.67,427.75 277.95,429.65 279.22,431.69 280.49,433.85 281.76,436.14 283.03,438.55 284.31,441.07 285.58,443.71 286.85,446.45 288.12,449.29 289.39,452.23 290.67,455.26 291.94,458.38 293.21,461.57 294.48,464.84 295.75,468.18 297.03,471.58 298.3,475.04 299.57,478.55 300.84,482.1 302.12,485.7 303.39,489.33 304.66,492.99 305.93,496.67 307.2,500.38 308.48,504.09 309.75,507.82 311.02,511.54 312.29,515.27 313.56,518.99 314.84,522.7 316.11,526.39 317.38,530.07 318.65,533.72 319.92,537.34 321.2,540.93 322.47,544.49 323.74,548.01 325.01,551.48 326.29,554.92 327.56,558.3 328.83,561.63 330.1,564.92 331.37,568.14 332.65,571.31 333.92,574.42 335.19,577.47 336.46,580.45 337.73,583.37 339.01,586.23 340.28,589.02 341.55,591.74 342.82,594.39 344.1,596.98 345.37,599.49 346.64,601.94 347.91,604.31 349.18,606.61 350.46,608.85 351.73,611.01 353,613.1 354.27,615.13 355.54,617.08 356.82,618.96 358.09,620.78 359.36,622.53 360.63,624.21 361.9,625.82 363.18,627.37 364.45,628.85 365.72,630.27 366.99,631.63 368.27,632.93 369.54,634.16 370.81,635.34 372.08,636.45 373.35,637.51 374.63,638.51 375.9,639.46 377.17,640.35 378.44,641.19 379.71,641.98 380.99,642.72 382.26,643.41 383.53,644.05 384.8,644.64 386.07,645.19 387.35,645.69 388.62,646.14 389.89,646.56 391.16,646.93 392.44,647.26 393.71,647.55 394.98,647.81 396.25,648.02 397.52,648.2 398.8,648.34 400.07,648.45 401.34,648.52 402.61,648.56 403.88,648.57 405.16,648.55 406.43,648.49 407.7,648.41 408.97,648.3 410.24,648.16 411.52,647.99 412.79,647.79 414.06,647.57 415.33,647.33 416.61,647.05 417.88,646.76 419.15,646.44 420.42,646.1 421.69,645.74 422.97,645.35 424.24,644.95 425.51,644.52 426.78,644.08 428.05,643.61 429.33,643.13 430.6,642.63 431.87,642.11 433.14,641.58 434.41,641.03 435.69,640.47 436.96,639.89 438.23,639.29 439.5,638.68 440.78,638.06 442.05,637.43 443.32,636.78 444.59,636.13 445.86,635.46 447.14,634.78 448.41,634.09 449.68,633.4 450.95,632.69 452.22,631.98 453.5,631.26 454.77,630.54 456.04,629.8 457.31,629.07 458.58,628.32 459.86,627.58 461.13,626.83 462.4,626.08 463.67,625.32 464.95,624.57 466.22,623.81 467.49,623.06 468.76,622.3 470.03,621.55 471.31,620.8 472.58,620.05 473.85,619.3 475.12,618.56 476.39,617.83 477.67,617.1 478.94,616.38 480.21,615.66 481.48,614.96 482.75,614.26 484.03,613.57 485.3,612.89 486.57,612.22 487.84,611.57 489.12,610.92 490.39,610.3 491.66,609.68 492.93,609.08 494.2,608.49 495.48,607.93 496.75,607.38 498.02,606.84 499.29,606.33 500.56,605.83 501.84,605.35 503.11,604.9 504.38,604.46 505.65,604.05 506.92,603.66 508.2,603.29 509.47,602.95 510.74,602.62 512.01,602.33 513.29,602.06 514.56,601.81 515.83,601.59 517.1,601.39 518.37,601.23 519.65,601.09 520.92,600.97 522.19,600.89 523.46,600.83 524.73,600.8 526.01,600.79 527.28,600.82 528.55,600.87 529.82,600.95 531.09,601.06 532.37,601.2 533.64,601.36 534.91,601.56 536.18,601.78 537.46,602.02 538.73,602.3 540,602.6 541.27,602.93 542.54,603.29 543.82,603.67 545.09,604.08 546.36,604.51 547.63,604.96 548.9,605.44 550.18,605.95 551.45,606.47 552.72,607.02 553.99,607.59 555.27,608.18 556.54,608.79 557.81,609.42 559.08,610.07 560.35,610.73 561.63,611.41 562.9,612.11 564.17,612.82 565.44,613.55 566.71,614.29 567.99,615.04 569.26,615.8 570.53,616.58 571.8,617.36 573.07,618.16 574.35,618.96 575.62,619.77 576.89,620.58 578.16,621.4 579.44,622.22 580.71,623.05 581.98,623.88 583.25,624.71 584.52,625.54 585.8,626.37 587.07,627.2 588.34,628.03 589.61,628.86 590.88,629.68 592.16,630.5 593.43,631.32 594.7,632.13 595.97,632.93 597.24,633.73 598.52,634.51 599.79,635.3 601.06,636.07 602.33,636.83 603.61,637.59 604.88,638.33 606.15,639.07 607.42,639.79 608.69,640.5 609.97,641.21 611.24,641.89 612.51,642.57 613.78,643.24 615.05,643.89 616.33,644.53 617.6,645.15 618.87,645.77 620.14,646.36 621.41,646.95 622.69,647.52 623.96,648.08 625.23,648.62 626.5,649.15 627.78,649.67 629.05,650.17 630.32,650.66 631.59,651.14 632.86,651.6 634.14,652.05 635.41,652.48 636.68,652.9 637.95,653.31 639.22,653.71 640.5,654.09 641.77,654.46 643.04,654.82 644.31,655.16 645.58,655.5 646.86,655.82 648.13,656.13 649.4,656.43 650.67,656.71 651.95,656.99 653.22,657.26 654.49,657.51 655.76,657.76 657.03,657.99 658.31,658.22 659.58,658.43 660.85,658.64 662.12,658.84 663.39,659.03 664.67,659.21 665.94,659.38 667.21,659.55 668.48,659.7 669.75,659.85 671.03,660 672.3,660.13 673.57,660.26 674.84,660.39 676.12,660.5 677.39,660.62 678.66,660.72 679.93,660.82 681.2,660.92 682.48,661.01 683.75,661.09 685.02,661.18 686.29,661.25 687.56,661.32 688.84,661.39 690.11,661.46 691.38,661.52 692.65,661.58 693.92,661.63 695.2,661.68 696.47,661.73 697.74,661.77 699.01,661.82 700.29,661.86 701.56,661.89 702.83,661.93 704.1,661.96 705.37,661.99 706.65,662.02 707.92,662.05 709.19,662.08 710.46,662.1 711.73,662.12 713.01,662.14 714.28,662.16 715.55,662.18 716.82,662.2 718.09,662.21 719.37,662.23 720.64,662.24 721.91,662.25 723.18,662.26 724.46,662.27 725.73,662.28 727,662.29 728.27,662.3 729.54,662.31 730.82,662.32 732.09,662.32 733.36,662.33 734.63,662.34 734.63,662.4 733.36,662.4 732.09,662.4 730.82,662.4 729.54,662.4 728.27,662.4 727,662.4 725.73,662.4 724.46,662.4 723.18,662.4 721.91,662.4 720.64,662.4 719.37,662.4 718.09,662.4 716.82,662.4 715.55,662.4 714.28,662.4 713.01,662.4 711.73,662.4 710.46,662.4 709.19,662.4 707.92,662.4 706.65,662.4 705.37,662.4 704.1,662.4 702.83,662.4 701.56,662.4 700.29,662.4 699.01,662.4 697.74,662.4 696.47,662.4 695.2,662.4 693.92,662.4 692.65,662.4 691.38,662.4 690.11,662.4 688.84,662.4 687.56,662.4 686.29,662.4 685.02,662.4 683.75,662.4 682.48,662.4 681.2,662.4 679.93,662.4 678.66,662.4 677.39,662.4 676.12,662.4 674.84,662.4 673.57,662.4 672.3,662.4 671.03,662.4 669.75,662.4 668.48,662.4 667.21,662.4 665.94,662.4 664.67,662.4 663.39,662.4 662.12,662.4 660.85,662.4 659.58,662.4 658.31,662.4 657.03,662.4 655.76,662.4 654.49,662.4 653.22,662.4 651.95,662.4 650.67,662.4 649.4,662.4 648.13,662.4 646.86,662.4 645.58,662.4 644.31,662.4 643.04,662.4 641.77,662.4 640.5,662.4 639.22,662.4 637.95,662.4 636.68,662.4 635.41,662.4 634.14,662.4 632.86,662.4 631.59,662.4 630.32,662.4 629.05,662.4 627.78,662.4 626.5,662.4 625.23,662.4 623.96,662.4 622.69,662.4 621.41,662.4 620.14,662.4 618.87,662.4 617.6,662.4 616.33,662.4 615.05,662.4 613.78,662.4 612.51,662.4 611.24,662.4 609.97,662.4 608.69,662.4 607.42,662.4 606.15,662.4 604.88,662.4 603.61,662.4 602.33,662.4 601.06,662.4 599.79,662.4 598.52,662.4 597.24,662.4 595.97,662.4 594.7,662.4 593.43,662.4 592.16,662.4 590.88,662.4 589.61,662.4 588.34,662.4 587.07,662.4 585.8,662.4 584.52,662.4 583.25,662.4 581.98,662.4 580.71,662.4 579.44,662.4 578.16,662.4 576.89,662.4 575.62,662.4 574.35,662.4 573.07,662.4 571.8,662.4 570.53,662.4 569.26,662.4 567.99,662.4 566.71,662.4 565.44,662.4 564.17,662.4 562.9,662.4 561.63,662.4 560.35,662.4 559.08,662.4 557.81,662.4 556.54,662.4 555.27,662.4 553.99,662.4 552.72,662.4 551.45,662.4 550.18,662.4 548.9,662.4 547.63,662.4 546.36,662.4 545.09,662.4 543.82,662.4 542.54,662.4 541.27,662.4 540,662.4 538.73,662.4 537.46,662.4 536.18,662.4 534.91,662.4 533.64,662.4 532.37,662.4 531.09,662.4 529.82,662.4 528.55,662.4 527.28,662.4 526.01,662.4 524.73,662.4 523.46,662.4 522.19,662.4 520.92,662.4 519.65,662.4 518.37,662.4 517.1,662.4 515.83,662.4 514.56,662.4 513.29,662.4 512.01,662.4 510.74,662.4 509.47,662.4 508.2,662.4 506.92,662.4 505.65,662.4 504.38,662.4 503.11,662.4 501.84,662.4 500.56,662.4 499.29,662.4 498.02,662.4 496.75,662.4 495.48,662.4 494.2,662.4 492.93,662.4 491.66,662.4 490.39,662.4 489.12,662.4 487.84,662.4 486.57,662.4 485.3,662.4 484.03,662.4 482.75,662.4 481.48,662.4 480.21,662.4 478.94,662.4 477.67,662.4 476.39,662.4 475.12,662.4 473.85,662.4 472.58,662.4 471.31,662.4 470.03,662.4 468.76,662.4 467.49,662.4 466.22,662.4 464.95,662.4 463.67,662.4 462.4,662.4 461.13,662.4 459.86,662.4 458.58,662.4 457.31,662.4 456.04,662.4 454.77,662.4 453.5,662.4 452.22,662.4 450.95,662.4 449.68,662.4 448.41,662.4 447.14,662.4 445.86,662.4 444.59,662.4 443.32,662.4 442.05,662.4 440.78,662.4 439.5,662.4 438.23,662.4 436.96,662.4 435.69,662.4 434.41,662.4 433.14,662.4 431.87,662.4 430.6,662.4 429.33,662.4 428.05,662.4 426.78,662.4 425.51,662.4 424.24,662.4 422.97,662.4 421.69,662.4 420.42,662.4 419.15,662.4 417.88,662.4 416.61,662.4 415.33,662.4 414.06,662.4 412.79,662.4 411.52,662.4 410.24,662.4 408.97,662.4 407.7,662.4 406.43,662.4 405.16,662.4 403.88,662.4 402.61,662.4 401.34,662.4 400.07,662.4 398.8,662.4 397.52,662.4 396.25,662.4 394.98,662.4 393.71,662.4 392.44,662.4 391.16,662.4 389.89,662.4 388.62,662.4 387.35,662.4 386.07,662.4 384.8,662.4 383.53,662.4 382.26,662.4 380.99,662.4 379.71,662.4 378.44,662.4 377.17,662.4 375.9,662.4 374.63,662.4 373.35,662.4 372.08,662.4 370.81,662.4 369.54,662.4 368.27,662.4 366.99,662.4 365.72,662.4 364.45,662.4 363.18,662.4 361.9,662.4 360.63,662.4 359.36,662.4 358.09,662.4 356.82,662.4 355.54,662.4 354.27,662.4 353,662.4 351.73,662.4 350.46,662.4 349.18,662.4 347.91,662.4 346.64,662.4 345.37,662.4 344.1,662.4 342.82,662.4 341.55,662.4 340.28,662.4 339.01,662.4 337.73,662.4 336.46,662.4 335.19,662.4 333.92,662.4 332.65,662.4 331.37,662.4 330.1,662.4 328.83,662.4 327.56,662.4 326.29,662.4 325.01,662.4 323.74,662.4 322.47,662.4 321.2,662.4 319.92,662.4 318.65,662.4 317.38,662.4 316.11,662.4 314.84,662.4 313.56,662.4 312.29,662.4 311.02,662.4 309.75,662.4 308.48,662.4 307.2,662.4 305.93,662.4 304.66,662.4 303.39,662.4 302.12,662.4 300.84,662.4 299.57,662.4 298.3,662.4 297.03,662.4 295.75,662.4 294.48,662.4 293.21,662.4 291.94,662.4 290.67,662.4 289.39,662.4 288.12,662.4 286.85,662.4 285.58,662.4 284.31,662.4 283.03,662.4 281.76,662.4 280.49,662.4 279.22,662.4 277.95,662.4 276.67,662.4 275.4,662.4 274.13,662.4 272.86,662.4 271.58,662.4 270.31,662.4 269.04,662.4 267.77,662.4 266.5,662.4 265.22,662.4 263.95,662.4 262.68,662.4 261.41,662.4 260.14,662.4 258.86,662.4 257.59,662.4 256.32,662.4 255.05,662.4 253.78,662.4 252.5,662.4 251.23,662.4 249.96,662.4 248.69,662.4 247.41,662.4 246.14,662.4 244.87,662.4 243.6,662.4 242.33,662.4 241.05,662.4 239.78,662.4 238.51,662.4 237.24,662.4 235.97,662.4 234.69,662.4 233.42,662.4 232.15,662.4 230.88,662.4 229.61,662.4 228.33,662.4 227.06,662.4 225.79,662.4 224.52,662.4 223.24,662.4 221.97,662.4 220.7,662.4 219.43,662.4 218.16,662.4 216.88,662.4 215.61,662.4 214.34,662.4 213.07,662.4 211.8,662.4 210.52,662.4 209.25,662.4 207.98,662.4 206.71,662.4 205.44,662.4 204.16,662.4 202.89,662.4 201.62,662.4 200.35,662.4 199.07,662.4 197.8,662.4 196.53,662.4 195.26,662.4 193.99,662.4 192.71,662.4 191.44,662.4 190.17,662.4 188.9,662.4 187.63,662.4 186.35,662.4 185.08,662.4 183.81,662.4 182.54,662.4 181.27,662.4 179.99,662.4 178.72,662.4 177.45,662.4 176.18,662.4 174.9,662.4 173.63,662.4 172.36,662.4 171.09,662.4 169.82,662.4 168.54,662.4 167.27,662.4 166,662.4 164.73,662.4 163.46,662.4 162.18,662.4 160.91,662.4 159.64,662.4 158.37,662.4 157.1,662.4 155.82,662.4 154.55,662.4 153.28,662.4 152.01,662.4 150.73,662.4 149.46,662.4 148.19,662.4 146.92,662.4 145.65,662.4 144.37,662.4 143.1,662.4 141.83,662.4 140.56,662.4 139.29,662.4 138.01,662.4 136.74,662.4 135.47,662.4 134.2,662.4 132.93,662.4 131.65,662.4 130.38,662.4 129.11,662.4 127.84,662.4 126.56,662.4 125.29,662.4 124.02,662.4 122.75,662.4 121.48,662.4 120.2,662.4 118.93,662.4 117.66,662.4 116.39,662.4 115.12,662.4 113.84,662.4 112.57,662.4 111.3,662.4 110.03,662.4 108.75,662.4 107.48,662.4 106.21,662.4 104.94,662.4 103.67,662.4 102.39,662.4 101.12,662.4 99.85,662.4 99.85,661.43 101.12,661.35 102.39,661.25 103.67,661.15 104.94,661.03 106.21,660.91 107.48,660.78 108.75,660.64 "
     id="polygon48"
     style="color:#000000;stroke:none;stroke-width:1;stroke-linecap:butt;stroke-linejoin:miter;shape-rendering:crispEdges" />
  <polygon
     fill="#1f78b4"
     fill-opacity="0.5"
     points="769.7,661.62 770.32,661.53 770.93,661.43 771.55,661.31 772.17,661.19 772.78,661.05 773.4,660.9 774.01,660.73 774.63,660.55 775.25,660.35 775.86,660.13 776.48,659.88 777.09,659.62 777.71,659.33 778.33,659.02 778.94,658.67 779.56,658.3 780.18,657.89 780.79,657.45 781.41,656.97 782.02,656.45 782.64,655.89 783.26,655.29 783.87,654.63 784.49,653.92 785.1,653.16 785.72,652.34 786.34,651.46 786.95,650.51 787.57,649.5 788.19,648.41 788.8,647.25 789.42,646 790.03,644.67 790.65,643.26 791.27,641.75 791.88,640.14 792.5,638.43 793.11,636.62 793.73,634.69 794.35,632.65 794.96,630.49 795.58,628.2 796.2,625.79 796.81,623.24 797.43,620.56 798.04,617.73 798.66,614.75 799.28,611.63 799.89,608.35 800.51,604.9 801.12,601.3 801.74,597.53 802.36,593.58 802.97,589.46 803.59,585.16 804.21,580.68 804.82,576.02 805.44,571.16 806.05,566.12 806.67,560.89 807.29,555.46 807.9,549.84 808.52,544.02 809.14,538 809.75,531.79 810.37,525.38 810.98,518.77 811.6,511.97 812.22,504.97 812.83,497.78 813.45,490.4 814.06,482.83 814.68,475.07 815.3,467.14 815.91,459.03 816.53,450.74 817.15,442.29 817.76,433.68 818.38,424.92 818.99,416.01 819.61,406.96 820.23,397.78 820.84,388.48 821.46,379.06 822.07,369.54 822.69,359.93 823.31,350.23 823.92,340.46 824.54,330.64 825.16,320.77 825.77,310.86 826.39,300.94 827,291 827.62,281.08 828.24,271.17 828.85,261.31 829.47,251.49 830.08,241.74 830.7,232.07 831.32,222.51 831.93,213.05 832.55,203.73 833.17,194.56 833.78,185.54 834.4,176.71 835.01,168.07 835.63,159.65 836.25,151.45 836.86,143.5 837.48,135.81 838.09,128.39 838.71,121.26 839.33,114.43 839.94,107.92 840.56,101.75 841.18,95.91 841.79,90.44 842.41,85.33 843.02,80.6 843.64,76.27 844.26,72.33 844.87,68.8 845.49,65.69 846.1,63 846.72,60.74 847.34,58.92 847.95,57.53 848.57,56.59 849.19,56.09 849.8,56.03 850.42,56.43 851.03,57.27 851.65,58.55 852.27,60.27 852.88,62.43 853.5,65.02 854.12,68.04 854.73,71.48 855.35,75.33 855.96,79.58 856.58,84.23 857.2,89.26 857.81,94.66 858.43,100.42 859.04,106.54 859.66,112.98 860.28,119.75 860.89,126.82 861.51,134.18 862.13,141.82 862.74,149.72 863.36,157.86 863.97,166.22 864.59,174.8 865.21,183.56 865.82,192.5 866.44,201.6 867.05,210.84 867.67,220.2 868.29,229.66 868.9,239.22 869.52,248.84 870.14,258.52 870.75,268.23 871.37,277.96 871.98,287.71 872.6,297.44 873.22,307.14 873.83,316.81 874.45,326.42 875.06,335.96 875.68,345.42 876.3,354.8 876.91,364.06 877.53,373.21 878.15,382.24 878.76,391.13 879.38,399.87 879.99,408.47 880.61,416.9 881.23,425.16 881.84,433.24 882.46,441.15 883.07,448.86 883.69,456.39 884.31,463.72 884.92,470.86 885.54,477.79 886.16,484.51 886.77,491.04 887.39,497.35 888,503.46 888.62,509.36 889.24,515.05 889.85,520.53 890.47,525.81 891.08,530.88 891.7,535.75 892.32,540.42 892.93,544.9 893.55,549.17 894.17,553.26 894.78,557.15 895.4,560.86 896.01,564.39 896.63,567.73 897.25,570.91 897.86,573.91 898.48,576.75 899.1,579.42 899.71,581.94 900.33,584.31 900.94,586.53 901.56,588.6 902.18,590.54 902.79,592.34 903.41,594.01 904.02,595.56 904.64,596.98 905.26,598.29 905.87,599.49 906.49,600.59 907.11,601.58 907.72,602.47 908.34,603.27 908.95,603.99 909.57,604.62 910.19,605.16 910.8,605.64 911.42,606.04 912.03,606.37 912.65,606.65 913.27,606.86 913.88,607.01 914.5,607.12 915.12,607.18 915.73,607.19 916.35,607.16 916.96,607.1 917.58,607 918.2,606.87 918.81,606.72 919.43,606.54 920.04,606.34 920.66,606.13 921.28,605.9 921.89,605.66 922.51,605.41 923.13,605.15 923.74,604.89 924.36,604.63 924.97,604.37 925.59,604.12 926.21,603.87 926.82,603.63 927.44,603.39 928.05,603.17 928.67,602.96 929.29,602.77 929.9,602.6 930.52,602.44 931.14,602.3 931.75,602.18 932.37,602.08 932.98,602.01 933.6,601.96 934.22,601.93 934.83,601.93 935.45,601.95 936.06,602 936.68,602.07 937.3,602.17 937.91,602.3 938.53,602.46 939.15,602.64 939.76,602.85 940.38,603.08 940.99,603.35 941.61,603.63 942.23,603.95 942.84,604.29 943.46,604.65 944.07,605.04 944.69,605.46 945.31,605.9 945.92,606.36 946.54,606.84 947.16,607.34 947.77,607.87 948.39,608.41 949,608.97 949.62,609.56 950.24,610.15 950.85,610.77 951.47,611.4 952.09,612.04 952.7,612.7 953.32,613.37 953.93,614.05 954.55,614.74 955.17,615.44 955.78,616.15 956.4,616.87 957.01,617.59 957.63,618.31 958.25,619.05 958.86,619.78 959.48,620.51 960.1,621.25 960.71,621.99 961.33,622.72 961.94,623.45 962.56,624.18 963.18,624.91 963.79,625.63 964.41,626.34 965.02,627.04 965.64,627.74 966.26,628.43 966.87,629.11 967.49,629.77 968.11,630.43 968.72,631.07 969.34,631.7 969.95,632.31 970.57,632.91 971.19,633.49 971.8,634.06 972.42,634.61 973.03,635.14 973.65,635.65 974.27,636.14 974.88,636.62 975.5,637.07 976.12,637.5 976.73,637.91 977.35,638.3 977.96,638.66 978.58,639 979.2,639.32 979.81,639.62 980.43,639.89 981.04,640.14 981.66,640.36 982.28,640.57 982.89,640.74 983.51,640.9 984.13,641.03 984.74,641.13 985.36,641.22 985.97,641.28 986.59,641.32 987.21,641.33 987.82,641.33 988.44,641.3 989.05,641.26 989.67,641.19 990.29,641.11 990.9,641.01 991.52,640.89 992.14,640.75 992.75,640.6 993.37,640.44 993.98,640.27 994.6,640.08 995.22,639.89 995.83,639.68 996.45,639.47 997.07,639.25 997.68,639.03 998.3,638.8 998.91,638.57 999.53,638.35 1000.15,638.12 1000.76,637.9 1001.38,637.68 1001.99,637.46 1002.61,637.26 1003.23,637.06 1003.84,636.87 1004.46,636.69 1005.08,636.53 1005.69,636.38 1006.31,636.24 1006.92,636.12 1007.54,636.02 1008.16,635.93 1008.77,635.87 1009.39,635.82 1010,635.79 1010.62,635.79 1011.24,635.81 1011.85,635.85 1012.47,635.91 1013.09,635.99 1013.7,636.1 1014.32,636.23 1014.93,636.39 1015.55,636.56 1016.17,636.77 1016.78,636.99 1017.4,637.23 1018.01,637.5 1018.63,637.79 1019.25,638.1 1019.86,638.43 1020.48,638.78 1021.1,639.15 1021.71,639.54 1022.33,639.94 1022.94,640.36 1023.56,640.79 1024.18,641.24 1024.79,641.7 1025.41,642.17 1026.02,642.65 1026.64,643.14 1027.26,643.64 1027.87,644.14 1028.49,644.65 1029.11,645.17 1029.72,645.69 1030.34,646.21 1030.95,646.73 1031.57,647.25 1032.19,647.77 1032.8,648.29 1033.42,648.8 1034.03,649.31 1034.65,649.82 1035.27,650.32 1035.88,650.81 1036.5,651.29 1037.12,651.77 1037.73,652.24 1038.35,652.69 1038.96,653.14 1039.58,653.58 1040.2,654.01 1040.81,654.42 1041.43,654.82 1042.05,655.21 1042.66,655.59 1043.28,655.96 1043.89,656.31 1044.51,656.65 1045.13,656.98 1045.74,657.29 1046.36,657.6 1046.97,657.89 1047.59,658.16 1048.21,658.43 1048.82,658.68 1049.44,658.92 1050.06,659.15 1050.67,659.37 1051.29,659.57 1051.9,659.77 1052.52,659.95 1053.14,660.13 1053.75,660.29 1054.37,660.45 1054.98,660.59 1055.6,660.73 1056.22,660.86 1056.83,660.98 1057.45,661.09 1058.07,661.2 1058.68,661.29 1059.3,661.38 1059.91,661.47 1060.53,661.55 1061.15,661.62 1061.76,661.69 1062.38,661.75 1062.99,661.81 1063.61,661.86 1064.23,661.91 1064.84,661.96 1065.46,662 1066.08,662.04 1066.69,662.07 1067.31,662.1 1067.92,662.13 1068.54,662.16 1069.16,662.18 1069.77,662.2 1070.39,662.22 1071,662.24 1071.62,662.26 1072.24,662.27 1072.24,662.4 1071.62,662.4 1071,662.4 1070.39,662.4 1069.77,662.4 1069.16,662.4 1068.54,662.4 1067.92,662.4 1067.31,662.4 1066.69,662.4 1066.08,662.4 1065.46,662.4 1064.84,662.4 1064.23,662.4 1063.61,662.4 1062.99,662.4 1062.38,662.4 1061.76,662.4 1061.15,662.4 1060.53,662.4 1059.91,662.4 1059.3,662.4 1058.68,662.4 1058.07,662.4 1057.45,662.4 1056.83,662.4 1056.22,662.4 1055.6,662.4 1054.98,662.4 1054.37,662.4 1053.75,662.4 1053.14,662.4 1052.52,662.4 1051.9,662.4 1051.29,662.4 1050.67,662.4 1050.06,662.4 1049.44,662.4 1048.82,662.4 1048.21,662.4 1047.59,662.4 1046.97,662.4 1046.36,662.4 1045.74,662.4 1045.13,662.4 1044.51,662.4 1043.89,662.4 1043.28,662.4 1042.66,662.4 1042.05,662.4 1041.43,662.4 1040.81,662.4 1040.2,662.4 1039.58,662.4 1038.96,662.4 1038.35,662.4 1037.73,662.4 1037.12,662.4 1036.5,662.4 1035.88,662.4 1035.27,662.4 1034.65,662.4 1034.03,662.4 1033.42,662.4 1032.8,662.4 1032.19,662.4 1031.57,662.4 1030.95,662.4 1030.34,662.4 1029.72,662.4 1029.11,662.4 1028.49,662.4 1027.87,662.4 1027.26,662.4 1026.64,662.4 1026.02,662.4 1025.41,662.4 1024.79,662.4 1024.18,662.4 1023.56,662.4 1022.94,662.4 1022.33,662.4 1021.71,662.4 1021.1,662.4 1020.48,662.4 1019.86,662.4 1019.25,662.4 1018.63,662.4 1018.01,662.4 1017.4,662.4 1016.78,662.4 1016.17,662.4 1015.55,662.4 1014.93,662.4 1014.32,662.4 1013.7,662.4 1013.09,662.4 1012.47,662.4 1011.85,662.4 1011.24,662.4 1010.62,662.4 1010,662.4 1009.39,662.4 1008.77,662.4 1008.16,662.4 1007.54,662.4 1006.92,662.4 1006.31,662.4 1005.69,662.4 1005.08,662.4 1004.46,662.4 1003.84,662.4 1003.23,662.4 1002.61,662.4 1001.99,662.4 1001.38,662.4 1000.76,662.4 1000.15,662.4 999.53,662.4 998.91,662.4 998.3,662.4 997.68,662.4 997.07,662.4 996.45,662.4 995.83,662.4 995.22,662.4 994.6,662.4 993.98,662.4 993.37,662.4 992.75,662.4 992.14,662.4 991.52,662.4 990.9,662.4 990.29,662.4 989.67,662.4 989.05,662.4 988.44,662.4 987.82,662.4 987.21,662.4 986.59,662.4 985.97,662.4 985.36,662.4 984.74,662.4 984.13,662.4 983.51,662.4 982.89,662.4 982.28,662.4 981.66,662.4 981.04,662.4 980.43,662.4 979.81,662.4 979.2,662.4 978.58,662.4 977.96,662.4 977.35,662.4 976.73,662.4 976.12,662.4 975.5,662.4 974.88,662.4 974.27,662.4 973.65,662.4 973.03,662.4 972.42,662.4 971.8,662.4 971.19,662.4 970.57,662.4 969.95,662.4 969.34,662.4 968.72,662.4 968.11,662.4 967.49,662.4 966.87,662.4 966.26,662.4 965.64,662.4 965.02,662.4 964.41,662.4 963.79,662.4 963.18,662.4 962.56,662.4 961.94,662.4 961.33,662.4 960.71,662.4 960.1,662.4 959.48,662.4 958.86,662.4 958.25,662.4 957.63,662.4 957.01,662.4 956.4,662.4 955.78,662.4 955.17,662.4 954.55,662.4 953.93,662.4 953.32,662.4 952.7,662.4 952.09,662.4 951.47,662.4 950.85,662.4 950.24,662.4 949.62,662.4 949,662.4 948.39,662.4 947.77,662.4 947.16,662.4 946.54,662.4 945.92,662.4 945.31,662.4 944.69,662.4 944.07,662.4 943.46,662.4 942.84,662.4 942.23,662.4 941.61,662.4 940.99,662.4 940.38,662.4 939.76,662.4 939.15,662.4 938.53,662.4 937.91,662.4 937.3,662.4 936.68,662.4 936.06,662.4 935.45,662.4 934.83,662.4 934.22,662.4 933.6,662.4 932.98,662.4 932.37,662.4 931.75,662.4 931.14,662.4 930.52,662.4 929.9,662.4 929.29,662.4 928.67,662.4 928.05,662.4 927.44,662.4 926.82,662.4 926.21,662.4 925.59,662.4 924.97,662.4 924.36,662.4 923.74,662.4 923.13,662.4 922.51,662.4 921.89,662.4 921.28,662.4 920.66,662.4 920.04,662.4 919.43,662.4 918.81,662.4 918.2,662.4 917.58,662.4 916.96,662.4 916.35,662.4 915.73,662.4 915.12,662.4 914.5,662.4 913.88,662.4 913.27,662.4 912.65,662.4 912.03,662.4 911.42,662.4 910.8,662.4 910.19,662.4 909.57,662.4 908.95,662.4 908.34,662.4 907.72,662.4 907.11,662.4 906.49,662.4 905.87,662.4 905.26,662.4 904.64,662.4 904.02,662.4 903.41,662.4 902.79,662.4 902.18,662.4 901.56,662.4 900.94,662.4 900.33,662.4 899.71,662.4 899.1,662.4 898.48,662.4 897.86,662.4 897.25,662.4 896.63,662.4 896.01,662.4 895.4,662.4 894.78,662.4 894.17,662.4 893.55,662.4 892.93,662.4 892.32,662.4 891.7,662.4 891.08,662.4 890.47,662.4 889.85,662.4 889.24,662.4 888.62,662.4 888,662.4 887.39,662.4 886.77,662.4 886.16,662.4 885.54,662.4 884.92,662.4 884.31,662.4 883.69,662.4 883.07,662.4 882.46,662.4 881.84,662.4 881.23,662.4 880.61,662.4 879.99,662.4 879.38,662.4 878.76,662.4 878.15,662.4 877.53,662.4 876.91,662.4 876.3,662.4 875.68,662.4 875.06,662.4 874.45,662.4 873.83,662.4 873.22,662.4 872.6,662.4 871.98,662.4 871.37,662.4 870.75,662.4 870.14,662.4 869.52,662.4 868.9,662.4 868.29,662.4 867.67,662.4 867.05,662.4 866.44,662.4 865.82,662.4 865.21,662.4 864.59,662.4 863.97,662.4 863.36,662.4 862.74,662.4 862.13,662.4 861.51,662.4 860.89,662.4 860.28,662.4 859.66,662.4 859.04,662.4 858.43,662.4 857.81,662.4 857.2,662.4 856.58,662.4 855.96,662.4 855.35,662.4 854.73,662.4 854.12,662.4 853.5,662.4 852.88,662.4 852.27,662.4 851.65,662.4 851.03,662.4 850.42,662.4 849.8,662.4 849.19,662.4 848.57,662.4 847.95,662.4 847.34,662.4 846.72,662.4 846.1,662.4 845.49,662.4 844.87,662.4 844.26,662.4 843.64,662.4 843.02,662.4 842.41,662.4 841.79,662.4 841.18,662.4 840.56,662.4 839.94,662.4 839.33,662.4 838.71,662.4 838.09,662.4 837.48,662.4 836.86,662.4 836.25,662.4 835.63,662.4 835.01,662.4 834.4,662.4 833.78,662.4 833.17,662.4 832.55,662.4 831.93,662.4 831.32,662.4 830.7,662.4 830.08,662.4 829.47,662.4 828.85,662.4 828.24,662.4 827.62,662.4 827,662.4 826.39,662.4 825.77,662.4 825.16,662.4 824.54,662.4 823.92,662.4 823.31,662.4 822.69,662.4 822.07,662.4 821.46,662.4 820.84,662.4 820.23,662.4 819.61,662.4 818.99,662.4 818.38,662.4 817.76,662.4 817.15,662.4 816.53,662.4 815.91,662.4 815.3,662.4 814.68,662.4 814.06,662.4 813.45,662.4 812.83,662.4 812.22,662.4 811.6,662.4 810.98,662.4 810.37,662.4 809.75,662.4 809.14,662.4 808.52,662.4 807.9,662.4 807.29,662.4 806.67,662.4 806.05,662.4 805.44,662.4 804.82,662.4 804.21,662.4 803.59,662.4 802.97,662.4 802.36,662.4 801.74,662.4 801.12,662.4 800.51,662.4 799.89,662.4 799.28,662.4 798.66,662.4 798.04,662.4 797.43,662.4 796.81,662.4 796.2,662.4 795.58,662.4 794.96,662.4 794.35,662.4 793.73,662.4 793.11,662.4 792.5,662.4 791.88,662.4 791.27,662.4 790.65,662.4 790.03,662.4 789.42,662.4 788.8,662.4 788.19,662.4 787.57,662.4 786.95,662.4 786.34,662.4 785.72,662.4 785.1,662.4 784.49,662.4 783.87,662.4 783.26,662.4 782.64,662.4 782.02,662.4 781.41,662.4 780.79,662.4 780.18,662.4 779.56,662.4 778.94,662.4 778.33,662.4 777.71,662.4 777.09,662.4 776.48,662.4 775.86,662.4 775.25,662.4 774.63,662.4 774.01,662.4 773.4,662.4 772.78,662.4 772.17,662.4 771.55,662.4 770.93,662.4 770.32,662.4 769.7,662.4 769.08,662.4 768.47,662.4 767.85,662.4 767.24,662.4 766.62,662.4 766,662.4 765.39,662.4 764.77,662.4 764.77,662.09 765.39,662.06 766,662.01 766.62,661.96 767.24,661.91 767.85,661.85 768.47,661.78 769.08,661.7 "
     id="polygon57"
     style="color:#000000;stroke:none;stroke-width:1;stroke-linecap:butt;stroke-linejoin:miter;shape-rendering:crispEdges" />
  <path
     stroke="#000000"
     d="M 72.53,54.01 V 662.4 H 1119.97 V 54.01 Z"
     id="path64"
     style="color:#000000;fill:none;stroke-width:1;stroke-linecap:butt;stroke-linejoin:miter;stroke:#ffffff;stroke-opacity:1" />
  <text
     id="text64"
     transform="rotate(-90)"
     style="color:#000000;font-size:12px;font-family:Helvetica;text-anchor:middle;fill:#ffffff;stroke:none;stroke-width:1;stroke-linecap:butt;stroke-linejoin:miter;fill-opacity:1"
     x="-358.20999"
     y="19.18"><tspan
       font-family="Helvetica"
       id="tspan64"
       style="fill:#ffffff;fill-opacity:1">Density (a.u.)</tspan></text>
  <text
     id="text66"
     style="color:#000000;font-size:12px;font-family:Helvetica;text-anchor:middle;fill:#ffffff;stroke:none;stroke-width:1;stroke-linecap:butt;stroke-linejoin:miter;fill-opacity:1"
     x="596.25"
     y="711.29999"><tspan
       font-family="Helvetica"
       id="tspan66"
       style="fill:#ffffff;fill-opacity:1">Average time (ms)</tspan></text>
  <text
     id="text69"
     style="color:#000000;font-size:12px;font-family:Helvetica;text-anchor:middle;fill:#ffffff;stroke:none;stroke-width:1;stroke-linecap:butt;stroke-linejoin:miter;fill-opacity:1"
     x="596.25"
     y="30.91"><tspan
       font-family="Helvetica"
       id="tspan69"
       style="fill:#ffffff;fill-opacity:1">verify DAO::vote-input</tspan></text>
  <metadata
     id="metadata72">
    <rdf:RDF>
      <cc:Work
         rdf:about="">
        <dc:title>Gnuplot</dc:title>
      </cc:Work>
    </rdf:RDF>
  </metadata>
</svg>
