# Blender 4.3.1
# www.blender.org
mtllib back_arrow.mtl
o back_arrow
v -0.877643 0.000000 -0.031110
v 0.992314 0.000000 -0.031110
v -0.993081 0.000000 0.000168
v -0.154072 0.000000 -0.752301
v -0.198105 0.000000 -0.794808
v -0.877643 0.000000 0.031110
v 0.992314 0.000000 0.031110
v -0.993081 0.000000 -0.000168
v -0.154072 0.000000 0.752301
v -0.198105 0.000000 0.794808
vn -0.0000 1.0000 -0.0000
vn -0.0000 -1.0000 -0.0000
vt 0.000000 1.000000
vt 0.000000 0.000000
vt 1.000000 0.000000
vt 1.000000 1.000000
s 0
f 1/1/1 5/2/1 3/2/1
f 2/3/2 6/1/2 1/2/2
f 1/2/2 6/1/2 8/2/2
f 6/1/2 10/2/2 8/2/2
f 1/1/1 4/1/1 5/2/1
f 2/3/2 7/4/2 6/1/2
f 6/1/2 9/1/2 10/2/2
