# Blender 4.0.2
# www.blender.org
mtllib circle.mtl
o Circle
v 0.000000 0.000000 -1.000000
v -0.195090 0.000000 -0.980785
v -0.382683 0.000000 -0.923880
v -0.555570 0.000000 -0.831470
v -0.707107 0.000000 -0.707107
v -0.831470 0.000000 -0.555570
v -0.923880 0.000000 -0.382683
v -0.980785 0.000000 -0.195090
v -1.000000 0.000000 0.000000
v -0.980785 0.000000 0.195090
v -0.923880 0.000000 0.382683
v -0.831470 0.000000 0.555570
v -0.707107 0.000000 0.707107
v -0.555570 0.000000 0.831470
v -0.382683 0.000000 0.923880
v -0.195090 0.000000 0.980785
v 0.000000 0.000000 1.000000
v 0.195090 0.000000 0.980785
v 0.382683 0.000000 0.923880
v 0.555570 0.000000 0.831470
v 0.707107 0.000000 0.707107
v 0.831470 0.000000 0.555570
v 0.923880 0.000000 0.382683
v 0.980785 0.000000 0.195090
v 1.000000 0.000000 0.000000
v 0.980785 0.000000 -0.195090
v 0.923880 0.000000 -0.382683
v 0.831470 0.000000 -0.555570
v 0.707107 0.000000 -0.707107
v 0.555570 0.000000 -0.831470
v 0.382683 0.000000 -0.923880
v 0.195090 0.000000 -0.980785
vn -0.0000 1.0000 -0.0000
vt 0.000000 0.000000
s 0
f 17/1/1 25/1/1 1/1/1
f 1/1/1 2/1/1 5/1/1
f 2/1/1 3/1/1 5/1/1
f 3/1/1 4/1/1 5/1/1
f 5/1/1 6/1/1 7/1/1
f 7/1/1 8/1/1 5/1/1
f 8/1/1 9/1/1 5/1/1
f 9/1/1 10/1/1 13/1/1
f 10/1/1 11/1/1 13/1/1
f 11/1/1 12/1/1 13/1/1
f 13/1/1 14/1/1 15/1/1
f 15/1/1 16/1/1 13/1/1
f 16/1/1 17/1/1 13/1/1
f 17/1/1 18/1/1 21/1/1
f 18/1/1 19/1/1 21/1/1
f 19/1/1 20/1/1 21/1/1
f 21/1/1 22/1/1 23/1/1
f 23/1/1 24/1/1 21/1/1
f 24/1/1 25/1/1 21/1/1
f 25/1/1 26/1/1 29/1/1
f 26/1/1 27/1/1 29/1/1
f 27/1/1 28/1/1 29/1/1
f 29/1/1 30/1/1 31/1/1
f 31/1/1 32/1/1 29/1/1
f 32/1/1 1/1/1 29/1/1
f 1/1/1 5/1/1 9/1/1
f 9/1/1 13/1/1 17/1/1
f 17/1/1 21/1/1 25/1/1
f 25/1/1 29/1/1 1/1/1
f 1/1/1 9/1/1 17/1/1
