# Blender 5.1.2
# www.blender.org
mtllib menu.mtl
o Curve.004
v 0.581867 0.000000 -0.013432
v 0.313193 0.000000 -0.013432
v 0.013136 0.000000 -0.344343
v 0.013519 0.000000 -0.346639
v 0.016237 0.000000 -0.361322
v 0.019127 0.000000 -0.376372
v 0.022214 0.000000 -0.391744
v 0.025522 0.000000 -0.407392
v 0.029077 0.000000 -0.423267
v 0.032904 0.000000 -0.439325
v 0.037027 0.000000 -0.455518
v 0.041472 0.000000 -0.471801
v 0.046264 0.000000 -0.488125
v 0.051427 0.000000 -0.504446
v 0.056986 0.000000 -0.520717
v 0.062967 0.000000 -0.536890
v 0.068387 0.000000 -0.552019
v 0.074087 0.000000 -0.567070
v 0.080073 0.000000 -0.582054
v 0.086350 0.000000 -0.596982
v 0.092926 0.000000 -0.611866
v 0.099804 0.000000 -0.626716
v 0.106993 0.000000 -0.641544
v 0.114496 0.000000 -0.656360
v 0.122321 0.000000 -0.671177
v 0.130472 0.000000 -0.686005
v 0.138956 0.000000 -0.700855
v 0.147779 0.000000 -0.715738
v 0.147806 0.000000 -0.715783
v 0.147881 0.000000 -0.715908
v 0.147994 0.000000 -0.716097
v 0.148136 0.000000 -0.716333
v 0.148297 0.000000 -0.716602
v 0.148468 0.000000 -0.716886
v 0.148639 0.000000 -0.717170
v 0.148800 0.000000 -0.717439
v 0.148942 0.000000 -0.717675
v 0.149055 0.000000 -0.717864
v 0.149130 0.000000 -0.717989
v 0.149157 0.000000 -0.718034
v 0.745979 0.000000 -0.718034
v 0.747357 0.000000 -0.715738
v 0.756180 0.000000 -0.700837
v 0.764664 0.000000 -0.685972
v 0.772816 0.000000 -0.671131
v 0.780640 0.000000 -0.656303
v 0.788144 0.000000 -0.641477
v 0.795332 0.000000 -0.626639
v 0.802211 0.000000 -0.611780
v 0.808786 0.000000 -0.596886
v 0.815064 0.000000 -0.581946
v 0.821050 0.000000 -0.566949
v 0.826749 0.000000 -0.551884
v 0.832169 0.000000 -0.536737
v 0.838133 0.000000 -0.520599
v 0.843678 0.000000 -0.504358
v 0.848829 0.000000 -0.488061
v 0.853610 0.000000 -0.471755
v 0.858048 0.000000 -0.455488
v 0.862165 0.000000 -0.439306
v 0.865988 0.000000 -0.423256
v 0.869540 0.000000 -0.407386
v 0.872847 0.000000 -0.391742
v 0.875933 0.000000 -0.376372
v 0.878823 0.000000 -0.361321
v 0.881541 0.000000 -0.346639
v 0.881548 0.000000 -0.346594
v 0.881569 0.000000 -0.346469
v 0.881601 0.000000 -0.346280
v 0.881640 0.000000 -0.346044
v 0.881685 0.000000 -0.345775
v 0.881732 0.000000 -0.345491
v 0.881780 0.000000 -0.345207
v 0.881824 0.000000 -0.344938
v 0.881864 0.000000 -0.344702
v 0.881895 0.000000 -0.344513
v 0.881916 0.000000 -0.344388
v 0.881924 0.000000 -0.344343
v 0.880393 0.000000 -0.342583
v 0.396015 0.000000 -0.022845
v 0.499121 0.000000 -0.022845
v 0.511582 0.000000 -0.023282
v 0.523905 0.000000 -0.024581
v 0.536051 0.000000 -0.026725
v 0.547977 0.000000 -0.029696
v 0.559643 0.000000 -0.033475
v 0.571007 0.000000 -0.038045
v 0.582028 0.000000 -0.043389
v 0.592665 0.000000 -0.049488
v 0.602877 0.000000 -0.056325
v 0.612623 0.000000 -0.063882
v 0.621860 0.000000 -0.072140
v 0.630549 0.000000 -0.081083
v 0.634101 0.000000 -0.084998
v 0.643919 0.000000 -0.095822
v 0.658751 0.000000 -0.112173
v 0.677344 0.000000 -0.132670
v 0.698443 0.000000 -0.155929
v 0.720796 0.000000 -0.180571
v 0.743149 0.000000 -0.205213
v 0.764248 0.000000 -0.228473
v 0.782841 0.000000 -0.248969
v 0.797673 0.000000 -0.265320
v 0.807491 0.000000 -0.276144
v 0.811043 0.000000 -0.280059
v 0.820559 0.000000 -0.291481
v 0.829005 0.000000 -0.303547
v 0.836366 0.000000 -0.316184
v 0.842628 0.000000 -0.329321
v 0.847775 0.000000 -0.342886
v 0.851793 0.000000 -0.356808
v 0.854669 0.000000 -0.371015
v 0.856386 0.000000 -0.385436
v 0.856930 0.000000 -0.400000
v 0.856288 0.000000 -0.414635
v 0.854443 0.000000 -0.429269
v 0.851382 0.000000 -0.443831
v 0.849473 0.000000 -0.451284
v 0.847494 0.000000 -0.458754
v 0.845444 0.000000 -0.466238
v 0.843319 0.000000 -0.473731
v 0.841118 0.000000 -0.481228
v 0.838838 0.000000 -0.488725
v 0.836477 0.000000 -0.496216
v 0.834032 0.000000 -0.503699
v 0.831501 0.000000 -0.511168
v 0.828881 0.000000 -0.518618
v 0.826170 0.000000 -0.526046
v 0.823367 0.000000 -0.533446
v 0.821277 0.000000 -0.539406
v 0.819144 0.000000 -0.545348
v 0.816965 0.000000 -0.551274
v 0.814742 0.000000 -0.557184
v 0.812475 0.000000 -0.563081
v 0.810162 0.000000 -0.568965
v 0.807806 0.000000 -0.574838
v 0.805404 0.000000 -0.580701
v 0.802958 0.000000 -0.586556
v 0.800467 0.000000 -0.592404
v 0.797931 0.000000 -0.598245
v 0.795351 0.000000 -0.604082
v 0.787517 0.000000 -0.619513
v 0.778320 0.000000 -0.633929
v 0.767859 0.000000 -0.647266
v 0.756236 0.000000 -0.659464
v 0.743551 0.000000 -0.670459
v 0.729905 0.000000 -0.680190
v 0.715397 0.000000 -0.688595
v 0.700129 0.000000 -0.695611
v 0.684200 0.000000 -0.701176
v 0.667712 0.000000 -0.705228
v 0.650764 0.000000 -0.707705
v 0.633458 0.000000 -0.708544
v 0.626143 0.000000 -0.708544
v 0.605919 0.000000 -0.708544
v 0.575367 0.000000 -0.708544
v 0.537071 0.000000 -0.708544
v 0.493610 0.000000 -0.708544
v 0.447568 0.000000 -0.708544
v 0.401526 0.000000 -0.708544
v 0.358066 0.000000 -0.708544
v 0.319769 0.000000 -0.708544
v 0.289218 0.000000 -0.708544
v 0.268993 0.000000 -0.708544
v 0.261678 0.000000 -0.708544
v 0.244388 0.000000 -0.707705
v 0.227451 0.000000 -0.705228
v 0.210968 0.000000 -0.701176
v 0.195042 0.000000 -0.695611
v 0.179772 0.000000 -0.688595
v 0.165260 0.000000 -0.680190
v 0.151608 0.000000 -0.670459
v 0.138917 0.000000 -0.659464
v 0.127288 0.000000 -0.647266
v 0.116822 0.000000 -0.633929
v 0.107621 0.000000 -0.619513
v 0.099785 0.000000 -0.604082
v 0.097207 0.000000 -0.598261
v 0.094675 0.000000 -0.592431
v 0.092189 0.000000 -0.586591
v 0.089749 0.000000 -0.580741
v 0.087354 0.000000 -0.574882
v 0.085003 0.000000 -0.569013
v 0.082694 0.000000 -0.563135
v 0.080428 0.000000 -0.557247
v 0.078203 0.000000 -0.551349
v 0.076019 0.000000 -0.545442
v 0.073875 0.000000 -0.539525
v 0.071770 0.000000 -0.533599
v 0.068966 0.000000 -0.526180
v 0.066255 0.000000 -0.518733
v 0.063636 0.000000 -0.511265
v 0.061105 0.000000 -0.503778
v 0.058659 0.000000 -0.496279
v 0.056298 0.000000 -0.488772
v 0.054018 0.000000 -0.481262
v 0.051817 0.000000 -0.473754
v 0.049693 0.000000 -0.466251
v 0.047642 0.000000 -0.458760
v 0.045664 0.000000 -0.451285
v 0.043754 0.000000 -0.443831
v 0.040693 0.000000 -0.429269
v 0.038849 0.000000 -0.414635
v 0.038206 0.000000 -0.400000
v 0.038751 0.000000 -0.385436
v 0.040468 0.000000 -0.371015
v 0.043343 0.000000 -0.356808
v 0.047361 0.000000 -0.342886
v 0.052509 0.000000 -0.329321
v 0.058770 0.000000 -0.316184
v 0.066131 0.000000 -0.303547
v 0.074577 0.000000 -0.291481
v 0.084094 0.000000 -0.280059
v 0.087645 0.000000 -0.276144
v 0.097463 0.000000 -0.265320
v 0.112296 0.000000 -0.248969
v 0.130888 0.000000 -0.228473
v 0.151988 0.000000 -0.205213
v 0.174340 0.000000 -0.180571
v 0.196693 0.000000 -0.155929
v 0.217792 0.000000 -0.132670
v 0.236385 0.000000 -0.112173
v 0.251217 0.000000 -0.095822
v 0.261036 0.000000 -0.084998
v 0.264587 0.000000 -0.081083
v 0.273276 0.000000 -0.072140
v 0.282514 0.000000 -0.063882
v 0.292259 0.000000 -0.056325
v 0.302471 0.000000 -0.049488
v 0.313108 0.000000 -0.043389
v 0.324130 0.000000 -0.038045
v 0.335494 0.000000 -0.033475
v 0.347159 0.000000 -0.029696
v 0.359086 0.000000 -0.026725
v 0.371231 0.000000 -0.024581
v 0.383555 0.000000 -0.023282
v 0.386064 0.000000 -0.489978
v 0.168753 0.000000 -0.484315
v 0.168753 0.000000 -0.476585
v 0.386064 0.000000 -0.470998
v 0.386064 0.000000 -0.489978
v 0.508996 0.000000 -0.470998
v 0.726307 0.000000 -0.476585
v 0.726307 0.000000 -0.484315
v 0.508996 0.000000 -0.489978
v 0.508996 0.000000 -0.470998
v 0.386064 0.000000 -0.296742
v 0.226697 0.000000 -0.291079
v 0.226697 0.000000 -0.283349
v 0.386064 0.000000 -0.277763
v 0.386064 0.000000 -0.296742
v 0.508996 0.000000 -0.277763
v 0.668363 0.000000 -0.283349
v 0.668363 0.000000 -0.291079
v 0.508996 0.000000 -0.296742
v 0.508996 0.000000 -0.277763
v 0.306074 0.000000 -0.195953
v 0.306074 0.000000 -0.188224
v 0.447530 0.000000 -0.182637
v 0.588985 0.000000 -0.188224
v 0.588985 0.000000 -0.195953
v 0.447530 0.000000 -0.201540
v 0.306074 0.000000 -0.195953
v 0.451893 0.000000 -0.478804
v 0.442401 0.000000 -0.478804
v 0.435436 0.000000 -0.392250
v 0.148468 0.000000 -0.386893
v 0.148468 0.000000 -0.379164
v 0.435436 0.000000 -0.373807
v 0.442401 0.000000 -0.287252
v 0.451893 0.000000 -0.287252
v 0.458399 0.000000 -0.373960
v 0.746592 0.000000 -0.379164
v 0.746592 0.000000 -0.386893
v 0.458399 0.000000 -0.392097
v 0.451893 0.000000 -0.478804
v 0.645858 0.000000 -0.570104
v 0.645858 0.000000 -0.577833
v 0.447530 0.000000 -0.583420
v 0.249201 0.000000 -0.577833
v 0.249201 0.000000 -0.570104
v 0.447530 0.000000 -0.564517
v 0.645858 0.000000 -0.570104
vn -0.0000 1.0000 -0.0000
vt 0.134752 0.000000
vt 0.141844 0.000000
vt 0.138298 0.000000
vt 0.145390 0.000000
vt 0.131206 0.000000
vt 0.127660 0.000000
vt 0.124113 0.000000
vt 0.120567 0.000000
vt 0.117021 0.000000
vt 0.113475 0.000000
vt 0.109929 0.000000
vt 0.106383 0.000000
vt 0.102837 0.000000
vt 0.099291 0.000000
vt 0.095745 0.000000
vt 0.092199 0.000000
vt 0.585106 0.000000
vt 0.581560 0.000000
vt 0.578014 0.000000
vt 0.574468 0.000000
vt 0.570922 0.000000
vt 0.567376 0.000000
vt 0.563830 0.000000
vt 0.560284 0.000000
vt 0.556738 0.000000
vt 0.553191 0.000000
vt 0.549645 0.000000
vt 0.546099 0.000000
vt 0.542553 0.000000
vt 0.539007 0.000000
vt 0.535461 0.000000
vt 0.148936 0.000000
vt 0.588652 0.000000
vt 0.531915 0.000000
vt 0.592199 0.000000
vt 0.528369 0.000000
vt 0.595745 0.000000
vt 0.524823 0.000000
vt 0.088652 0.000000
vt 0.152482 0.000000
vt 0.599291 0.000000
vt 0.521277 0.000000
vt 0.602837 0.000000
vt 0.517730 0.000000
vt 0.085106 0.000000
vt 0.156028 0.000000
vt 0.606383 0.000000
vt 0.514184 0.000000
vt 0.081560 0.000000
vt 0.159574 0.000000
vt 0.609929 0.000000
vt 0.510638 0.000000
vt 0.613475 0.000000
vt 0.507092 0.000000
vt 0.078014 0.000000
vt 0.163121 0.000000
vt 0.617021 0.000000
vt 0.503546 0.000000
vt 0.074468 0.000000
vt 0.166667 0.000000
vt 0.620567 0.000000
vt 0.500000 0.000000
vt 0.070922 0.000000
vt 0.170213 0.000000
vt 0.624114 0.000000
vt 0.496454 0.000000
vt 0.067376 0.000000
vt 0.173759 0.000000
vt 0.627660 0.000000
vt 0.492908 0.000000
vt 0.631206 0.000000
vt 0.489362 0.000000
vt 0.063830 0.000000
vt 0.177305 0.000000
vt 0.634752 0.000000
vt 0.485816 0.000000
vt 0.638298 0.000000
vt 0.482269 0.000000
vt 0.989362 0.000000
vt 0.982270 0.000000
vt 0.985816 0.000000
vt 0.060284 0.000000
vt 0.180851 0.000000
vt 0.641844 0.000000
vt 0.478723 0.000000
vt 0.992908 0.000000
vt 1.000000 0.000000
vt 0.645390 0.000000
vt 0.475177 0.000000
vt 0.996454 0.000000
vt 0.648936 0.000000
vt 0.471631 0.000000
vt 0.056738 0.000000
vt 0.184397 0.000000
vt 0.652482 0.000000
vt 0.468085 0.000000
vt 0.656028 0.000000
vt 0.464539 0.000000
vt 0.053191 0.000000
vt 0.187943 0.000000
vt 0.659574 0.000000
vt 0.460993 0.000000
vt 0.663121 0.000000
vt 0.457447 0.000000
vt 0.666667 0.000000
vt 0.453901 0.000000
vt 0.049645 0.000000
vt 0.191489 0.000000
vt 0.670213 0.000000
vt 0.450355 0.000000
vt 0.673759 0.000000
vt 0.446809 0.000000
vt 0.046099 0.000000
vt 0.195035 0.000000
vt 0.677305 0.000000
vt 0.443262 0.000000
vt 0.680851 0.000000
vt 0.439716 0.000000
vt 0.042553 0.000000
vt 0.198582 0.000000
vt 0.684397 0.000000
vt 0.436170 0.000000
vt 0.687943 0.000000
vt 0.432624 0.000000
vt 0.840426 0.000000
vt 0.847518 0.000000
vt 0.851064 0.000000
vt 0.868794 0.000000
vt 0.861702 0.000000
vt 0.865248 0.000000
vt 0.691489 0.000000
vt 0.429078 0.000000
vt 0.039007 0.000000
vt 0.202128 0.000000
vt 0.843972 0.000000
vt 0.858156 0.000000
vt 0.695035 0.000000
vt 0.425532 0.000000
vt 0.939716 0.000000
vt 0.975177 0.000000
vt 0.936170 0.000000
vt 0.971631 0.000000
vt 0.698582 0.000000
vt 0.421986 0.000000
vt 0.035461 0.000000
vt 0.205674 0.000000
vt 0.702128 0.000000
vt 0.418440 0.000000
vt 0.705674 0.000000
vt 0.414894 0.000000
vt 0.031915 0.000000
vt 0.209220 0.000000
vt 0.709220 0.000000
vt 0.411348 0.000000
vt 0.712766 0.000000
vt 0.407801 0.000000
vt 0.028369 0.000000
vt 0.212766 0.000000
vt 0.404255 0.000000
vt 0.716312 0.000000
vt 0.024823 0.000000
vt 0.216312 0.000000
vt 0.400709 0.000000
vt 0.719858 0.000000
vt 0.021277 0.000000
vt 0.219858 0.000000
vt 0.397163 0.000000
vt 0.723404 0.000000
vt 0.943262 0.000000
vt 0.968085 0.000000
vt 0.017730 0.000000
vt 0.223404 0.000000
vt 0.946809 0.000000
vt 0.964539 0.000000
vt 0.393617 0.000000
vt 0.726950 0.000000
vt 0.950355 0.000000
vt 0.960993 0.000000
vt 0.014184 0.000000
vt 0.226950 0.000000
vt 0.957447 0.000000
vt 0.953901 0.000000
vt 0.390071 0.000000
vt 0.730496 0.000000
vt 0.010638 0.000000
vt 0.230496 0.000000
vt 0.386525 0.000000
vt 0.734043 0.000000
vt 0.007092 0.000000
vt 0.234043 0.000000
vt 0.237589 0.000000
vt 0.241135 0.000000
vt 0.244681 0.000000
vt 0.248227 0.000000
vt 0.251773 0.000000
vt 0.255319 0.000000
vt 0.258865 0.000000
vt 0.262411 0.000000
vt 0.265957 0.000000
vt 0.269504 0.000000
vt 0.273050 0.000000
vt 0.003546 0.000000
vt 0.751773 0.000000
vt 0.748227 0.000000
vt 0.744681 0.000000
vt 0.741135 0.000000
vt 0.737589 0.000000
vt 0.276596 0.000000
vt 0.382979 0.000000
vt 0.379433 0.000000
vt 0.375887 0.000000
vt 0.372340 0.000000
vt 0.368794 0.000000
vt 0.000000 0.000000
vt 0.875886 0.000000
vt 0.882979 0.000000
vt 0.886525 0.000000
vt 0.904255 0.000000
vt 0.897163 0.000000
vt 0.900709 0.000000
vt 0.879433 0.000000
vt 0.893617 0.000000
vt 0.755319 0.000000
vt 0.365248 0.000000
vt 0.361702 0.000000
vt 0.758865 0.000000
vt 0.358156 0.000000
vt 0.762411 0.000000
vt 0.354610 0.000000
vt 0.765957 0.000000
vt 0.351064 0.000000
vt 0.769504 0.000000
vt 0.347518 0.000000
vt 0.773050 0.000000
vt 0.929078 0.000000
vt 0.921986 0.000000
vt 0.925532 0.000000
vt 0.911348 0.000000
vt 0.918440 0.000000
vt 0.914894 0.000000
vt 0.343972 0.000000
vt 0.776596 0.000000
vt 0.340426 0.000000
vt 0.780142 0.000000
vt 0.336879 0.000000
vt 0.783688 0.000000
vt 0.333333 0.000000
vt 0.787234 0.000000
vt 0.329787 0.000000
vt 0.790780 0.000000
vt 0.326241 0.000000
vt 0.794326 0.000000
vt 0.797872 0.000000
vt 0.322695 0.000000
vt 0.801418 0.000000
vt 0.319149 0.000000
vt 0.804965 0.000000
vt 0.315603 0.000000
vt 0.808511 0.000000
vt 0.312057 0.000000
vt 0.812057 0.000000
vt 0.308511 0.000000
vt 0.815603 0.000000
vt 0.304965 0.000000
vt 0.819149 0.000000
vt 0.301418 0.000000
vt 0.822695 0.000000
vt 0.297872 0.000000
vt 0.826241 0.000000
vt 0.294326 0.000000
vt 0.829787 0.000000
vt 0.290780 0.000000
vt 0.287234 0.000000
vt 0.833333 0.000000
vt 0.283688 0.000000
vt 0.280142 0.000000
s 0
usemtl SVGMat.002
f 39/1/1 41/2/1 40/3/1
f 39/1/1 42/4/1 41/2/1
f 38/5/1 42/4/1 39/1/1
f 37/6/1 42/4/1 38/5/1
f 36/7/1 42/4/1 37/6/1
f 35/8/1 42/4/1 36/7/1
f 34/9/1 42/4/1 35/8/1
f 33/10/1 42/4/1 34/9/1
f 32/11/1 42/4/1 33/10/1
f 31/12/1 42/4/1 32/11/1
f 30/13/1 42/4/1 31/12/1
f 29/14/1 42/4/1 30/13/1
f 28/15/1 42/4/1 29/14/1
f 27/16/1 166/17/1 28/15/1
f 166/17/1 165/18/1 28/15/1
f 165/18/1 42/4/1 28/15/1
f 165/18/1 164/19/1 42/4/1
f 164/19/1 163/20/1 42/4/1
f 163/20/1 162/21/1 42/4/1
f 162/21/1 161/22/1 42/4/1
f 161/22/1 160/23/1 42/4/1
f 160/23/1 159/24/1 42/4/1
f 159/24/1 158/25/1 42/4/1
f 158/25/1 157/26/1 42/4/1
f 157/26/1 156/27/1 42/4/1
f 156/27/1 155/28/1 42/4/1
f 155/28/1 154/29/1 42/4/1
f 154/29/1 153/30/1 42/4/1
f 153/30/1 152/31/1 42/4/1
f 152/31/1 43/32/1 42/4/1
f 27/16/1 167/33/1 166/17/1
f 151/34/1 43/32/1 152/31/1
f 27/16/1 168/35/1 167/33/1
f 150/36/1 43/32/1 151/34/1
f 27/16/1 169/37/1 168/35/1
f 149/38/1 43/32/1 150/36/1
f 26/39/1 169/37/1 27/16/1
f 149/38/1 44/40/1 43/32/1
f 26/39/1 170/41/1 169/37/1
f 148/42/1 44/40/1 149/38/1
f 26/39/1 171/43/1 170/41/1
f 147/44/1 44/40/1 148/42/1
f 25/45/1 171/43/1 26/39/1
f 147/44/1 45/46/1 44/40/1
f 25/45/1 172/47/1 171/43/1
f 146/48/1 45/46/1 147/44/1
f 24/49/1 172/47/1 25/45/1
f 146/48/1 46/50/1 45/46/1
f 24/49/1 173/51/1 172/47/1
f 145/52/1 46/50/1 146/48/1
f 24/49/1 174/53/1 173/51/1
f 144/54/1 46/50/1 145/52/1
f 23/55/1 174/53/1 24/49/1
f 144/54/1 47/56/1 46/50/1
f 23/55/1 175/57/1 174/53/1
f 143/58/1 47/56/1 144/54/1
f 22/59/1 175/57/1 23/55/1
f 143/58/1 48/60/1 47/56/1
f 22/59/1 176/61/1 175/57/1
f 142/62/1 48/60/1 143/58/1
f 21/63/1 176/61/1 22/59/1
f 142/62/1 49/64/1 48/60/1
f 21/63/1 177/65/1 176/61/1
f 141/66/1 49/64/1 142/62/1
f 20/67/1 177/65/1 21/63/1
f 141/66/1 50/68/1 49/64/1
f 20/67/1 178/69/1 177/65/1
f 140/70/1 50/68/1 141/66/1
f 20/67/1 179/71/1 178/69/1
f 139/72/1 50/68/1 140/70/1
f 19/73/1 179/71/1 20/67/1
f 139/72/1 51/74/1 50/68/1
f 19/73/1 180/75/1 179/71/1
f 138/76/1 51/74/1 139/72/1
f 19/73/1 181/77/1 180/75/1
f 137/78/1 51/74/1 138/76/1
f 280/79/1 278/80/1 279/81/1
f 18/82/1 181/77/1 19/73/1
f 137/78/1 52/83/1 51/74/1
f 18/82/1 182/84/1 181/77/1
f 136/85/1 52/83/1 137/78/1
f 281/86/1 278/80/1 280/79/1
f 281/86/1 283/87/1 278/80/1
f 18/82/1 183/88/1 182/84/1
f 135/89/1 52/83/1 136/85/1
f 282/90/1 283/87/1 281/86/1
f 18/82/1 184/91/1 183/88/1
f 134/92/1 52/83/1 135/89/1
f 17/93/1 184/91/1 18/82/1
f 134/92/1 53/94/1 52/83/1
f 17/93/1 185/95/1 184/91/1
f 133/96/1 53/94/1 134/92/1
f 17/93/1 186/97/1 185/95/1
f 132/98/1 53/94/1 133/96/1
f 16/99/1 186/97/1 17/93/1
f 132/98/1 54/100/1 53/94/1
f 16/99/1 187/101/1 186/97/1
f 131/102/1 54/100/1 132/98/1
f 16/99/1 188/103/1 187/101/1
f 130/104/1 54/100/1 131/102/1
f 16/99/1 189/105/1 188/103/1
f 129/106/1 54/100/1 130/104/1
f 15/107/1 189/105/1 16/99/1
f 129/106/1 55/108/1 54/100/1
f 15/107/1 190/109/1 189/105/1
f 128/110/1 55/108/1 129/106/1
f 15/107/1 191/111/1 190/109/1
f 127/112/1 55/108/1 128/110/1
f 14/113/1 191/111/1 15/107/1
f 127/112/1 56/114/1 55/108/1
f 14/113/1 192/115/1 191/111/1
f 126/116/1 56/114/1 127/112/1
f 14/113/1 193/117/1 192/115/1
f 125/118/1 56/114/1 126/116/1
f 13/119/1 193/117/1 14/113/1
f 125/118/1 57/120/1 56/114/1
f 13/119/1 194/121/1 193/117/1
f 124/122/1 57/120/1 125/118/1
f 13/119/1 195/123/1 194/121/1
f 123/124/1 57/120/1 124/122/1
f 238/125/1 240/126/1 241/127/1
f 246/128/1 244/129/1 245/130/1
f 13/119/1 196/131/1 195/123/1
f 122/132/1 57/120/1 123/124/1
f 12/133/1 196/131/1 13/119/1
f 122/132/1 58/134/1 57/120/1
f 239/135/1 240/126/1 238/125/1
f 246/128/1 243/136/1 244/129/1
f 12/133/1 197/137/1 196/131/1
f 121/138/1 58/134/1 122/132/1
f 266/139/1 276/140/1 265/141/1
f 266/139/1 275/142/1 276/140/1
f 12/133/1 198/143/1 197/137/1
f 120/144/1 58/134/1 121/138/1
f 11/145/1 198/143/1 12/133/1
f 120/144/1 59/146/1 58/134/1
f 11/145/1 199/147/1 198/143/1
f 119/148/1 59/146/1 120/144/1
f 11/145/1 200/149/1 199/147/1
f 118/150/1 59/146/1 119/148/1
f 10/151/1 200/149/1 11/145/1
f 118/150/1 60/152/1 59/146/1
f 10/151/1 201/153/1 200/149/1
f 117/154/1 60/152/1 118/150/1
f 10/151/1 202/155/1 201/153/1
f 116/156/1 60/152/1 117/154/1
f 9/157/1 202/155/1 10/151/1
f 116/156/1 61/158/1 60/152/1
f 115/159/1 61/158/1 116/156/1
f 9/157/1 203/160/1 202/155/1
f 8/161/1 203/160/1 9/157/1
f 115/159/1 62/162/1 61/158/1
f 114/163/1 62/162/1 115/159/1
f 8/161/1 204/164/1 203/160/1
f 7/165/1 204/164/1 8/161/1
f 114/163/1 63/166/1 62/162/1
f 113/167/1 63/166/1 114/163/1
f 7/165/1 205/168/1 204/164/1
f 267/169/1 275/142/1 266/139/1
f 267/169/1 274/170/1 275/142/1
f 6/171/1 205/168/1 7/165/1
f 113/167/1 64/172/1 63/166/1
f 268/173/1 274/170/1 267/169/1
f 268/173/1 273/174/1 274/170/1
f 112/175/1 64/172/1 113/167/1
f 6/171/1 206/176/1 205/168/1
f 269/177/1 273/174/1 268/173/1
f 269/177/1 272/178/1 273/174/1
f 5/179/1 206/176/1 6/171/1
f 112/175/1 65/180/1 64/172/1
f 269/177/1 271/181/1 272/178/1
f 270/182/1 271/181/1 269/177/1
f 111/183/1 65/180/1 112/175/1
f 5/179/1 207/184/1 206/176/1
f 4/185/1 207/184/1 5/179/1
f 111/183/1 66/186/1 65/180/1
f 110/187/1 66/186/1 111/183/1
f 4/185/1 208/188/1 207/184/1
f 3/189/1 208/188/1 4/185/1
f 110/187/1 67/190/1 66/186/1
f 110/187/1 68/191/1 67/190/1
f 110/187/1 69/192/1 68/191/1
f 110/187/1 70/193/1 69/192/1
f 110/187/1 71/194/1 70/193/1
f 110/187/1 72/195/1 71/194/1
f 110/187/1 73/196/1 72/195/1
f 110/187/1 74/197/1 73/196/1
f 110/187/1 75/198/1 74/197/1
f 110/187/1 76/199/1 75/198/1
f 110/187/1 77/200/1 76/199/1
f 110/187/1 78/201/1 77/200/1
f 2/202/1 213/203/1 3/189/1
f 213/203/1 212/204/1 3/189/1
f 212/204/1 211/205/1 3/189/1
f 211/205/1 210/206/1 3/189/1
f 210/206/1 209/207/1 3/189/1
f 209/207/1 208/188/1 3/189/1
f 110/187/1 79/208/1 78/201/1
f 109/209/1 79/208/1 110/187/1
f 109/209/1 108/210/1 79/208/1
f 108/210/1 107/211/1 79/208/1
f 107/211/1 106/212/1 79/208/1
f 106/212/1 105/213/1 79/208/1
f 105/213/1 1/214/1 79/208/1
f 248/215/1 250/216/1 251/217/1
f 256/218/1 254/219/1 255/220/1
f 249/221/1 250/216/1 248/215/1
f 256/218/1 253/222/1 254/219/1
f 2/202/1 214/223/1 213/203/1
f 104/224/1 1/214/1 105/213/1
f 103/225/1 1/214/1 104/224/1
f 2/202/1 215/226/1 214/223/1
f 102/227/1 1/214/1 103/225/1
f 2/202/1 216/228/1 215/226/1
f 101/229/1 1/214/1 102/227/1
f 2/202/1 217/230/1 216/228/1
f 100/231/1 1/214/1 101/229/1
f 2/202/1 218/232/1 217/230/1
f 99/233/1 1/214/1 100/231/1
f 2/202/1 219/234/1 218/232/1
f 263/235/1 261/236/1 262/237/1
f 258/238/1 261/236/1 263/235/1
f 258/238/1 260/239/1 261/236/1
f 259/240/1 260/239/1 258/238/1
f 98/241/1 1/214/1 99/233/1
f 2/202/1 220/242/1 219/234/1
f 97/243/1 1/214/1 98/241/1
f 2/202/1 221/244/1 220/242/1
f 96/245/1 1/214/1 97/243/1
f 2/202/1 222/246/1 221/244/1
f 95/247/1 1/214/1 96/245/1
f 2/202/1 223/248/1 222/246/1
f 94/249/1 1/214/1 95/247/1
f 2/202/1 224/250/1 223/248/1
f 93/251/1 1/214/1 94/249/1
f 2/202/1 225/252/1 224/250/1
f 2/202/1 226/253/1 225/252/1
f 92/254/1 1/214/1 93/251/1
f 2/202/1 227/255/1 226/253/1
f 91/256/1 1/214/1 92/254/1
f 2/202/1 228/257/1 227/255/1
f 90/258/1 1/214/1 91/256/1
f 2/202/1 229/259/1 228/257/1
f 89/260/1 1/214/1 90/258/1
f 2/202/1 230/261/1 229/259/1
f 88/262/1 1/214/1 89/260/1
f 2/202/1 231/263/1 230/261/1
f 87/264/1 1/214/1 88/262/1
f 2/202/1 232/265/1 231/263/1
f 86/266/1 1/214/1 87/264/1
f 2/202/1 233/267/1 232/265/1
f 85/268/1 1/214/1 86/266/1
f 2/202/1 234/269/1 233/267/1
f 84/270/1 1/214/1 85/268/1
f 2/202/1 235/271/1 234/269/1
f 83/272/1 1/214/1 84/270/1
f 82/273/1 1/214/1 83/272/1
f 2/202/1 236/274/1 235/271/1
f 81/275/1 1/214/1 82/273/1
f 2/202/1 80/276/1 236/274/1
f 2/202/1 81/275/1 80/276/1
f 2/202/1 1/214/1 81/275/1
