# Blender 4.0.2
# www.blender.org
mtllib reset.mtl
o Circle
v -0.998539 0.000000 -0.013554
v -0.943221 0.000000 0.319850
v -0.862653 0.000000 0.497547
v -0.748859 0.000000 0.656365
v -0.627199 0.000000 0.772373
v -0.442289 0.000000 0.891786
v -0.260726 0.000000 0.960204
v -0.109272 0.000000 0.988958
v 0.130526 0.000000 0.991445
v 0.321439 0.000000 0.946930
v 0.500000 0.000000 0.866025
v 0.659346 0.000000 0.751840
v 0.793353 0.000000 0.608762
v 0.896873 0.000000 0.442289
v 0.965926 0.000000 0.258819
v 0.997859 0.000000 0.065403
v 0.991445 0.000000 -0.130526
v 0.946930 0.000000 -0.321439
v 0.866025 0.000000 -0.500000
v 0.751840 0.000000 -0.659346
v 0.608762 0.000000 -0.793353
v 0.442289 0.000000 -0.896873
v 0.258819 0.000000 -0.965926
v 0.065403 0.000000 -0.997859
v -0.130526 0.000000 -0.991445
v -0.321439 0.000000 -0.946930
v -0.500000 0.000000 -0.866025
v -0.656697 0.000000 -0.751310
v -0.788055 0.000000 -0.608762
v -0.892104 0.000000 -0.442289
v -0.795385 0.000000 -0.449426
v -0.671606 0.000000 -0.580689
v -0.481700 0.000000 -0.634431
v -0.400000 0.000000 -0.692820
v -0.257151 0.000000 -0.757544
v -0.104421 0.000000 -0.793156
v 0.052323 0.000000 -0.798287
v 0.207055 0.000000 -0.772741
v 0.353831 0.000000 -0.717498
v 0.487009 0.000000 -0.634683
v 0.601472 0.000000 -0.527477
v 0.692820 0.000000 -0.400000
v 0.757544 0.000000 -0.257151
v 0.793156 0.000000 -0.104421
v 0.798287 0.000000 0.052323
v 0.772741 0.000000 0.207055
v 0.717498 0.000000 0.353831
v 0.634683 0.000000 0.487009
v 0.527477 0.000000 0.601472
v 0.400000 0.000000 0.692820
v 0.257152 0.000000 0.757544
v 0.104421 0.000000 0.793156
v -0.163584 0.000000 0.793582
v -0.308589 0.000000 0.771626
v -0.457404 0.000000 0.716377
v -0.586841 0.000000 0.648433
v -0.750937 0.000000 0.532477
v -0.861636 0.000000 0.423030
v -0.820416 0.000000 -0.177486
v -0.647226 0.000000 -0.175467
v 0.151993 0.000000 -0.418944
v -0.405869 0.000000 -0.119132
v -0.951622 0.000000 -0.287706
v -0.912832 0.000000 -0.122410
v -0.024370 0.000000 -0.360761
v -0.697090 0.000000 0.713458
v -0.694715 0.000000 0.576998
v -0.838847 0.000000 0.539945
v -0.832561 0.000000 0.447650
v -0.554577 0.000000 0.831641
v -0.565199 0.000000 0.666385
v -0.382321 0.000000 0.923269
v -0.349690 0.000000 0.758206
v -0.000801 0.000000 0.999738
v -0.001275 0.000000 0.800807
v -0.025913 0.000000 -0.275497
v -0.198952 0.000000 -0.191694
v -0.180252 0.000000 -0.356309
vn -0.0000 -1.0000 -0.0000
vt 0.000000 0.000000
s 0
f 12/1/1 48/1/1 13/1/1
f 25/1/1 35/1/1 26/1/1
f 16/1/1 44/1/1 17/1/1
f 11/1/1 49/1/1 12/1/1
f 29/1/1 31/1/1 30/1/1
f 24/1/1 36/1/1 25/1/1
f 3/1/1 2/1/1 58/1/1
f 8/1/1 75/1/1 74/1/1
f 11/1/1 51/1/1 50/1/1
f 16/1/1 46/1/1 45/1/1
f 24/1/1 38/1/1 37/1/1
f 28/1/1 32/1/1 29/1/1
f 20/1/1 40/1/1 21/1/1
f 9/1/1 51/1/1 10/1/1
f 6/1/1 73/1/1 72/1/1
f 22/1/1 38/1/1 23/1/1
f 14/1/1 46/1/1 15/1/1
f 19/1/1 41/1/1 20/1/1
f 21/1/1 39/1/1 22/1/1
f 28/1/1 34/1/1 33/1/1
f 5/1/1 71/1/1 70/1/1
f 18/1/1 42/1/1 19/1/1
f 14/1/1 48/1/1 47/1/1
f 26/1/1 34/1/1 27/1/1
f 17/1/1 43/1/1 18/1/1
f 1/1/1 63/1/1 64/1/1
f 32/1/1 62/1/1 60/1/1
f 60/1/1 31/1/1 32/1/1
f 30/1/1 31/1/1 59/1/1
f 78/1/1 76/1/1 77/1/1
f 66/1/1 56/1/1 5/1/1
f 68/1/1 57/1/1 4/1/1
f 72/1/1 54/1/1 7/1/1
f 9/1/1 75/1/1 52/1/1
f 12/1/1 49/1/1 48/1/1
f 25/1/1 36/1/1 35/1/1
f 16/1/1 45/1/1 44/1/1
f 11/1/1 50/1/1 49/1/1
f 29/1/1 32/1/1 31/1/1
f 24/1/1 37/1/1 36/1/1
f 8/1/1 53/1/1 75/1/1
f 11/1/1 10/1/1 51/1/1
f 16/1/1 15/1/1 46/1/1
f 24/1/1 23/1/1 38/1/1
f 28/1/1 33/1/1 32/1/1
f 20/1/1 41/1/1 40/1/1
f 9/1/1 52/1/1 51/1/1
f 6/1/1 55/1/1 73/1/1
f 22/1/1 39/1/1 38/1/1
f 14/1/1 47/1/1 46/1/1
f 19/1/1 42/1/1 41/1/1
f 21/1/1 40/1/1 39/1/1
f 28/1/1 27/1/1 34/1/1
f 5/1/1 56/1/1 71/1/1
f 18/1/1 43/1/1 42/1/1
f 14/1/1 13/1/1 48/1/1
f 26/1/1 35/1/1 34/1/1
f 17/1/1 44/1/1 43/1/1
f 32/1/1 33/1/1 62/1/1
f 60/1/1 59/1/1 31/1/1
f 78/1/1 62/1/1 33/1/1
f 59/1/1 64/1/1 63/1/1
f 63/1/1 30/1/1 59/1/1
f 66/1/1 67/1/1 56/1/1
f 68/1/1 69/1/1 57/1/1
f 72/1/1 73/1/1 54/1/1
f 9/1/1 74/1/1 75/1/1
f 7/1/1 53/1/1 8/1/1
f 55/1/1 70/1/1 71/1/1
f 67/1/1 4/1/1 57/1/1
f 69/1/1 3/1/1 58/1/1
f 76/1/1 65/1/1 61/1/1
f 78/1/1 65/1/1 76/1/1
f 78/1/1 77/1/1 62/1/1
f 7/1/1 54/1/1 53/1/1
f 55/1/1 6/1/1 70/1/1
f 67/1/1 66/1/1 4/1/1
f 69/1/1 68/1/1 3/1/1
