# Blender 4.0.2
# www.blender.org
mtllib settings.mtl
o Plane.006
v -0.282843 0.000000 0.000000
v 0.000000 0.000000 0.282843
v -0.000000 0.000000 -0.282843
v 0.282843 0.000000 -0.000000
v -0.050000 0.000000 1.000000
v 0.050000 0.000000 0.900000
v -0.050000 0.000000 -0.900000
v 0.050000 0.000000 -1.000000
v -0.050000 0.000000 -0.335000
v 0.050000 0.000000 -0.335000
v 0.000000 0.000000 0.950000
v -0.000000 0.000000 -0.950000
v -0.000000 0.000000 -0.385000
v -0.050000 0.000000 0.331500
v 0.050000 0.000000 0.331500
v 0.000000 0.000000 0.381500
v -0.982843 0.000000 0.450000
v -0.700000 0.000000 0.732843
v -0.700000 0.000000 0.167157
v -0.417157 0.000000 0.450000
v -0.750000 0.000000 1.000000
v -0.650000 0.000000 0.900000
v -0.750000 0.000000 -0.900000
v -0.650000 0.000000 -1.000000
v -0.750000 0.000000 0.115000
v -0.650000 0.000000 0.115000
v -0.700000 0.000000 0.950000
v -0.700000 0.000000 -0.950000
v -0.700000 0.000000 0.065000
v -0.750000 0.000000 0.781500
v -0.650000 0.000000 0.781500
v -0.700000 0.000000 0.831500
v 0.417157 0.000000 -0.450000
v 0.700000 0.000000 -0.167157
v 0.700000 0.000000 -0.732843
v 0.982843 0.000000 -0.450000
v 0.650000 0.000000 1.000000
v 0.750000 0.000000 0.900000
v 0.650000 0.000000 -0.900000
v 0.750000 0.000000 -1.000000
v 0.650000 0.000000 -0.785000
v 0.750000 0.000000 -0.785000
v 0.700000 0.000000 0.950000
v 0.700000 0.000000 -0.950000
v 0.700000 0.000000 -0.835000
v 0.650000 0.000000 -0.118500
v 0.750000 0.000000 -0.118500
v 0.700000 0.000000 -0.068500
v -0.869706 0.000000 0.450000
v -0.700000 0.000000 0.619706
v -0.700000 0.000000 0.280294
v -0.530294 0.000000 0.450000
v 0.530294 0.000000 -0.450000
v 0.700000 0.000000 -0.280294
v 0.700000 0.000000 -0.619706
v 0.869706 0.000000 -0.450000
v -0.169706 0.000000 0.000000
v 0.000000 0.000000 0.169706
v -0.000000 0.000000 -0.169706
v 0.169706 0.000000 -0.000000
vn -0.0000 1.0000 -0.0000
vt 0.000000 0.000000
vt 1.000000 0.950000
vt 0.500000 1.000000
vt 0.500000 0.950000
vt 0.000000 1.000000
vt 0.000000 0.950000
vt 0.500000 0.000000
vt 0.000000 0.665000
vt 1.000000 0.000000
vt 0.500000 0.665000
vt 1.000000 1.000000
vt 1.000000 0.665000
s 0
f 1/1/1 59/1/1 3/1/1
f 10/2/1 12/3/1 13/4/1
f 13/4/1 7/5/1 9/6/1
f 11/7/1 14/8/1 5/1/1
f 6/9/1 16/10/1 11/7/1
f 19/1/1 49/1/1 51/1/1
f 29/4/1 24/11/1 28/3/1
f 29/4/1 23/5/1 25/6/1
f 27/7/1 30/8/1 21/1/1
f 22/9/1 32/10/1 27/7/1
f 34/1/1 53/1/1 33/1/1
f 42/2/1 44/3/1 45/4/1
f 45/4/1 39/5/1 41/6/1
f 37/1/1 48/10/1 46/8/1
f 38/9/1 48/10/1 43/7/1
f 4/1/1 58/1/1 2/1/1
f 10/2/1 8/11/1 12/3/1
f 13/4/1 12/3/1 7/5/1
f 11/7/1 16/10/1 14/8/1
f 6/9/1 15/12/1 16/10/1
f 20/1/1 50/1/1 18/1/1
f 29/4/1 26/2/1 24/11/1
f 29/4/1 28/3/1 23/5/1
f 27/7/1 32/10/1 30/8/1
f 22/9/1 31/12/1 32/10/1
f 35/1/1 56/1/1 36/1/1
f 42/2/1 40/11/1 44/3/1
f 45/4/1 44/3/1 39/5/1
f 37/1/1 43/7/1 48/10/1
f 38/9/1 47/12/1 48/10/1
f 19/1/1 52/1/1 20/1/1
f 18/1/1 49/1/1 17/1/1
f 34/1/1 56/1/1 54/1/1
f 33/1/1 55/1/1 35/1/1
f 3/1/1 60/1/1 4/1/1
f 2/1/1 57/1/1 1/1/1
f 1/1/1 57/1/1 59/1/1
f 19/1/1 17/1/1 49/1/1
f 34/1/1 54/1/1 53/1/1
f 4/1/1 60/1/1 58/1/1
f 20/1/1 52/1/1 50/1/1
f 35/1/1 55/1/1 56/1/1
f 19/1/1 51/1/1 52/1/1
f 18/1/1 50/1/1 49/1/1
f 34/1/1 36/1/1 56/1/1
f 33/1/1 53/1/1 55/1/1
f 3/1/1 59/1/1 60/1/1
f 2/1/1 58/1/1 57/1/1
