<?xml version="1.0" encoding="UTF-8" standalone="no"?>
<svg
   viewBox="0 0 1280 720"
   version="1.1"
   id="svg68"
   sodipodi:docname="bench_laptop_verify_dao-vote-input_pdf.svg"
   inkscape:version="1.3.2 (091e20ef0f, 2023-11-25)"
   xmlns:inkscape="http://www.inkscape.org/namespaces/inkscape"
   xmlns:sodipodi="http://sodipodi.sourceforge.net/DTD/sodipodi-0.dtd"
   xmlns:xlink="http://www.w3.org/1999/xlink"
   xmlns="http://www.w3.org/2000/svg"
   xmlns:svg="http://www.w3.org/2000/svg"
   xmlns:rdf="http://www.w3.org/1999/02/22-rdf-syntax-ns#"
   xmlns:cc="http://creativecommons.org/ns#"
   xmlns:dc="http://purl.org/dc/elements/1.1/">
  <defs
     id="defs68">
    <defs
       id="defs2">
      <circle
         id="gpDot"
         r="0.5"
         stroke-width="0.5"
         stroke="currentColor" />
      <path
         id="gpPt0"
         stroke-width="0.222"
         stroke="currentColor"
         d="M-1,0 h2 M0,-1 v2" />
      <path
         id="gpPt1"
         stroke-width="0.222"
         stroke="currentColor"
         d="M-1,-1 L1,1 M1,-1 L-1,1" />
      <path
         id="gpPt2"
         stroke-width="0.222"
         stroke="currentColor"
         d="M-1,0 L1,0 M0,-1 L0,1 M-1,-1 L1,1 M-1,1 L1,-1" />
      <rect
         id="gpPt3"
         stroke-width="0.222"
         stroke="currentColor"
         x="-1"
         y="-1"
         width="2"
         height="2" />
      <rect
         id="gpPt4"
         stroke-width="0.222"
         stroke="currentColor"
         fill="currentColor"
         x="-1"
         y="-1"
         width="2"
         height="2" />
      <circle
         id="gpPt5"
         stroke-width="0.222"
         stroke="currentColor"
         cx="0"
         cy="0"
         r="1" />
      <use
         xlink:href="#gpPt5"
         id="gpPt6"
         fill="currentColor"
         stroke="none" />
      <path
         id="gpPt7"
         stroke-width="0.222"
         stroke="currentColor"
         d="M0,-1.33 L-1.33,0.67 L1.33,0.67 z" />
      <use
         xlink:href="#gpPt7"
         id="gpPt8"
         fill="currentColor"
         stroke="none" />
      <use
         xlink:href="#gpPt7"
         id="gpPt9"
         stroke="currentColor"
         transform="rotate(180)" />
      <use
         xlink:href="#gpPt9"
         id="gpPt10"
         fill="currentColor"
         stroke="none" />
      <use
         xlink:href="#gpPt3"
         id="gpPt11"
         stroke="currentColor"
         transform="rotate(45)" />
      <use
         xlink:href="#gpPt11"
         id="gpPt12"
         fill="currentColor"
         stroke="none" />
      <path
         id="gpPt13"
         stroke-width="0.222"
         stroke="currentColor"
         d="M0,1.330 L1.265,0.411 L0.782,-1.067 L-0.782,-1.076 L-1.265,0.411 z" />
      <use
         xlink:href="#gpPt13"
         id="gpPt14"
         fill="currentColor"
         stroke="none" />
      <filter
         id="textbox"
         filterUnits="objectBoundingBox"
         x="0"
         y="0"
         height="1"
         width="1">
        <feFlood
           flood-color="white"
           flood-opacity="1"
           result="bgnd"
           id="feFlood1" />
        <feComposite
           in="SourceGraphic"
           in2="bgnd"
           operator="atop"
           id="feComposite1" />
      </filter>
      <filter
         id="greybox"
         filterUnits="objectBoundingBox"
         x="0"
         y="0"
         height="1"
         width="1">
        <feFlood
           flood-color="lightgrey"
           flood-opacity="1"
           result="grey"
           id="feFlood2" />
        <feComposite
           in="SourceGraphic"
           in2="grey"
           operator="atop"
           id="feComposite2" />
      </filter>
    </defs>
  </defs>
  <sodipodi:namedview
     id="namedview68"
     pagecolor="#3e3e3e"
     bordercolor="#000000"
     borderopacity="0.25"
     inkscape:showpageshadow="2"
     inkscape:pageopacity="0.0"
     inkscape:pagecheckerboard="0"
     inkscape:deskcolor="#d1d1d1"
     inkscape:zoom="1.789864"
     inkscape:cx="621.83494"
     inkscape:cy="314.26968"
     inkscape:window-width="3838"
     inkscape:window-height="2158"
     inkscape:window-x="0"
     inkscape:window-y="0"
     inkscape:window-maximized="0"
     inkscape:current-layer="svg68" />
  <title
     id="title1">Gnuplot</title>
  <desc
     id="desc1">Produced by GNUPLOT 6.0 patchlevel 0 </desc>
  <rect
     x="0"
     y="0"
     width="1280"
     height="720"
     fill="none"
     id="rect1" />
  <path
     stroke="#000000"
     d="m 72.53,662.4 h 9"
     id="path2"
     style="color:#000000;fill:none;stroke-width:1;stroke-linecap:butt;stroke-linejoin:miter" />
  <text
     id="text2"
     style="color:#000000;font-size:12px;font-family:Helvetica;text-anchor:end;fill:#ffffff;stroke:none;stroke-width:1;stroke-linecap:butt;stroke-linejoin:miter;fill-opacity:1"
     x="64.139999"
     y="666.29999"><tspan
       font-family="Helvetica"
       id="tspan2"
       style="fill:#ffffff;fill-opacity:1">0</tspan></text>
  <path
     stroke="#000000"
     d="m 72.53,586.35 h 9"
     id="path4"
     style="color:#000000;fill:none;stroke-width:1;stroke-linecap:butt;stroke-linejoin:miter;stroke:#ffffff;stroke-opacity:1" />
  <text
     id="text4"
     style="color:#000000;font-size:12px;font-family:Helvetica;text-anchor:end;fill:#ffffff;stroke:none;stroke-width:1;stroke-linecap:butt;stroke-linejoin:miter;fill-opacity:1"
     x="64.139999"
     y="590.25"><tspan
       font-family="Helvetica"
       id="tspan4"
       style="fill:#ffffff;fill-opacity:1">0.1</tspan></text>
  <path
     stroke="#000000"
     d="m 72.53,510.3 h 9"
     id="path6"
     style="color:#000000;fill:none;stroke-width:1;stroke-linecap:butt;stroke-linejoin:miter;stroke:#ffffff;stroke-opacity:1" />
  <text
     id="text6"
     style="color:#000000;font-size:12px;font-family:Helvetica;text-anchor:end;fill:#ffffff;stroke:none;stroke-width:1;stroke-linecap:butt;stroke-linejoin:miter;fill-opacity:1"
     x="64.139999"
     y="514.20001"><tspan
       font-family="Helvetica"
       id="tspan6"
       style="fill:#ffffff;fill-opacity:1">0.2</tspan></text>
  <path
     stroke="#000000"
     d="m 72.53,434.25 h 9"
     id="path8"
     style="color:#000000;fill:none;stroke-width:1;stroke-linecap:butt;stroke-linejoin:miter;stroke:#ffffff;stroke-opacity:1" />
  <text
     id="text8"
     style="color:#000000;font-size:12px;font-family:Helvetica;text-anchor:end;fill:#ffffff;stroke:none;stroke-width:1;stroke-linecap:butt;stroke-linejoin:miter;fill-opacity:1"
     x="64.139999"
     y="438.14999"><tspan
       font-family="Helvetica"
       id="tspan8"
       style="fill:#ffffff;fill-opacity:1">0.3</tspan></text>
  <path
     stroke="#000000"
     d="m 72.53,358.2 h 9"
     id="path10"
     style="color:#000000;fill:none;stroke-width:1;stroke-linecap:butt;stroke-linejoin:miter;stroke:#ffffff;stroke-opacity:1" />
  <text
     id="text10"
     style="color:#000000;font-size:12px;font-family:Helvetica;text-anchor:end;fill:#ffffff;stroke:none;stroke-width:1;stroke-linecap:butt;stroke-linejoin:miter;fill-opacity:1"
     x="64.139999"
     y="362.10001"><tspan
       font-family="Helvetica"
       id="tspan10"
       style="fill:#ffffff;fill-opacity:1">0.4</tspan></text>
  <path
     stroke="#000000"
     d="m 72.53,282.16 h 9"
     id="path12"
     style="color:#000000;fill:none;stroke-width:1;stroke-linecap:butt;stroke-linejoin:miter;stroke:#ffffff;stroke-opacity:1" />
  <text
     id="text12"
     style="color:#000000;font-size:12px;font-family:Helvetica;text-anchor:end;fill:#ffffff;stroke:none;stroke-width:1;stroke-linecap:butt;stroke-linejoin:miter;fill-opacity:1"
     x="64.139999"
     y="286.06"><tspan
       font-family="Helvetica"
       id="tspan12"
       style="fill:#ffffff;fill-opacity:1">0.5</tspan></text>
  <path
     stroke="#000000"
     d="m 72.53,206.11 h 9"
     id="path14"
     style="color:#000000;fill:none;stroke-width:1;stroke-linecap:butt;stroke-linejoin:miter;stroke:#ffffff;stroke-opacity:1" />
  <text
     id="text14"
     style="color:#000000;font-size:12px;font-family:Helvetica;text-anchor:end;fill:#ffffff;stroke:none;stroke-width:1;stroke-linecap:butt;stroke-linejoin:miter;fill-opacity:1"
     x="64.139999"
     y="210.00999"><tspan
       font-family="Helvetica"
       id="tspan14"
       style="fill:#ffffff;fill-opacity:1">0.6</tspan></text>
  <path
     stroke="#000000"
     d="m 72.53,130.06 h 9"
     id="path16"
     style="color:#000000;fill:none;stroke-width:1;stroke-linecap:butt;stroke-linejoin:miter;stroke:#ffffff;stroke-opacity:1" />
  <text
     id="text16"
     style="color:#000000;font-size:12px;font-family:Helvetica;text-anchor:end;fill:#ffffff;stroke:none;stroke-width:1;stroke-linecap:butt;stroke-linejoin:miter;fill-opacity:1"
     x="64.139999"
     y="133.96001"><tspan
       font-family="Helvetica"
       id="tspan16"
       style="fill:#ffffff;fill-opacity:1">0.7</tspan></text>
  <path
     stroke="#000000"
     d="m 72.53,54.01 h 9"
     id="path18"
     style="color:#000000;fill:none;stroke-width:1;stroke-linecap:butt;stroke-linejoin:miter;stroke:#ffffff;stroke-opacity:1" />
  <text
     id="text18"
     style="color:#000000;font-size:12px;font-family:Helvetica;text-anchor:end;fill:#ffffff;stroke:none;stroke-width:1;stroke-linecap:butt;stroke-linejoin:miter;fill-opacity:1"
     x="64.139999"
     y="57.91"><tspan
       font-family="Helvetica"
       id="tspan18"
       style="fill:#ffffff;fill-opacity:1">0.8</tspan></text>
  <path
     stroke="#000000"
     d="m 72.53,662.4 v -9"
     id="path20"
     style="color:#000000;fill:none;stroke-width:1;stroke-linecap:butt;stroke-linejoin:miter" />
  <text
     id="text20"
     style="color:#000000;font-size:12px;font-family:Helvetica;text-anchor:middle;fill:#ffffff;stroke:none;stroke-width:1;stroke-linecap:butt;stroke-linejoin:miter;fill-opacity:1"
     x="72.529999"
     y="684.29999"><tspan
       font-family="Helvetica"
       id="tspan20"
       style="fill:#ffffff;fill-opacity:1">30</tspan></text>
  <path
     stroke="#000000"
     d="m 203.46,662.4 v -9"
     id="path22"
     style="color:#000000;fill:none;stroke-width:1;stroke-linecap:butt;stroke-linejoin:miter;stroke:#ffffff;stroke-opacity:1" />
  <text
     id="text22"
     style="color:#000000;font-size:12px;font-family:Helvetica;text-anchor:middle;fill:#ffffff;stroke:none;stroke-width:1;stroke-linecap:butt;stroke-linejoin:miter;fill-opacity:1"
     x="203.46001"
     y="684.29999"><tspan
       font-family="Helvetica"
       id="tspan22"
       style="fill:#ffffff;fill-opacity:1">40</tspan></text>
  <path
     stroke="#000000"
     d="m 334.39,662.4 v -9"
     id="path24"
     style="color:#000000;fill:none;stroke-width:1;stroke-linecap:butt;stroke-linejoin:miter;stroke:#ffffff;stroke-opacity:1" />
  <text
     id="text24"
     style="color:#000000;font-size:12px;font-family:Helvetica;text-anchor:middle;fill:#ffffff;stroke:none;stroke-width:1;stroke-linecap:butt;stroke-linejoin:miter;fill-opacity:1"
     x="334.39001"
     y="684.29999"><tspan
       font-family="Helvetica"
       id="tspan24"
       style="fill:#ffffff;fill-opacity:1">50</tspan></text>
  <path
     stroke="#000000"
     d="m 465.32,662.4 v -9"
     id="path26"
     style="color:#000000;fill:none;stroke-width:1;stroke-linecap:butt;stroke-linejoin:miter;stroke:#ffffff;stroke-opacity:1" />
  <text
     id="text26"
     style="color:#000000;font-size:12px;font-family:Helvetica;text-anchor:middle;fill:#ffffff;stroke:none;stroke-width:1;stroke-linecap:butt;stroke-linejoin:miter;fill-opacity:1"
     x="465.32001"
     y="684.29999"><tspan
       font-family="Helvetica"
       id="tspan26"
       style="fill:#ffffff;fill-opacity:1">60</tspan></text>
  <path
     stroke="#000000"
     d="m 596.25,662.4 v -9"
     id="path28"
     style="color:#000000;fill:none;stroke-width:1;stroke-linecap:butt;stroke-linejoin:miter;stroke:#ffffff;stroke-opacity:1" />
  <text
     id="text28"
     style="color:#000000;font-size:12px;font-family:Helvetica;text-anchor:middle;fill:#ffffff;stroke:none;stroke-width:1;stroke-linecap:butt;stroke-linejoin:miter;fill-opacity:1"
     x="596.25"
     y="684.29999"><tspan
       font-family="Helvetica"
       id="tspan28"
       style="fill:#ffffff;fill-opacity:1">70</tspan></text>
  <path
     stroke="#000000"
     d="m 727.18,662.4 v -9"
     id="path30"
     style="color:#000000;fill:none;stroke-width:1;stroke-linecap:butt;stroke-linejoin:miter;stroke:#ffffff;stroke-opacity:1" />
  <text
     id="text30"
     style="color:#000000;font-size:12px;font-family:Helvetica;text-anchor:middle;fill:#ffffff;stroke:none;stroke-width:1;stroke-linecap:butt;stroke-linejoin:miter;fill-opacity:1"
     x="727.17999"
     y="684.29999"><tspan
       font-family="Helvetica"
       id="tspan30"
       style="fill:#ffffff;fill-opacity:1">80</tspan></text>
  <path
     stroke="#000000"
     d="m 858.11,662.4 v -9"
     id="path32"
     style="color:#000000;fill:none;stroke-width:1;stroke-linecap:butt;stroke-linejoin:miter;stroke:#ffffff;stroke-opacity:1" />
  <text
     id="text32"
     style="color:#000000;font-size:12px;font-family:Helvetica;text-anchor:middle;fill:#ffffff;stroke:none;stroke-width:1;stroke-linecap:butt;stroke-linejoin:miter;fill-opacity:1"
     x="858.10999"
     y="684.29999"><tspan
       font-family="Helvetica"
       id="tspan32"
       style="fill:#ffffff;fill-opacity:1">90</tspan></text>
  <path
     stroke="#000000"
     d="m 989.04,662.4 v -9"
     id="path34"
     style="color:#000000;fill:none;stroke-width:1;stroke-linecap:butt;stroke-linejoin:miter;stroke:#ffffff;stroke-opacity:1" />
  <text
     id="text34"
     style="color:#000000;font-size:12px;font-family:Helvetica;text-anchor:middle;fill:#ffffff;stroke:none;stroke-width:1;stroke-linecap:butt;stroke-linejoin:miter;fill-opacity:1"
     x="989.03998"
     y="684.29999"><tspan
       font-family="Helvetica"
       id="tspan34"
       style="fill:#ffffff;fill-opacity:1">100</tspan></text>
  <path
     stroke="#000000"
     d="m 1119.97,662.4 v -9"
     id="path36"
     style="color:#000000;fill:none;stroke-width:1;stroke-linecap:butt;stroke-linejoin:miter;stroke:#ffffff;stroke-opacity:1" />
  <text
     id="text36"
     style="color:#000000;font-size:12px;font-family:Helvetica;text-anchor:middle;fill:#ffffff;stroke:none;stroke-width:1;stroke-linecap:butt;stroke-linejoin:miter;fill-opacity:1"
     x="1119.97"
     y="684.29999"><tspan
       font-family="Helvetica"
       id="tspan36"
       style="fill:#ffffff;fill-opacity:1">110</tspan></text>
  <path
     stroke="#000000"
     d="M 72.53,54.01 V 662.4 H 1119.97 V 54.01 Z"
     id="path39"
     style="color:#000000;fill:none;stroke-width:1;stroke-linecap:butt;stroke-linejoin:miter" />
  <polygon
     fill="#e31a1c"
     fill-opacity="0.5"
     points="167.19,662.03 167.5,661.96 167.81,661.89 168.12,661.81 168.44,661.72 168.75,661.61 169.06,661.5 169.38,661.37 169.69,661.23 170,661.07 170.31,660.9 170.63,660.72 170.94,660.52 171.25,660.3 171.57,660.07 171.88,659.83 172.19,659.57 172.5,659.3 172.82,659.02 173.13,658.72 173.44,658.42 173.75,658.11 174.07,657.79 174.38,657.48 174.69,657.16 175.01,656.84 175.32,656.53 175.63,656.22 175.94,655.93 176.26,655.65 176.57,655.39 176.88,655.15 177.2,654.92 177.51,654.73 177.82,654.55 178.13,654.41 178.45,654.3 178.76,654.21 179.07,654.16 179.38,654.13 179.7,654.14 180.01,654.17 180.32,654.23 180.64,654.32 180.95,654.43 181.26,654.55 181.57,654.7 181.89,654.85 182.2,655.02 182.51,655.18 182.83,655.35 183.14,655.51 183.45,655.65 183.76,655.78 184.08,655.88 184.39,655.95 184.7,655.99 185.01,655.98 185.33,655.93 185.64,655.82 185.95,655.65 186.27,655.41 186.58,655.1 186.89,654.72 187.2,654.24 187.52,653.68 187.83,653.02 188.14,652.26 188.46,651.39 188.77,650.4 189.08,649.29 189.39,648.05 189.71,646.68 190.02,645.17 190.33,643.51 190.64,641.71 190.96,639.74 191.27,637.61 191.58,635.31 191.9,632.83 192.21,630.17 192.52,627.33 192.83,624.29 193.15,621.06 193.46,617.64 193.77,614.01 194.09,610.17 194.4,606.13 194.71,601.88 195.02,597.42 195.34,592.75 195.65,587.87 195.96,582.78 196.27,577.49 196.59,571.98 196.9,566.27 197.21,560.36 197.53,554.25 197.84,547.93 198.15,541.42 198.46,534.71 198.78,527.81 199.09,520.7 199.4,513.4 199.72,505.9 200.03,498.2 200.34,490.29 200.65,482.17 200.97,473.83 201.28,465.28 201.59,456.49 201.9,447.47 202.22,438.21 202.53,428.71 202.84,418.95 203.16,408.95 203.47,398.69 203.78,388.17 204.09,377.41 204.41,366.41 204.72,355.18 205.03,343.73 205.35,332.09 205.66,320.28 205.97,308.33 206.28,296.28 206.6,284.17 206.91,272.05 207.22,259.95 207.53,247.96 207.85,236.11 208.16,224.49 208.47,213.16 208.79,202.18 209.1,191.64 209.41,181.6 209.72,172.15 210.04,163.35 210.35,155.28 210.66,148.02 210.98,141.61 211.29,136.14 211.6,131.65 211.91,128.19 212.23,125.81 212.54,124.55 212.85,124.43 213.16,125.46 213.48,127.67 213.79,131.05 214.1,135.6 214.42,141.29 214.73,148.1 215.04,156 215.35,164.95 215.67,174.88 215.98,185.76 216.29,197.5 216.6,210.05 216.92,223.33 217.23,237.26 217.54,251.76 217.86,266.75 218.17,282.14 218.48,297.84 218.79,313.78 219.11,329.87 219.42,346.02 219.73,362.17 220.05,378.22 220.36,394.12 220.67,409.79 220.98,425.18 221.3,440.22 221.61,454.86 221.92,469.06 222.23,482.78 222.55,495.98 222.86,508.64 223.17,520.73 223.49,532.23 223.8,543.14 224.11,553.44 224.42,563.14 224.74,572.23 225.05,580.73 225.36,588.65 225.68,595.99 225.99,602.78 226.3,609.04 226.61,614.78 226.93,620.04 227.24,624.83 227.55,629.18 227.86,633.12 228.18,636.67 228.49,639.86 228.8,642.72 229.12,645.27 229.43,647.54 229.74,649.55 230.05,651.32 230.37,652.88 230.68,654.25 230.99,655.44 231.31,656.48 231.62,657.38 231.93,658.16 232.24,658.83 232.56,659.4 232.87,659.89 233.18,660.31 233.49,660.67 233.81,660.96 234.12,661.22 234.43,661.43 234.75,661.6 235.06,661.75 235.37,661.87 235.68,661.97 236,662.05 236.31,662.12 236.62,662.18 236.94,662.22 237.25,662.26 237.56,662.29 237.87,662.31 238.19,662.33 238.5,662.35 238.81,662.36 239.12,662.37 239.44,662.37 239.75,662.38 240.06,662.38 240.38,662.39 240.69,662.39 241,662.39 241.31,662.39 241.63,662.4 241.94,662.4 242.25,662.4 242.57,662.4 242.88,662.4 243.19,662.4 243.5,662.4 243.82,662.4 244.13,662.4 244.44,662.4 244.75,662.4 245.07,662.4 245.38,662.4 245.69,662.4 246.01,662.4 246.32,662.4 246.63,662.4 246.94,662.4 247.26,662.4 247.57,662.4 247.88,662.4 248.2,662.4 248.51,662.4 248.82,662.4 249.13,662.4 249.45,662.4 249.76,662.4 250.07,662.4 250.38,662.4 250.7,662.4 251.01,662.4 251.32,662.4 251.64,662.4 251.95,662.4 252.26,662.4 252.57,662.4 252.89,662.4 253.2,662.4 253.51,662.4 253.83,662.4 254.14,662.4 254.45,662.4 254.76,662.4 255.08,662.4 255.39,662.4 255.7,662.4 256.01,662.4 256.33,662.4 256.64,662.4 256.95,662.4 257.27,662.4 257.58,662.4 257.89,662.4 258.2,662.4 258.52,662.4 258.83,662.4 259.14,662.4 259.46,662.4 259.77,662.4 260.08,662.4 260.39,662.4 260.71,662.4 261.02,662.4 261.33,662.4 261.64,662.4 261.96,662.4 262.27,662.4 262.58,662.4 262.9,662.4 263.21,662.4 263.52,662.4 263.83,662.4 264.15,662.4 264.46,662.4 264.77,662.4 265.09,662.4 265.4,662.4 265.71,662.4 266.02,662.4 266.34,662.4 266.65,662.4 266.96,662.4 267.27,662.4 267.59,662.4 267.9,662.4 268.21,662.4 268.53,662.4 268.84,662.4 269.15,662.4 269.46,662.4 269.78,662.4 270.09,662.4 270.4,662.4 270.72,662.4 271.03,662.4 271.34,662.4 271.65,662.4 271.97,662.4 272.28,662.4 272.59,662.4 272.9,662.4 273.22,662.4 273.53,662.4 273.84,662.4 274.16,662.4 274.47,662.4 274.78,662.4 275.09,662.4 275.41,662.4 275.72,662.4 276.03,662.4 276.35,662.4 276.66,662.4 276.97,662.4 277.28,662.4 277.6,662.4 277.91,662.4 278.22,662.4 278.53,662.4 278.85,662.4 279.16,662.4 279.47,662.4 279.79,662.4 280.1,662.4 280.41,662.4 280.72,662.4 281.04,662.4 281.35,662.4 281.66,662.4 281.98,662.4 282.29,662.4 282.6,662.4 282.91,662.4 283.23,662.4 283.54,662.4 283.85,662.4 284.16,662.4 284.48,662.4 284.79,662.4 285.1,662.4 285.42,662.4 285.73,662.4 286.04,662.4 286.35,662.4 286.67,662.4 286.98,662.4 287.29,662.4 287.6,662.39 287.92,662.39 288.23,662.39 288.54,662.39 288.86,662.39 289.17,662.38 289.48,662.38 289.79,662.37 290.11,662.37 290.42,662.36 290.73,662.35 291.05,662.34 291.36,662.32 291.67,662.3 291.98,662.28 292.3,662.26 292.61,662.23 292.92,662.2 293.23,662.16 293.55,662.12 293.86,662.07 294.17,662.01 294.49,661.94 294.8,661.87 295.11,661.78 295.42,661.69 295.74,661.58 296.05,661.46 296.36,661.33 296.68,661.18 296.99,661.02 297.3,660.85 297.61,660.66 297.93,660.46 298.24,660.24 298.55,660 298.86,659.76 299.18,659.49 299.49,659.22 299.8,658.93 300.12,658.64 300.43,658.33 300.74,658.02 301.05,657.7 301.37,657.38 301.68,657.07 301.99,656.75 302.31,656.44 302.62,656.14 302.93,655.86 303.24,655.58 303.56,655.33 303.87,655.1 304.18,654.89 304.49,654.7 304.81,654.55 305.12,654.42 305.43,654.33 305.75,654.26 306.06,654.23 306.37,654.24 306.68,654.28 307,654.35 307.31,654.45 307.62,654.59 307.94,654.75 308.25,654.95 308.56,655.16 308.87,655.4 309.19,655.66 309.5,655.94 309.81,656.23 310.12,656.53 310.44,656.84 310.75,657.16 311.06,657.48 311.38,657.8 311.69,658.11 312,658.42 312.31,658.72 312.63,659.02 312.94,659.3 313.25,659.57 313.57,659.83 313.88,660.07 314.19,660.3 314.5,660.52 314.82,660.72 315.13,660.9 315.44,661.07 315.75,661.23 316.07,661.37 316.38,661.5 316.69,661.61 317.01,661.72 317.32,661.81 317.63,661.89 317.94,661.96 318.26,662.03 318.57,662.08 318.88,662.13 319.2,662.17 319.51,662.21 319.82,662.24 320.13,662.27 320.45,662.29 320.76,662.31 320.76,662.4 320.45,662.4 320.13,662.4 319.82,662.4 319.51,662.4 319.2,662.4 318.88,662.4 318.57,662.4 318.26,662.4 317.94,662.4 317.63,662.4 317.32,662.4 317.01,662.4 316.69,662.4 316.38,662.4 316.07,662.4 315.75,662.4 315.44,662.4 315.13,662.4 314.82,662.4 314.5,662.4 314.19,662.4 313.88,662.4 313.57,662.4 313.25,662.4 312.94,662.4 312.63,662.4 312.31,662.4 312,662.4 311.69,662.4 311.38,662.4 311.06,662.4 310.75,662.4 310.44,662.4 310.12,662.4 309.81,662.4 309.5,662.4 309.19,662.4 308.87,662.4 308.56,662.4 308.25,662.4 307.94,662.4 307.62,662.4 307.31,662.4 307,662.4 306.68,662.4 306.37,662.4 306.06,662.4 305.75,662.4 305.43,662.4 305.12,662.4 304.81,662.4 304.49,662.4 304.18,662.4 303.87,662.4 303.56,662.4 303.24,662.4 302.93,662.4 302.62,662.4 302.31,662.4 301.99,662.4 301.68,662.4 301.37,662.4 301.05,662.4 300.74,662.4 300.43,662.4 300.12,662.4 299.8,662.4 299.49,662.4 299.18,662.4 298.86,662.4 298.55,662.4 298.24,662.4 297.93,662.4 297.61,662.4 297.3,662.4 296.99,662.4 296.68,662.4 296.36,662.4 296.05,662.4 295.74,662.4 295.42,662.4 295.11,662.4 294.8,662.4 294.49,662.4 294.17,662.4 293.86,662.4 293.55,662.4 293.23,662.4 292.92,662.4 292.61,662.4 292.3,662.4 291.98,662.4 291.67,662.4 291.36,662.4 291.05,662.4 290.73,662.4 290.42,662.4 290.11,662.4 289.79,662.4 289.48,662.4 289.17,662.4 288.86,662.4 288.54,662.4 288.23,662.4 287.92,662.4 287.6,662.4 287.29,662.4 286.98,662.4 286.67,662.4 286.35,662.4 286.04,662.4 285.73,662.4 285.42,662.4 285.1,662.4 284.79,662.4 284.48,662.4 284.16,662.4 283.85,662.4 283.54,662.4 283.23,662.4 282.91,662.4 282.6,662.4 282.29,662.4 281.98,662.4 281.66,662.4 281.35,662.4 281.04,662.4 280.72,662.4 280.41,662.4 280.1,662.4 279.79,662.4 279.47,662.4 279.16,662.4 278.85,662.4 278.53,662.4 278.22,662.4 277.91,662.4 277.6,662.4 277.28,662.4 276.97,662.4 276.66,662.4 276.35,662.4 276.03,662.4 275.72,662.4 275.41,662.4 275.09,662.4 274.78,662.4 274.47,662.4 274.16,662.4 273.84,662.4 273.53,662.4 273.22,662.4 272.9,662.4 272.59,662.4 272.28,662.4 271.97,662.4 271.65,662.4 271.34,662.4 271.03,662.4 270.72,662.4 270.4,662.4 270.09,662.4 269.78,662.4 269.46,662.4 269.15,662.4 268.84,662.4 268.53,662.4 268.21,662.4 267.9,662.4 267.59,662.4 267.27,662.4 266.96,662.4 266.65,662.4 266.34,662.4 266.02,662.4 265.71,662.4 265.4,662.4 265.09,662.4 264.77,662.4 264.46,662.4 264.15,662.4 263.83,662.4 263.52,662.4 263.21,662.4 262.9,662.4 262.58,662.4 262.27,662.4 261.96,662.4 261.64,662.4 261.33,662.4 261.02,662.4 260.71,662.4 260.39,662.4 260.08,662.4 259.77,662.4 259.46,662.4 259.14,662.4 258.83,662.4 258.52,662.4 258.2,662.4 257.89,662.4 257.58,662.4 257.27,662.4 256.95,662.4 256.64,662.4 256.33,662.4 256.01,662.4 255.7,662.4 255.39,662.4 255.08,662.4 254.76,662.4 254.45,662.4 254.14,662.4 253.83,662.4 253.51,662.4 253.2,662.4 252.89,662.4 252.57,662.4 252.26,662.4 251.95,662.4 251.64,662.4 251.32,662.4 251.01,662.4 250.7,662.4 250.38,662.4 250.07,662.4 249.76,662.4 249.45,662.4 249.13,662.4 248.82,662.4 248.51,662.4 248.2,662.4 247.88,662.4 247.57,662.4 247.26,662.4 246.94,662.4 246.63,662.4 246.32,662.4 246.01,662.4 245.69,662.4 245.38,662.4 245.07,662.4 244.75,662.4 244.44,662.4 244.13,662.4 243.82,662.4 243.5,662.4 243.19,662.4 242.88,662.4 242.57,662.4 242.25,662.4 241.94,662.4 241.63,662.4 241.31,662.4 241,662.4 240.69,662.4 240.38,662.4 240.06,662.4 239.75,662.4 239.44,662.4 239.12,662.4 238.81,662.4 238.5,662.4 238.19,662.4 237.87,662.4 237.56,662.4 237.25,662.4 236.94,662.4 236.62,662.4 236.31,662.4 236,662.4 235.68,662.4 235.37,662.4 235.06,662.4 234.75,662.4 234.43,662.4 234.12,662.4 233.81,662.4 233.49,662.4 233.18,662.4 232.87,662.4 232.56,662.4 232.24,662.4 231.93,662.4 231.62,662.4 231.31,662.4 230.99,662.4 230.68,662.4 230.37,662.4 230.05,662.4 229.74,662.4 229.43,662.4 229.12,662.4 228.8,662.4 228.49,662.4 228.18,662.4 227.86,662.4 227.55,662.4 227.24,662.4 226.93,662.4 226.61,662.4 226.3,662.4 225.99,662.4 225.68,662.4 225.36,662.4 225.05,662.4 224.74,662.4 224.42,662.4 224.11,662.4 223.8,662.4 223.49,662.4 223.17,662.4 222.86,662.4 222.55,662.4 222.23,662.4 221.92,662.4 221.61,662.4 221.3,662.4 220.98,662.4 220.67,662.4 220.36,662.4 220.05,662.4 219.73,662.4 219.42,662.4 219.11,662.4 218.79,662.4 218.48,662.4 218.17,662.4 217.86,662.4 217.54,662.4 217.23,662.4 216.92,662.4 216.6,662.4 216.29,662.4 215.98,662.4 215.67,662.4 215.35,662.4 215.04,662.4 214.73,662.4 214.42,662.4 214.1,662.4 213.79,662.4 213.48,662.4 213.16,662.4 212.85,662.4 212.54,662.4 212.23,662.4 211.91,662.4 211.6,662.4 211.29,662.4 210.98,662.4 210.66,662.4 210.35,662.4 210.04,662.4 209.72,662.4 209.41,662.4 209.1,662.4 208.79,662.4 208.47,662.4 208.16,662.4 207.85,662.4 207.53,662.4 207.22,662.4 206.91,662.4 206.6,662.4 206.28,662.4 205.97,662.4 205.66,662.4 205.35,662.4 205.03,662.4 204.72,662.4 204.41,662.4 204.09,662.4 203.78,662.4 203.47,662.4 203.16,662.4 202.84,662.4 202.53,662.4 202.22,662.4 201.9,662.4 201.59,662.4 201.28,662.4 200.97,662.4 200.65,662.4 200.34,662.4 200.03,662.4 199.72,662.4 199.4,662.4 199.09,662.4 198.78,662.4 198.46,662.4 198.15,662.4 197.84,662.4 197.53,662.4 197.21,662.4 196.9,662.4 196.59,662.4 196.27,662.4 195.96,662.4 195.65,662.4 195.34,662.4 195.02,662.4 194.71,662.4 194.4,662.4 194.09,662.4 193.77,662.4 193.46,662.4 193.15,662.4 192.83,662.4 192.52,662.4 192.21,662.4 191.9,662.4 191.58,662.4 191.27,662.4 190.96,662.4 190.64,662.4 190.33,662.4 190.02,662.4 189.71,662.4 189.39,662.4 189.08,662.4 188.77,662.4 188.46,662.4 188.14,662.4 187.83,662.4 187.52,662.4 187.2,662.4 186.89,662.4 186.58,662.4 186.27,662.4 185.95,662.4 185.64,662.4 185.33,662.4 185.01,662.4 184.7,662.4 184.39,662.4 184.08,662.4 183.76,662.4 183.45,662.4 183.14,662.4 182.83,662.4 182.51,662.4 182.2,662.4 181.89,662.4 181.57,662.4 181.26,662.4 180.95,662.4 180.64,662.4 180.32,662.4 180.01,662.4 179.7,662.4 179.38,662.4 179.07,662.4 178.76,662.4 178.45,662.4 178.13,662.4 177.82,662.4 177.51,662.4 177.2,662.4 176.88,662.4 176.57,662.4 176.26,662.4 175.94,662.4 175.63,662.4 175.32,662.4 175.01,662.4 174.69,662.4 174.38,662.4 174.07,662.4 173.75,662.4 173.44,662.4 173.13,662.4 172.82,662.4 172.5,662.4 172.19,662.4 171.88,662.4 171.57,662.4 171.25,662.4 170.94,662.4 170.63,662.4 170.31,662.4 170,662.4 169.69,662.4 169.38,662.4 169.06,662.4 168.75,662.4 168.44,662.4 168.12,662.4 167.81,662.4 167.5,662.4 167.19,662.4 166.87,662.4 166.56,662.4 166.25,662.4 165.94,662.4 165.62,662.4 165.31,662.4 165,662.4 164.68,662.4 164.68,662.31 165,662.29 165.31,662.27 165.62,662.24 165.94,662.21 166.25,662.17 166.56,662.13 166.87,662.08 "
     id="polygon44"
     style="color:#000000;stroke:none;stroke-width:1;stroke-linecap:butt;stroke-linejoin:miter;shape-rendering:crispEdges" />
  <polygon
     fill="#1f78b4"
     fill-opacity="0.5"
     points="421.33,662.32 422.57,662.31 423.82,662.29 425.06,662.28 426.3,662.26 427.54,662.24 428.78,662.22 430.02,662.19 431.26,662.17 432.5,662.13 433.74,662.1 434.98,662.06 436.22,662.03 437.46,661.98 438.7,661.94 439.94,661.89 441.18,661.83 442.42,661.78 443.66,661.72 444.9,661.65 446.14,661.58 447.38,661.51 448.63,661.44 449.87,661.36 451.11,661.28 452.35,661.2 453.59,661.12 454.83,661.03 456.07,660.94 457.31,660.86 458.55,660.77 459.79,660.68 461.03,660.59 462.27,660.5 463.51,660.41 464.75,660.32 465.99,660.24 467.23,660.15 468.47,660.07 469.71,659.99 470.95,659.92 472.19,659.85 473.44,659.78 474.68,659.72 475.92,659.66 477.16,659.61 478.4,659.56 479.64,659.52 480.88,659.48 482.12,659.45 483.36,659.42 484.6,659.4 485.84,659.38 487.08,659.37 488.32,659.37 489.56,659.37 490.8,659.37 492.04,659.38 493.28,659.4 494.52,659.42 495.76,659.45 497.01,659.48 498.25,659.51 499.49,659.55 500.73,659.59 501.97,659.63 503.21,659.67 504.45,659.72 505.69,659.76 506.93,659.8 508.17,659.83 509.41,659.86 510.65,659.89 511.89,659.9 513.13,659.9 514.37,659.88 515.61,659.85 516.85,659.8 518.09,659.72 519.33,659.61 520.57,659.46 521.82,659.28 523.06,659.05 524.3,658.77 525.54,658.44 526.78,658.03 528.02,657.56 529.26,657 530.5,656.36 531.74,655.61 532.98,654.76 534.22,653.79 535.46,652.7 536.7,651.46 537.94,650.08 539.18,648.54 540.42,646.83 541.66,644.94 542.9,642.86 544.14,640.59 545.38,638.11 546.63,635.42 547.87,632.51 549.11,629.38 550.35,626.03 551.59,622.45 552.83,618.65 554.07,614.63 555.31,610.39 556.55,605.95 557.79,601.31 559.03,596.5 560.27,591.52 561.51,586.39 562.75,581.14 563.99,575.8 565.23,570.38 566.47,564.92 567.71,559.46 568.95,554.01 570.19,548.63 571.44,543.33 572.68,538.17 573.92,533.18 575.16,528.39 576.4,523.85 577.64,519.58 578.88,515.62 580.12,512 581.36,508.75 582.6,505.89 583.84,503.46 585.08,501.47 586.32,499.93 587.56,498.86 588.8,498.26 590.04,498.14 591.28,498.5 592.52,499.32 593.76,500.61 595,502.35 596.25,504.53 597.49,507.11 598.73,510.08 599.97,513.41 601.21,517.07 602.45,521.04 603.69,525.27 604.93,529.74 606.17,534.41 607.41,539.25 608.65,544.21 609.89,549.28 611.13,554.42 612.37,559.58 613.61,564.75 614.85,569.9 616.09,575 617.33,580.02 618.57,584.94 619.81,589.75 621.06,594.43 622.3,598.95 623.54,603.32 624.78,607.52 626.02,611.53 627.26,615.37 628.5,619.01 629.74,622.46 630.98,625.72 632.22,628.79 633.46,631.67 634.7,634.37 635.94,636.89 637.18,639.23 638.42,641.4 639.66,643.42 640.9,645.27 642.14,646.98 643.38,648.55 644.62,649.99 645.87,651.3 647.11,652.5 648.35,653.58 649.59,654.57 650.83,655.46 652.07,656.26 653.31,656.99 654.55,657.64 655.79,658.22 657.03,658.74 658.27,659.2 659.51,659.61 660.75,659.97 661.99,660.3 663.23,660.58 664.47,660.83 665.71,661.05 666.95,661.24 668.19,661.41 669.43,661.55 670.68,661.68 671.92,661.79 673.16,661.88 674.4,661.96 675.64,662.03 676.88,662.09 678.12,662.14 679.36,662.18 680.6,662.22 681.84,662.25 683.08,662.28 684.32,662.3 685.56,662.32 686.8,662.33 688.04,662.34 689.28,662.35 690.52,662.36 691.76,662.37 693,662.38 694.24,662.38 695.49,662.38 696.73,662.39 697.97,662.39 699.21,662.39 700.45,662.39 701.69,662.39 702.93,662.4 704.17,662.4 705.41,662.4 706.65,662.4 707.89,662.4 709.13,662.4 710.37,662.4 711.61,662.4 712.85,662.4 714.09,662.4 715.33,662.4 716.57,662.4 717.81,662.4 719.05,662.4 720.3,662.4 721.54,662.4 722.78,662.4 724.02,662.4 725.26,662.4 726.5,662.4 727.74,662.4 728.98,662.4 730.22,662.4 731.46,662.4 732.7,662.4 733.94,662.4 735.18,662.4 736.42,662.4 737.66,662.4 738.9,662.4 740.14,662.4 741.38,662.4 742.62,662.4 743.86,662.4 745.11,662.4 746.35,662.4 747.59,662.4 748.83,662.4 750.07,662.4 751.31,662.4 752.55,662.4 753.79,662.4 755.03,662.4 756.27,662.4 757.51,662.4 758.75,662.4 759.99,662.4 761.23,662.4 762.47,662.4 763.71,662.4 764.95,662.4 766.19,662.4 767.43,662.4 768.67,662.4 769.92,662.4 771.16,662.4 772.4,662.4 773.64,662.4 774.88,662.4 776.12,662.4 777.36,662.4 778.6,662.4 779.84,662.4 781.08,662.4 782.32,662.4 783.56,662.4 784.8,662.4 786.04,662.4 787.28,662.4 788.52,662.4 789.76,662.4 791,662.39 792.24,662.39 793.48,662.39 794.73,662.39 795.97,662.39 797.21,662.39 798.45,662.38 799.69,662.38 800.93,662.38 802.17,662.37 803.41,662.37 804.65,662.36 805.89,662.35 807.13,662.35 808.37,662.34 809.61,662.33 810.85,662.32 812.09,662.3 813.33,662.29 814.57,662.27 815.81,662.25 817.05,662.23 818.29,662.21 819.54,662.18 820.78,662.16 822.02,662.13 823.26,662.09 824.5,662.06 825.74,662.02 826.98,661.98 828.22,661.93 829.46,661.88 830.7,661.83 831.94,661.78 833.18,661.72 834.42,661.66 835.66,661.6 836.9,661.54 838.14,661.48 839.38,661.41 840.62,661.34 841.86,661.28 843.1,661.21 844.35,661.14 845.59,661.07 846.83,661.01 848.07,660.95 849.31,660.88 850.55,660.83 851.79,660.77 853.03,660.72 854.27,660.68 855.51,660.63 856.75,660.6 857.99,660.57 859.23,660.54 860.47,660.53 861.71,660.51 862.95,660.51 864.19,660.51 865.43,660.52 866.67,660.53 867.91,660.55 869.16,660.58 870.4,660.61 871.64,660.65 872.88,660.7 874.12,660.74 875.36,660.8 876.6,660.85 877.84,660.91 879.08,660.97 880.32,661.04 881.56,661.1 882.8,661.17 884.04,661.24 885.28,661.31 886.52,661.37 887.76,661.44 889,661.5 890.24,661.57 891.48,661.63 892.73,661.69 893.97,661.75 895.21,661.8 896.45,661.85 897.69,661.9 898.93,661.94 900.17,661.98 901.41,662.02 902.65,662.06 903.89,662.09 905.13,662.12 906.37,662.14 907.61,662.16 908.85,662.18 910.09,662.2 911.33,662.21 912.57,662.22 913.81,662.22 915.05,662.22 916.29,662.22 917.54,662.22 918.78,662.21 920.02,662.2 921.26,662.19 922.5,662.17 923.74,662.15 924.98,662.13 926.22,662.1 927.46,662.07 928.7,662.04 929.94,662 931.18,661.96 932.42,661.92 933.66,661.87 934.9,661.82 936.14,661.77 937.38,661.72 938.62,661.66 939.86,661.6 941.1,661.53 942.35,661.47 943.59,661.4 944.83,661.34 946.07,661.27 947.31,661.2 948.55,661.14 949.79,661.07 951.03,661 952.27,660.94 953.51,660.88 954.75,660.82 955.99,660.77 957.23,660.72 958.47,660.67 959.71,660.63 960.95,660.6 962.19,660.57 963.43,660.54 964.67,660.52 965.91,660.51 967.16,660.51 968.4,660.51 969.64,660.52 970.88,660.53 972.12,660.56 973.36,660.58 974.6,660.62 975.84,660.66 977.08,660.7 978.32,660.75 979.56,660.8 980.8,660.86 982.04,660.92 983.28,660.98 984.52,661.04 985.76,661.11 987,661.18 988.24,661.24 989.48,661.31 990.72,661.38 991.97,661.45 993.21,661.51 994.45,661.57 995.69,661.64 996.93,661.7 998.17,661.75 999.41,661.81 1000.65,661.86 1001.89,661.91 1003.13,661.95 1004.37,662 1005.61,662.04 1006.85,662.08 1008.09,662.11 1009.33,662.14 1010.57,662.17 1011.81,662.2 1013.05,662.22 1014.29,662.24 1015.53,662.26 1016.78,662.28 1018.02,662.3 1019.26,662.31 1020.5,662.32 1021.74,662.33 1022.98,662.34 1024.22,662.35 1025.46,662.36 1026.7,662.36 1027.94,662.37 1029.18,662.37 1030.42,662.38 1030.42,662.4 1029.18,662.4 1027.94,662.4 1026.7,662.4 1025.46,662.4 1024.22,662.4 1022.98,662.4 1021.74,662.4 1020.5,662.4 1019.26,662.4 1018.02,662.4 1016.78,662.4 1015.53,662.4 1014.29,662.4 1013.05,662.4 1011.81,662.4 1010.57,662.4 1009.33,662.4 1008.09,662.4 1006.85,662.4 1005.61,662.4 1004.37,662.4 1003.13,662.4 1001.89,662.4 1000.65,662.4 999.41,662.4 998.17,662.4 996.93,662.4 995.69,662.4 994.45,662.4 993.21,662.4 991.97,662.4 990.72,662.4 989.48,662.4 988.24,662.4 987,662.4 985.76,662.4 984.52,662.4 983.28,662.4 982.04,662.4 980.8,662.4 979.56,662.4 978.32,662.4 977.08,662.4 975.84,662.4 974.6,662.4 973.36,662.4 972.12,662.4 970.88,662.4 969.64,662.4 968.4,662.4 967.16,662.4 965.91,662.4 964.67,662.4 963.43,662.4 962.19,662.4 960.95,662.4 959.71,662.4 958.47,662.4 957.23,662.4 955.99,662.4 954.75,662.4 953.51,662.4 952.27,662.4 951.03,662.4 949.79,662.4 948.55,662.4 947.31,662.4 946.07,662.4 944.83,662.4 943.59,662.4 942.35,662.4 941.1,662.4 939.86,662.4 938.62,662.4 937.38,662.4 936.14,662.4 934.9,662.4 933.66,662.4 932.42,662.4 931.18,662.4 929.94,662.4 928.7,662.4 927.46,662.4 926.22,662.4 924.98,662.4 923.74,662.4 922.5,662.4 921.26,662.4 920.02,662.4 918.78,662.4 917.54,662.4 916.29,662.4 915.05,662.4 913.81,662.4 912.57,662.4 911.33,662.4 910.09,662.4 908.85,662.4 907.61,662.4 906.37,662.4 905.13,662.4 903.89,662.4 902.65,662.4 901.41,662.4 900.17,662.4 898.93,662.4 897.69,662.4 896.45,662.4 895.21,662.4 893.97,662.4 892.73,662.4 891.48,662.4 890.24,662.4 889,662.4 887.76,662.4 886.52,662.4 885.28,662.4 884.04,662.4 882.8,662.4 881.56,662.4 880.32,662.4 879.08,662.4 877.84,662.4 876.6,662.4 875.36,662.4 874.12,662.4 872.88,662.4 871.64,662.4 870.4,662.4 869.16,662.4 867.91,662.4 866.67,662.4 865.43,662.4 864.19,662.4 862.95,662.4 861.71,662.4 860.47,662.4 859.23,662.4 857.99,662.4 856.75,662.4 855.51,662.4 854.27,662.4 853.03,662.4 851.79,662.4 850.55,662.4 849.31,662.4 848.07,662.4 846.83,662.4 845.59,662.4 844.35,662.4 843.1,662.4 841.86,662.4 840.62,662.4 839.38,662.4 838.14,662.4 836.9,662.4 835.66,662.4 834.42,662.4 833.18,662.4 831.94,662.4 830.7,662.4 829.46,662.4 828.22,662.4 826.98,662.4 825.74,662.4 824.5,662.4 823.26,662.4 822.02,662.4 820.78,662.4 819.54,662.4 818.29,662.4 817.05,662.4 815.81,662.4 814.57,662.4 813.33,662.4 812.09,662.4 810.85,662.4 809.61,662.4 808.37,662.4 807.13,662.4 805.89,662.4 804.65,662.4 803.41,662.4 802.17,662.4 800.93,662.4 799.69,662.4 798.45,662.4 797.21,662.4 795.97,662.4 794.73,662.4 793.48,662.4 792.24,662.4 791,662.4 789.76,662.4 788.52,662.4 787.28,662.4 786.04,662.4 784.8,662.4 783.56,662.4 782.32,662.4 781.08,662.4 779.84,662.4 778.6,662.4 777.36,662.4 776.12,662.4 774.88,662.4 773.64,662.4 772.4,662.4 771.16,662.4 769.92,662.4 768.67,662.4 767.43,662.4 766.19,662.4 764.95,662.4 763.71,662.4 762.47,662.4 761.23,662.4 759.99,662.4 758.75,662.4 757.51,662.4 756.27,662.4 755.03,662.4 753.79,662.4 752.55,662.4 751.31,662.4 750.07,662.4 748.83,662.4 747.59,662.4 746.35,662.4 745.11,662.4 743.86,662.4 742.62,662.4 741.38,662.4 740.14,662.4 738.9,662.4 737.66,662.4 736.42,662.4 735.18,662.4 733.94,662.4 732.7,662.4 731.46,662.4 730.22,662.4 728.98,662.4 727.74,662.4 726.5,662.4 725.26,662.4 724.02,662.4 722.78,662.4 721.54,662.4 720.3,662.4 719.05,662.4 717.81,662.4 716.57,662.4 715.33,662.4 714.09,662.4 712.85,662.4 711.61,662.4 710.37,662.4 709.13,662.4 707.89,662.4 706.65,662.4 705.41,662.4 704.17,662.4 702.93,662.4 701.69,662.4 700.45,662.4 699.21,662.4 697.97,662.4 696.73,662.4 695.49,662.4 694.24,662.4 693,662.4 691.76,662.4 690.52,662.4 689.28,662.4 688.04,662.4 686.8,662.4 685.56,662.4 684.32,662.4 683.08,662.4 681.84,662.4 680.6,662.4 679.36,662.4 678.12,662.4 676.88,662.4 675.64,662.4 674.4,662.4 673.16,662.4 671.92,662.4 670.68,662.4 669.43,662.4 668.19,662.4 666.95,662.4 665.71,662.4 664.47,662.4 663.23,662.4 661.99,662.4 660.75,662.4 659.51,662.4 658.27,662.4 657.03,662.4 655.79,662.4 654.55,662.4 653.31,662.4 652.07,662.4 650.83,662.4 649.59,662.4 648.35,662.4 647.11,662.4 645.87,662.4 644.62,662.4 643.38,662.4 642.14,662.4 640.9,662.4 639.66,662.4 638.42,662.4 637.18,662.4 635.94,662.4 634.7,662.4 633.46,662.4 632.22,662.4 630.98,662.4 629.74,662.4 628.5,662.4 627.26,662.4 626.02,662.4 624.78,662.4 623.54,662.4 622.3,662.4 621.06,662.4 619.81,662.4 618.57,662.4 617.33,662.4 616.09,662.4 614.85,662.4 613.61,662.4 612.37,662.4 611.13,662.4 609.89,662.4 608.65,662.4 607.41,662.4 606.17,662.4 604.93,662.4 603.69,662.4 602.45,662.4 601.21,662.4 599.97,662.4 598.73,662.4 597.49,662.4 596.25,662.4 595,662.4 593.76,662.4 592.52,662.4 591.28,662.4 590.04,662.4 588.8,662.4 587.56,662.4 586.32,662.4 585.08,662.4 583.84,662.4 582.6,662.4 581.36,662.4 580.12,662.4 578.88,662.4 577.64,662.4 576.4,662.4 575.16,662.4 573.92,662.4 572.68,662.4 571.44,662.4 570.19,662.4 568.95,662.4 567.71,662.4 566.47,662.4 565.23,662.4 563.99,662.4 562.75,662.4 561.51,662.4 560.27,662.4 559.03,662.4 557.79,662.4 556.55,662.4 555.31,662.4 554.07,662.4 552.83,662.4 551.59,662.4 550.35,662.4 549.11,662.4 547.87,662.4 546.63,662.4 545.38,662.4 544.14,662.4 542.9,662.4 541.66,662.4 540.42,662.4 539.18,662.4 537.94,662.4 536.7,662.4 535.46,662.4 534.22,662.4 532.98,662.4 531.74,662.4 530.5,662.4 529.26,662.4 528.02,662.4 526.78,662.4 525.54,662.4 524.3,662.4 523.06,662.4 521.82,662.4 520.57,662.4 519.33,662.4 518.09,662.4 516.85,662.4 515.61,662.4 514.37,662.4 513.13,662.4 511.89,662.4 510.65,662.4 509.41,662.4 508.17,662.4 506.93,662.4 505.69,662.4 504.45,662.4 503.21,662.4 501.97,662.4 500.73,662.4 499.49,662.4 498.25,662.4 497.01,662.4 495.76,662.4 494.52,662.4 493.28,662.4 492.04,662.4 490.8,662.4 489.56,662.4 488.32,662.4 487.08,662.4 485.84,662.4 484.6,662.4 483.36,662.4 482.12,662.4 480.88,662.4 479.64,662.4 478.4,662.4 477.16,662.4 475.92,662.4 474.68,662.4 473.44,662.4 472.19,662.4 470.95,662.4 469.71,662.4 468.47,662.4 467.23,662.4 465.99,662.4 464.75,662.4 463.51,662.4 462.27,662.4 461.03,662.4 459.79,662.4 458.55,662.4 457.31,662.4 456.07,662.4 454.83,662.4 453.59,662.4 452.35,662.4 451.11,662.4 449.87,662.4 448.63,662.4 447.38,662.4 446.14,662.4 444.9,662.4 443.66,662.4 442.42,662.4 441.18,662.4 439.94,662.4 438.7,662.4 437.46,662.4 436.22,662.4 434.98,662.4 433.74,662.4 432.5,662.4 431.26,662.4 430.02,662.4 428.78,662.4 427.54,662.4 426.3,662.4 425.06,662.4 423.82,662.4 422.57,662.4 421.33,662.4 420.09,662.4 418.85,662.4 417.61,662.4 416.37,662.4 415.13,662.4 413.89,662.4 412.65,662.4 411.41,662.4 411.41,662.38 412.65,662.37 413.89,662.37 415.13,662.36 416.37,662.36 417.61,662.35 418.85,662.34 420.09,662.33 "
     id="polygon53"
     style="color:#000000;stroke:none;stroke-width:1;stroke-linecap:butt;stroke-linejoin:miter;shape-rendering:crispEdges" />
  <path
     stroke="#000000"
     d="M 72.53,54.01 V 662.4 H 1119.97 V 54.01 Z"
     id="path60"
     style="color:#000000;fill:none;stroke-width:1;stroke-linecap:butt;stroke-linejoin:miter;stroke:#ffffff;stroke-opacity:1" />
  <text
     id="text60"
     transform="rotate(-90)"
     style="color:#000000;font-size:12px;font-family:Helvetica;text-anchor:middle;fill:#ffffff;stroke:none;stroke-width:1;stroke-linecap:butt;stroke-linejoin:miter;fill-opacity:1"
     x="-358.20999"
     y="19.18"><tspan
       font-family="Helvetica"
       id="tspan60"
       style="fill:#ffffff;fill-opacity:1">Density (a.u.)</tspan></text>
  <text
     id="text62"
     style="color:#000000;font-size:12px;font-family:Helvetica;text-anchor:middle;fill:#ffffff;stroke:none;stroke-width:1;stroke-linecap:butt;stroke-linejoin:miter;fill-opacity:1"
     x="596.25"
     y="711.29999"><tspan
       font-family="Helvetica"
       id="tspan62"
       style="fill:#ffffff;fill-opacity:1">Average time (ms)</tspan></text>
  <text
     id="text65"
     style="color:#000000;font-size:12px;font-family:Helvetica;text-anchor:middle;fill:#ffffff;stroke:none;stroke-width:1;stroke-linecap:butt;stroke-linejoin:miter;fill-opacity:1"
     x="596.25"
     y="30.91"><tspan
       font-family="Helvetica"
       id="tspan65"
       style="fill:#ffffff;fill-opacity:1">verify DAO::vote-input</tspan></text>
  <metadata
     id="metadata68">
    <rdf:RDF>
      <cc:Work
         rdf:about="">
        <dc:title>Gnuplot</dc:title>
      </cc:Work>
    </rdf:RDF>
  </metadata>
</svg>
