<?xml version="1.0" encoding="UTF-8" standalone="no"?>
<svg
   viewBox="0 0 1280 720"
   version="1.1"
   id="svg74"
   sodipodi:docname="bench_verify_dao-propose-input_pdf.svg"
   inkscape:version="1.3.2 (091e20ef0f, 2023-11-25)"
   xmlns:inkscape="http://www.inkscape.org/namespaces/inkscape"
   xmlns:sodipodi="http://sodipodi.sourceforge.net/DTD/sodipodi-0.dtd"
   xmlns:xlink="http://www.w3.org/1999/xlink"
   xmlns="http://www.w3.org/2000/svg"
   xmlns:svg="http://www.w3.org/2000/svg"
   xmlns:rdf="http://www.w3.org/1999/02/22-rdf-syntax-ns#"
   xmlns:cc="http://creativecommons.org/ns#"
   xmlns:dc="http://purl.org/dc/elements/1.1/">
  <defs
     id="defs74">
    <defs
       id="defs2">
      <circle
         id="gpDot"
         r="0.5"
         stroke-width="0.5"
         stroke="currentColor" />
      <path
         id="gpPt0"
         stroke-width="0.222"
         stroke="currentColor"
         d="M-1,0 h2 M0,-1 v2" />
      <path
         id="gpPt1"
         stroke-width="0.222"
         stroke="currentColor"
         d="M-1,-1 L1,1 M1,-1 L-1,1" />
      <path
         id="gpPt2"
         stroke-width="0.222"
         stroke="currentColor"
         d="M-1,0 L1,0 M0,-1 L0,1 M-1,-1 L1,1 M-1,1 L1,-1" />
      <rect
         id="gpPt3"
         stroke-width="0.222"
         stroke="currentColor"
         x="-1"
         y="-1"
         width="2"
         height="2" />
      <rect
         id="gpPt4"
         stroke-width="0.222"
         stroke="currentColor"
         fill="currentColor"
         x="-1"
         y="-1"
         width="2"
         height="2" />
      <circle
         id="gpPt5"
         stroke-width="0.222"
         stroke="currentColor"
         cx="0"
         cy="0"
         r="1" />
      <use
         xlink:href="#gpPt5"
         id="gpPt6"
         fill="currentColor"
         stroke="none" />
      <path
         id="gpPt7"
         stroke-width="0.222"
         stroke="currentColor"
         d="M0,-1.33 L-1.33,0.67 L1.33,0.67 z" />
      <use
         xlink:href="#gpPt7"
         id="gpPt8"
         fill="currentColor"
         stroke="none" />
      <use
         xlink:href="#gpPt7"
         id="gpPt9"
         stroke="currentColor"
         transform="rotate(180)" />
      <use
         xlink:href="#gpPt9"
         id="gpPt10"
         fill="currentColor"
         stroke="none" />
      <use
         xlink:href="#gpPt3"
         id="gpPt11"
         stroke="currentColor"
         transform="rotate(45)" />
      <use
         xlink:href="#gpPt11"
         id="gpPt12"
         fill="currentColor"
         stroke="none" />
      <path
         id="gpPt13"
         stroke-width="0.222"
         stroke="currentColor"
         d="M0,1.330 L1.265,0.411 L0.782,-1.067 L-0.782,-1.076 L-1.265,0.411 z" />
      <use
         xlink:href="#gpPt13"
         id="gpPt14"
         fill="currentColor"
         stroke="none" />
      <filter
         id="textbox"
         filterUnits="objectBoundingBox"
         x="0"
         y="0"
         height="1"
         width="1">
        <feFlood
           flood-color="white"
           flood-opacity="1"
           result="bgnd"
           id="feFlood1" />
        <feComposite
           in="SourceGraphic"
           in2="bgnd"
           operator="atop"
           id="feComposite1" />
      </filter>
      <filter
         id="greybox"
         filterUnits="objectBoundingBox"
         x="0"
         y="0"
         height="1"
         width="1">
        <feFlood
           flood-color="lightgrey"
           flood-opacity="1"
           result="grey"
           id="feFlood2" />
        <feComposite
           in="SourceGraphic"
           in2="grey"
           operator="atop"
           id="feComposite2" />
      </filter>
    </defs>
  </defs>
  <sodipodi:namedview
     id="namedview74"
     pagecolor="#3a3a3a"
     bordercolor="#000000"
     borderopacity="0.25"
     inkscape:showpageshadow="2"
     inkscape:pageopacity="0.0"
     inkscape:pagecheckerboard="0"
     inkscape:deskcolor="#d1d1d1"
     inkscape:zoom="1.625"
     inkscape:cx="574.76923"
     inkscape:cy="336.92308"
     inkscape:window-width="3838"
     inkscape:window-height="2158"
     inkscape:window-x="0"
     inkscape:window-y="0"
     inkscape:window-maximized="0"
     inkscape:current-layer="svg74" />
  <title
     id="title1">Gnuplot</title>
  <desc
     id="desc1">Produced by GNUPLOT 6.0 patchlevel 0 </desc>
  <rect
     x="0"
     y="0"
     width="1280"
     height="720"
     fill="none"
     id="rect1" />
  <path
     stroke="#000000"
     d="m 72.53,662.4 h 9"
     id="path2"
     style="color:#000000;fill:none;stroke-width:1;stroke-linecap:butt;stroke-linejoin:miter;stroke:#ffffff;stroke-opacity:1" />
  <text
     id="text2"
     style="color:#000000;font-size:12px;font-family:Helvetica;text-anchor:end;fill:#f1f1f1;stroke:none;stroke-width:1;stroke-linecap:butt;stroke-linejoin:miter;fill-opacity:1"
     x="64.139999"
     y="666.29999"><tspan
       font-family="Helvetica"
       id="tspan2"
       style="fill:#f1f1f1;fill-opacity:1">0</tspan></text>
  <path
     stroke="#000000"
     d="m 72.53,586.35 h 9"
     id="path4"
     style="color:#000000;fill:none;stroke-width:1;stroke-linecap:butt;stroke-linejoin:miter;stroke:#ffffff;stroke-opacity:1" />
  <text
     id="text4"
     style="color:#000000;font-size:12px;font-family:Helvetica;text-anchor:end;fill:#f1f1f1;stroke:none;stroke-width:1;stroke-linecap:butt;stroke-linejoin:miter;fill-opacity:1"
     x="64.139999"
     y="590.25"><tspan
       font-family="Helvetica"
       id="tspan4"
       style="fill:#f1f1f1;fill-opacity:1">0.2</tspan></text>
  <path
     stroke="#000000"
     d="m 72.53,510.3 h 9"
     id="path6"
     style="color:#000000;fill:none;stroke-width:1;stroke-linecap:butt;stroke-linejoin:miter;stroke:#ffffff;stroke-opacity:1" />
  <text
     id="text6"
     style="color:#000000;font-size:12px;font-family:Helvetica;text-anchor:end;fill:#f1f1f1;stroke:none;stroke-width:1;stroke-linecap:butt;stroke-linejoin:miter;fill-opacity:1"
     x="64.139999"
     y="514.20001"><tspan
       font-family="Helvetica"
       id="tspan6"
       style="fill:#f1f1f1;fill-opacity:1">0.4</tspan></text>
  <path
     stroke="#000000"
     d="m 72.53,434.25 h 9"
     id="path8"
     style="color:#000000;fill:none;stroke-width:1;stroke-linecap:butt;stroke-linejoin:miter;stroke:#ffffff;stroke-opacity:1" />
  <text
     id="text8"
     style="color:#000000;font-size:12px;font-family:Helvetica;text-anchor:end;fill:#f1f1f1;stroke:none;stroke-width:1;stroke-linecap:butt;stroke-linejoin:miter;fill-opacity:1"
     x="64.139999"
     y="438.14999"><tspan
       font-family="Helvetica"
       id="tspan8"
       style="fill:#f1f1f1;fill-opacity:1">0.6</tspan></text>
  <path
     stroke="#000000"
     d="m 72.53,358.2 h 9"
     id="path10"
     style="color:#000000;fill:none;stroke-width:1;stroke-linecap:butt;stroke-linejoin:miter;stroke:#ffffff;stroke-opacity:1" />
  <text
     id="text10"
     style="color:#000000;font-size:12px;font-family:Helvetica;text-anchor:end;fill:#f1f1f1;stroke:none;stroke-width:1;stroke-linecap:butt;stroke-linejoin:miter;fill-opacity:1"
     x="64.139999"
     y="362.10001"><tspan
       font-family="Helvetica"
       id="tspan10"
       style="fill:#f1f1f1;fill-opacity:1">0.8</tspan></text>
  <path
     stroke="#000000"
     d="m 72.53,282.16 h 9"
     id="path12"
     style="color:#000000;fill:none;stroke-width:1;stroke-linecap:butt;stroke-linejoin:miter;stroke:#ffffff;stroke-opacity:1" />
  <text
     id="text12"
     style="color:#000000;font-size:12px;font-family:Helvetica;text-anchor:end;fill:#f1f1f1;stroke:none;stroke-width:1;stroke-linecap:butt;stroke-linejoin:miter;fill-opacity:1"
     x="64.139999"
     y="286.06"><tspan
       font-family="Helvetica"
       id="tspan12"
       style="fill:#f1f1f1;fill-opacity:1">1</tspan></text>
  <path
     stroke="#000000"
     d="m 72.53,206.11 h 9"
     id="path14"
     style="color:#000000;fill:none;stroke-width:1;stroke-linecap:butt;stroke-linejoin:miter;stroke:#ffffff;stroke-opacity:1" />
  <text
     id="text14"
     style="color:#000000;font-size:12px;font-family:Helvetica;text-anchor:end;fill:#f1f1f1;stroke:none;stroke-width:1;stroke-linecap:butt;stroke-linejoin:miter;fill-opacity:1"
     x="64.139999"
     y="210.00999"><tspan
       font-family="Helvetica"
       id="tspan14"
       style="fill:#f1f1f1;fill-opacity:1">1.2</tspan></text>
  <path
     stroke="#000000"
     d="m 72.53,130.06 h 9"
     id="path16"
     style="color:#000000;fill:none;stroke-width:1;stroke-linecap:butt;stroke-linejoin:miter;stroke:#ffffff;stroke-opacity:1" />
  <text
     id="text16"
     style="color:#000000;font-size:12px;font-family:Helvetica;text-anchor:end;fill:#f1f1f1;stroke:none;stroke-width:1;stroke-linecap:butt;stroke-linejoin:miter;fill-opacity:1"
     x="64.139999"
     y="133.96001"><tspan
       font-family="Helvetica"
       id="tspan16"
       style="fill:#f1f1f1;fill-opacity:1">1.4</tspan></text>
  <path
     stroke="#000000"
     d="m 72.53,54.01 h 9"
     id="path18"
     style="color:#000000;fill:none;stroke-width:1;stroke-linecap:butt;stroke-linejoin:miter;stroke:#ffffff;stroke-opacity:1" />
  <text
     id="text18"
     style="color:#000000;font-size:12px;font-family:Helvetica;text-anchor:end;fill:#f1f1f1;stroke:none;stroke-width:1;stroke-linecap:butt;stroke-linejoin:miter;fill-opacity:1"
     x="64.139999"
     y="57.91"><tspan
       font-family="Helvetica"
       id="tspan18"
       style="fill:#f1f1f1;fill-opacity:1">1.6</tspan></text>
  <path
     stroke="#000000"
     d="m 72.53,662.4 v -9"
     id="path20"
     style="color:#000000;fill:none;stroke-width:1;stroke-linecap:butt;stroke-linejoin:miter;stroke:#ffffff;stroke-opacity:1" />
  <text
     id="text20"
     style="color:#000000;font-size:12px;font-family:Helvetica;text-anchor:middle;fill:#f1f1f1;stroke:none;stroke-width:1;stroke-linecap:butt;stroke-linejoin:miter;fill-opacity:1"
     x="72.529999"
     y="684.29999"><tspan
       font-family="Helvetica"
       id="tspan20"
       style="fill:#f1f1f1;fill-opacity:1">7</tspan></text>
  <path
     stroke="#000000"
     d="m 167.75,662.4 v -9"
     id="path22"
     style="color:#000000;fill:none;stroke-width:1;stroke-linecap:butt;stroke-linejoin:miter;stroke:#ffffff;stroke-opacity:1" />
  <text
     id="text22"
     style="color:#000000;font-size:12px;font-family:Helvetica;text-anchor:middle;fill:#f1f1f1;stroke:none;stroke-width:1;stroke-linecap:butt;stroke-linejoin:miter;fill-opacity:1"
     x="167.75"
     y="684.29999"><tspan
       font-family="Helvetica"
       id="tspan22"
       style="fill:#f1f1f1;fill-opacity:1">8</tspan></text>
  <path
     stroke="#000000"
     d="m 262.97,662.4 v -9"
     id="path24"
     style="color:#000000;fill:none;stroke-width:1;stroke-linecap:butt;stroke-linejoin:miter;stroke:#ffffff;stroke-opacity:1" />
  <text
     id="text24"
     style="color:#000000;font-size:12px;font-family:Helvetica;text-anchor:middle;fill:#f1f1f1;stroke:none;stroke-width:1;stroke-linecap:butt;stroke-linejoin:miter;fill-opacity:1"
     x="262.97"
     y="684.29999"><tspan
       font-family="Helvetica"
       id="tspan24"
       style="fill:#f1f1f1;fill-opacity:1">9</tspan></text>
  <path
     stroke="#000000"
     d="m 358.2,662.4 v -9"
     id="path26"
     style="color:#000000;fill:none;stroke-width:1;stroke-linecap:butt;stroke-linejoin:miter;stroke:#ffffff;stroke-opacity:1" />
  <text
     id="text26"
     style="color:#000000;font-size:12px;font-family:Helvetica;text-anchor:middle;fill:#f1f1f1;stroke:none;stroke-width:1;stroke-linecap:butt;stroke-linejoin:miter;fill-opacity:1"
     x="358.20001"
     y="684.29999"><tspan
       font-family="Helvetica"
       id="tspan26"
       style="fill:#f1f1f1;fill-opacity:1">10</tspan></text>
  <path
     stroke="#000000"
     d="m 453.42,662.4 v -9"
     id="path28"
     style="color:#000000;fill:none;stroke-width:1;stroke-linecap:butt;stroke-linejoin:miter;stroke:#ffffff;stroke-opacity:1" />
  <text
     id="text28"
     style="color:#000000;font-size:12px;font-family:Helvetica;text-anchor:middle;fill:#f1f1f1;stroke:none;stroke-width:1;stroke-linecap:butt;stroke-linejoin:miter;fill-opacity:1"
     x="453.42001"
     y="684.29999"><tspan
       font-family="Helvetica"
       id="tspan28"
       style="fill:#f1f1f1;fill-opacity:1">11</tspan></text>
  <path
     stroke="#000000"
     d="m 548.64,662.4 v -9"
     id="path30"
     style="color:#000000;fill:none;stroke-width:1;stroke-linecap:butt;stroke-linejoin:miter;stroke:#ffffff;stroke-opacity:1" />
  <text
     id="text30"
     style="color:#000000;font-size:12px;font-family:Helvetica;text-anchor:middle;fill:#f1f1f1;stroke:none;stroke-width:1;stroke-linecap:butt;stroke-linejoin:miter;fill-opacity:1"
     x="548.64001"
     y="684.29999"><tspan
       font-family="Helvetica"
       id="tspan30"
       style="fill:#f1f1f1;fill-opacity:1">12</tspan></text>
  <path
     stroke="#000000"
     d="m 643.86,662.4 v -9"
     id="path32"
     style="color:#000000;fill:none;stroke-width:1;stroke-linecap:butt;stroke-linejoin:miter;stroke:#ffffff;stroke-opacity:1" />
  <text
     id="text32"
     style="color:#000000;font-size:12px;font-family:Helvetica;text-anchor:middle;fill:#f1f1f1;stroke:none;stroke-width:1;stroke-linecap:butt;stroke-linejoin:miter;fill-opacity:1"
     x="643.85999"
     y="684.29999"><tspan
       font-family="Helvetica"
       id="tspan32"
       style="fill:#f1f1f1;fill-opacity:1">13</tspan></text>
  <path
     stroke="#000000"
     d="m 739.08,662.4 v -9"
     id="path34"
     style="color:#000000;fill:none;stroke-width:1;stroke-linecap:butt;stroke-linejoin:miter;stroke:#ffffff;stroke-opacity:1" />
  <text
     id="text34"
     style="color:#000000;font-size:12px;font-family:Helvetica;text-anchor:middle;fill:#f1f1f1;stroke:none;stroke-width:1;stroke-linecap:butt;stroke-linejoin:miter;fill-opacity:1"
     x="739.08002"
     y="684.29999"><tspan
       font-family="Helvetica"
       id="tspan34"
       style="fill:#f1f1f1;fill-opacity:1">14</tspan></text>
  <path
     stroke="#000000"
     d="m 834.3,662.4 v -9"
     id="path36"
     style="color:#000000;fill:none;stroke-width:1;stroke-linecap:butt;stroke-linejoin:miter;stroke:#ffffff;stroke-opacity:1" />
  <text
     id="text36"
     style="color:#000000;font-size:12px;font-family:Helvetica;text-anchor:middle;fill:#f1f1f1;stroke:none;stroke-width:1;stroke-linecap:butt;stroke-linejoin:miter;fill-opacity:1"
     x="834.29999"
     y="684.29999"><tspan
       font-family="Helvetica"
       id="tspan36"
       style="fill:#f1f1f1;fill-opacity:1">15</tspan></text>
  <path
     stroke="#000000"
     d="m 929.53,662.4 v -9"
     id="path38"
     style="color:#000000;fill:none;stroke-width:1;stroke-linecap:butt;stroke-linejoin:miter;stroke:#ffffff;stroke-opacity:1" />
  <text
     id="text38"
     style="color:#000000;font-size:12px;font-family:Helvetica;text-anchor:middle;fill:#f1f1f1;stroke:none;stroke-width:1;stroke-linecap:butt;stroke-linejoin:miter;fill-opacity:1"
     x="929.53003"
     y="684.29999"><tspan
       font-family="Helvetica"
       id="tspan38"
       style="fill:#f1f1f1;fill-opacity:1">16</tspan></text>
  <path
     stroke="#000000"
     d="m 1024.75,662.4 v -9"
     id="path40"
     style="color:#000000;fill:none;stroke-width:1;stroke-linecap:butt;stroke-linejoin:miter;stroke:#ffffff;stroke-opacity:1" />
  <text
     id="text40"
     style="color:#000000;font-size:12px;font-family:Helvetica;text-anchor:middle;fill:#f1f1f1;stroke:none;stroke-width:1;stroke-linecap:butt;stroke-linejoin:miter;fill-opacity:1"
     x="1024.75"
     y="684.29999"><tspan
       font-family="Helvetica"
       id="tspan40"
       style="fill:#f1f1f1;fill-opacity:1">17</tspan></text>
  <path
     stroke="#000000"
     d="m 1119.97,662.4 v -9"
     id="path42"
     style="color:#000000;fill:none;stroke-width:1;stroke-linecap:butt;stroke-linejoin:miter;stroke:#ffffff;stroke-opacity:1" />
  <text
     id="text42"
     style="color:#000000;font-size:12px;font-family:Helvetica;text-anchor:middle;fill:#f1f1f1;stroke:none;stroke-width:1;stroke-linecap:butt;stroke-linejoin:miter;fill-opacity:1"
     x="1119.97"
     y="684.29999"><tspan
       font-family="Helvetica"
       id="tspan42"
       style="fill:#f1f1f1;fill-opacity:1">18</tspan></text>
  <path
     stroke="#000000"
     d="M 72.53,54.01 V 662.4 H 1119.97 V 54.01 Z"
     id="path45"
     style="color:#000000;fill:none;stroke-width:1;stroke-linecap:butt;stroke-linejoin:miter" />
  <polygon
     fill="#e31a1c"
     fill-opacity="0.5"
     points="162.2,658.26 163.11,657.82 164.01,657.35 164.92,656.83 165.83,656.27 166.74,655.66 167.65,654.99 168.56,654.27 169.47,653.49 170.37,652.64 171.28,651.73 172.19,650.74 173.1,649.67 174.01,648.52 174.92,647.29 175.83,645.96 176.73,644.53 177.64,643.01 178.55,641.37 179.46,639.62 180.37,637.75 181.28,635.76 182.19,633.64 183.1,631.38 184,628.99 184.91,626.44 185.82,623.75 186.73,620.89 187.64,617.88 188.55,614.7 189.46,611.34 190.36,607.81 191.27,604.1 192.18,600.2 193.09,596.11 194,591.83 194.91,587.36 195.82,582.69 196.72,577.82 197.63,572.75 198.54,567.47 199.45,562 200.36,556.32 201.27,550.45 202.18,544.37 203.08,538.1 203.99,531.63 204.9,524.98 205.81,518.14 206.72,511.13 207.63,503.95 208.54,496.6 209.44,489.09 210.35,481.44 211.26,473.65 212.17,465.74 213.08,457.72 213.99,449.59 214.9,441.38 215.8,433.09 216.71,424.75 217.62,416.36 218.53,407.95 219.44,399.53 220.35,391.11 221.26,382.72 222.16,374.38 223.07,366.1 223.98,357.9 224.89,349.8 225.8,341.83 226.71,333.99 227.62,326.31 228.52,318.81 229.43,311.51 230.34,304.43 231.25,297.58 232.16,290.99 233.07,284.66 233.98,278.63 234.89,272.9 235.79,267.48 236.7,262.4 237.61,257.67 238.52,253.3 239.43,249.3 240.34,245.68 241.25,242.46 242.15,239.63 243.06,237.22 243.97,235.21 244.88,233.62 245.79,232.45 246.7,231.7 247.61,231.38 248.51,231.47 249.42,231.99 250.33,232.92 251.24,234.26 252.15,236.01 253.06,238.15 253.97,240.68 254.87,243.6 255.78,246.88 256.69,250.52 257.6,254.5 258.51,258.82 259.42,263.45 260.33,268.39 261.23,273.62 262.14,279.11 263.05,284.86 263.96,290.85 264.87,297.06 265.78,303.48 266.69,310.08 267.59,316.84 268.5,323.76 269.41,330.81 270.32,337.98 271.23,345.24 272.14,352.58 273.05,359.98 273.95,367.43 274.86,374.92 275.77,382.41 276.68,389.91 277.59,397.4 278.5,404.85 279.41,412.27 280.31,419.63 281.22,426.92 282.13,434.14 283.04,441.28 283.95,448.31 284.86,455.25 285.77,462.06 286.67,468.76 287.58,475.33 288.49,481.77 289.4,488.06 290.31,494.22 291.22,500.22 292.13,506.08 293.04,511.78 293.94,517.32 294.85,522.71 295.76,527.94 296.67,533.01 297.58,537.92 298.49,542.67 299.4,547.26 300.3,551.7 301.21,555.98 302.12,560.11 303.03,564.09 303.94,567.92 304.85,571.6 305.76,575.14 306.66,578.54 307.57,581.8 308.48,584.93 309.39,587.93 310.3,590.8 311.21,593.55 312.12,596.18 313.02,598.7 313.93,601.1 314.84,603.4 315.75,605.59 316.66,607.68 317.57,609.68 318.48,611.58 319.38,613.39 320.29,615.11 321.2,616.75 322.11,618.31 323.02,619.79 323.93,621.2 324.84,622.54 325.74,623.81 326.65,625.02 327.56,626.16 328.47,627.24 329.38,628.27 330.29,629.24 331.2,630.15 332.1,631.02 333.01,631.84 333.92,632.61 334.83,633.34 335.74,634.03 336.65,634.67 337.56,635.28 338.46,635.84 339.37,636.38 340.28,636.87 341.19,637.34 342.1,637.77 343.01,638.17 343.92,638.55 344.82,638.89 345.73,639.21 346.64,639.51 347.55,639.78 348.46,640.03 349.37,640.25 350.28,640.46 351.19,640.64 352.09,640.81 353,640.96 353.91,641.09 354.82,641.2 355.73,641.31 356.64,641.39 357.55,641.47 358.45,641.53 359.36,641.58 360.27,641.62 361.18,641.66 362.09,641.68 363,641.7 363.91,641.71 364.81,641.72 365.72,641.72 366.63,641.71 367.54,641.71 368.45,641.7 369.36,641.69 370.27,641.68 371.17,641.67 372.08,641.66 372.99,641.66 373.9,641.65 374.81,641.65 375.72,641.66 376.63,641.66 377.53,641.68 378.44,641.69 379.35,641.72 380.26,641.75 381.17,641.79 382.08,641.83 382.99,641.88 383.89,641.94 384.8,642.01 385.71,642.09 386.62,642.18 387.53,642.27 388.44,642.38 389.35,642.49 390.25,642.62 391.16,642.75 392.07,642.89 392.98,643.04 393.89,643.21 394.8,643.38 395.71,643.56 396.61,643.75 397.52,643.94 398.43,644.15 399.34,644.36 400.25,644.59 401.16,644.82 402.07,645.05 402.97,645.3 403.88,645.55 404.79,645.81 405.7,646.07 406.61,646.34 407.52,646.61 408.43,646.89 409.34,647.17 410.24,647.46 411.15,647.75 412.06,648.04 412.97,648.34 413.88,648.63 414.79,648.93 415.7,649.23 416.6,649.53 417.51,649.83 418.42,650.13 419.33,650.43 420.24,650.72 421.15,651.01 422.06,651.3 422.96,651.59 423.87,651.88 424.78,652.16 425.69,652.43 426.6,652.7 427.51,652.96 428.42,653.22 429.32,653.47 430.23,653.72 431.14,653.96 432.05,654.19 432.96,654.41 433.87,654.62 434.78,654.82 435.68,655.01 436.59,655.2 437.5,655.37 438.41,655.53 439.32,655.68 440.23,655.82 441.14,655.95 442.04,656.06 442.95,656.16 443.86,656.25 444.77,656.32 445.68,656.39 446.59,656.43 447.5,656.47 448.4,656.48 449.31,656.49 450.22,656.48 451.13,656.45 452.04,656.41 452.95,656.35 453.86,656.28 454.76,656.19 455.67,656.08 456.58,655.96 457.49,655.83 458.4,655.68 459.31,655.51 460.22,655.33 461.12,655.13 462.03,654.92 462.94,654.69 463.85,654.44 464.76,654.19 465.67,653.91 466.58,653.63 467.49,653.33 468.39,653.02 469.3,652.69 470.21,652.35 471.12,652.01 472.03,651.65 472.94,651.28 473.85,650.9 474.75,650.51 475.66,650.12 476.57,649.72 477.48,649.31 478.39,648.89 479.3,648.47 480.21,648.05 481.11,647.62 482.02,647.2 482.93,646.77 483.84,646.34 484.75,645.91 485.66,645.49 486.57,645.06 487.47,644.64 488.38,644.23 489.29,643.82 490.2,643.42 491.11,643.03 492.02,642.65 492.93,642.28 493.83,641.92 494.74,641.57 495.65,641.23 496.56,640.91 497.47,640.6 498.38,640.31 499.29,640.04 500.19,639.78 501.1,639.54 502.01,639.32 502.92,639.11 503.83,638.93 504.74,638.77 505.65,638.62 506.55,638.5 507.46,638.4 508.37,638.32 509.28,638.26 510.19,638.22 511.1,638.21 512.01,638.22 512.91,638.25 513.82,638.3 514.73,638.37 515.64,638.46 516.55,638.58 517.46,638.71 518.37,638.87 519.27,639.04 520.18,639.24 521.09,639.45 522,639.69 522.91,639.94 523.82,640.2 524.73,640.49 525.64,640.79 526.54,641.1 527.45,641.43 528.36,641.77 529.27,642.13 530.18,642.5 531.09,642.87 532,643.26 532.9,643.66 533.81,644.06 534.72,644.48 535.63,644.9 536.54,645.32 537.45,645.75 538.36,646.18 539.26,646.62 540.17,647.06 541.08,647.5 541.99,647.94 542.9,648.38 543.81,648.82 544.72,649.26 545.62,649.69 546.53,650.12 547.44,650.55 548.35,650.97 549.26,651.39 550.17,651.81 551.08,652.21 551.98,652.61 552.89,653.01 553.8,653.39 554.71,653.77 555.62,654.14 556.53,654.5 557.44,654.86 558.34,655.2 559.25,655.54 560.16,655.86 561.07,656.18 561.98,656.48 562.89,656.78 563.8,657.07 564.7,657.35 565.61,657.61 566.52,657.87 567.43,658.12 568.34,658.36 569.25,658.59 570.16,658.8 571.06,659.01 571.97,659.22 572.88,659.41 573.79,659.59 574.7,659.77 575.61,659.93 576.52,660.09 577.43,660.24 578.33,660.38 579.24,660.52 580.15,660.64 581.06,660.76 581.97,660.88 582.88,660.99 583.79,661.09 584.69,661.18 585.6,661.27 586.51,661.36 587.42,661.43 588.33,661.51 589.24,661.58 590.15,661.64 591.05,661.7 591.96,661.76 592.87,661.81 593.78,661.86 594.69,661.9 595.6,661.94 596.51,661.98 597.41,662.02 598.32,662.05 599.23,662.08 600.14,662.11 601.05,662.14 601.96,662.16 602.87,662.18 603.77,662.2 604.68,662.22 605.59,662.24 606.5,662.25 607.41,662.27 608.32,662.28 608.32,662.4 607.41,662.4 606.5,662.4 605.59,662.4 604.68,662.4 603.77,662.4 602.87,662.4 601.96,662.4 601.05,662.4 600.14,662.4 599.23,662.4 598.32,662.4 597.41,662.4 596.51,662.4 595.6,662.4 594.69,662.4 593.78,662.4 592.87,662.4 591.96,662.4 591.05,662.4 590.15,662.4 589.24,662.4 588.33,662.4 587.42,662.4 586.51,662.4 585.6,662.4 584.69,662.4 583.79,662.4 582.88,662.4 581.97,662.4 581.06,662.4 580.15,662.4 579.24,662.4 578.33,662.4 577.43,662.4 576.52,662.4 575.61,662.4 574.7,662.4 573.79,662.4 572.88,662.4 571.97,662.4 571.06,662.4 570.16,662.4 569.25,662.4 568.34,662.4 567.43,662.4 566.52,662.4 565.61,662.4 564.7,662.4 563.8,662.4 562.89,662.4 561.98,662.4 561.07,662.4 560.16,662.4 559.25,662.4 558.34,662.4 557.44,662.4 556.53,662.4 555.62,662.4 554.71,662.4 553.8,662.4 552.89,662.4 551.98,662.4 551.08,662.4 550.17,662.4 549.26,662.4 548.35,662.4 547.44,662.4 546.53,662.4 545.62,662.4 544.72,662.4 543.81,662.4 542.9,662.4 541.99,662.4 541.08,662.4 540.17,662.4 539.26,662.4 538.36,662.4 537.45,662.4 536.54,662.4 535.63,662.4 534.72,662.4 533.81,662.4 532.9,662.4 532,662.4 531.09,662.4 530.18,662.4 529.27,662.4 528.36,662.4 527.45,662.4 526.54,662.4 525.64,662.4 524.73,662.4 523.82,662.4 522.91,662.4 522,662.4 521.09,662.4 520.18,662.4 519.27,662.4 518.37,662.4 517.46,662.4 516.55,662.4 515.64,662.4 514.73,662.4 513.82,662.4 512.91,662.4 512.01,662.4 511.1,662.4 510.19,662.4 509.28,662.4 508.37,662.4 507.46,662.4 506.55,662.4 505.65,662.4 504.74,662.4 503.83,662.4 502.92,662.4 502.01,662.4 501.1,662.4 500.19,662.4 499.29,662.4 498.38,662.4 497.47,662.4 496.56,662.4 495.65,662.4 494.74,662.4 493.83,662.4 492.93,662.4 492.02,662.4 491.11,662.4 490.2,662.4 489.29,662.4 488.38,662.4 487.47,662.4 486.57,662.4 485.66,662.4 484.75,662.4 483.84,662.4 482.93,662.4 482.02,662.4 481.11,662.4 480.21,662.4 479.3,662.4 478.39,662.4 477.48,662.4 476.57,662.4 475.66,662.4 474.75,662.4 473.85,662.4 472.94,662.4 472.03,662.4 471.12,662.4 470.21,662.4 469.3,662.4 468.39,662.4 467.49,662.4 466.58,662.4 465.67,662.4 464.76,662.4 463.85,662.4 462.94,662.4 462.03,662.4 461.12,662.4 460.22,662.4 459.31,662.4 458.4,662.4 457.49,662.4 456.58,662.4 455.67,662.4 454.76,662.4 453.86,662.4 452.95,662.4 452.04,662.4 451.13,662.4 450.22,662.4 449.31,662.4 448.4,662.4 447.5,662.4 446.59,662.4 445.68,662.4 444.77,662.4 443.86,662.4 442.95,662.4 442.04,662.4 441.14,662.4 440.23,662.4 439.32,662.4 438.41,662.4 437.5,662.4 436.59,662.4 435.68,662.4 434.78,662.4 433.87,662.4 432.96,662.4 432.05,662.4 431.14,662.4 430.23,662.4 429.32,662.4 428.42,662.4 427.51,662.4 426.6,662.4 425.69,662.4 424.78,662.4 423.87,662.4 422.96,662.4 422.06,662.4 421.15,662.4 420.24,662.4 419.33,662.4 418.42,662.4 417.51,662.4 416.6,662.4 415.7,662.4 414.79,662.4 413.88,662.4 412.97,662.4 412.06,662.4 411.15,662.4 410.24,662.4 409.34,662.4 408.43,662.4 407.52,662.4 406.61,662.4 405.7,662.4 404.79,662.4 403.88,662.4 402.97,662.4 402.07,662.4 401.16,662.4 400.25,662.4 399.34,662.4 398.43,662.4 397.52,662.4 396.61,662.4 395.71,662.4 394.8,662.4 393.89,662.4 392.98,662.4 392.07,662.4 391.16,662.4 390.25,662.4 389.35,662.4 388.44,662.4 387.53,662.4 386.62,662.4 385.71,662.4 384.8,662.4 383.89,662.4 382.99,662.4 382.08,662.4 381.17,662.4 380.26,662.4 379.35,662.4 378.44,662.4 377.53,662.4 376.63,662.4 375.72,662.4 374.81,662.4 373.9,662.4 372.99,662.4 372.08,662.4 371.17,662.4 370.27,662.4 369.36,662.4 368.45,662.4 367.54,662.4 366.63,662.4 365.72,662.4 364.81,662.4 363.91,662.4 363,662.4 362.09,662.4 361.18,662.4 360.27,662.4 359.36,662.4 358.45,662.4 357.55,662.4 356.64,662.4 355.73,662.4 354.82,662.4 353.91,662.4 353,662.4 352.09,662.4 351.19,662.4 350.28,662.4 349.37,662.4 348.46,662.4 347.55,662.4 346.64,662.4 345.73,662.4 344.82,662.4 343.92,662.4 343.01,662.4 342.1,662.4 341.19,662.4 340.28,662.4 339.37,662.4 338.46,662.4 337.56,662.4 336.65,662.4 335.74,662.4 334.83,662.4 333.92,662.4 333.01,662.4 332.1,662.4 331.2,662.4 330.29,662.4 329.38,662.4 328.47,662.4 327.56,662.4 326.65,662.4 325.74,662.4 324.84,662.4 323.93,662.4 323.02,662.4 322.11,662.4 321.2,662.4 320.29,662.4 319.38,662.4 318.48,662.4 317.57,662.4 316.66,662.4 315.75,662.4 314.84,662.4 313.93,662.4 313.02,662.4 312.12,662.4 311.21,662.4 310.3,662.4 309.39,662.4 308.48,662.4 307.57,662.4 306.66,662.4 305.76,662.4 304.85,662.4 303.94,662.4 303.03,662.4 302.12,662.4 301.21,662.4 300.3,662.4 299.4,662.4 298.49,662.4 297.58,662.4 296.67,662.4 295.76,662.4 294.85,662.4 293.94,662.4 293.04,662.4 292.13,662.4 291.22,662.4 290.31,662.4 289.4,662.4 288.49,662.4 287.58,662.4 286.67,662.4 285.77,662.4 284.86,662.4 283.95,662.4 283.04,662.4 282.13,662.4 281.22,662.4 280.31,662.4 279.41,662.4 278.5,662.4 277.59,662.4 276.68,662.4 275.77,662.4 274.86,662.4 273.95,662.4 273.05,662.4 272.14,662.4 271.23,662.4 270.32,662.4 269.41,662.4 268.5,662.4 267.59,662.4 266.69,662.4 265.78,662.4 264.87,662.4 263.96,662.4 263.05,662.4 262.14,662.4 261.23,662.4 260.33,662.4 259.42,662.4 258.51,662.4 257.6,662.4 256.69,662.4 255.78,662.4 254.87,662.4 253.97,662.4 253.06,662.4 252.15,662.4 251.24,662.4 250.33,662.4 249.42,662.4 248.51,662.4 247.61,662.4 246.7,662.4 245.79,662.4 244.88,662.4 243.97,662.4 243.06,662.4 242.15,662.4 241.25,662.4 240.34,662.4 239.43,662.4 238.52,662.4 237.61,662.4 236.7,662.4 235.79,662.4 234.89,662.4 233.98,662.4 233.07,662.4 232.16,662.4 231.25,662.4 230.34,662.4 229.43,662.4 228.52,662.4 227.62,662.4 226.71,662.4 225.8,662.4 224.89,662.4 223.98,662.4 223.07,662.4 222.16,662.4 221.26,662.4 220.35,662.4 219.44,662.4 218.53,662.4 217.62,662.4 216.71,662.4 215.8,662.4 214.9,662.4 213.99,662.4 213.08,662.4 212.17,662.4 211.26,662.4 210.35,662.4 209.44,662.4 208.54,662.4 207.63,662.4 206.72,662.4 205.81,662.4 204.9,662.4 203.99,662.4 203.08,662.4 202.18,662.4 201.27,662.4 200.36,662.4 199.45,662.4 198.54,662.4 197.63,662.4 196.72,662.4 195.82,662.4 194.91,662.4 194,662.4 193.09,662.4 192.18,662.4 191.27,662.4 190.36,662.4 189.46,662.4 188.55,662.4 187.64,662.4 186.73,662.4 185.82,662.4 184.91,662.4 184,662.4 183.1,662.4 182.19,662.4 181.28,662.4 180.37,662.4 179.46,662.4 178.55,662.4 177.64,662.4 176.73,662.4 175.83,662.4 174.92,662.4 174.01,662.4 173.1,662.4 172.19,662.4 171.28,662.4 170.37,662.4 169.47,662.4 168.56,662.4 167.65,662.4 166.74,662.4 165.83,662.4 164.92,662.4 164.01,662.4 163.11,662.4 162.2,662.4 161.29,662.4 160.38,662.4 159.47,662.4 158.56,662.4 157.65,662.4 156.75,662.4 155.84,662.4 154.93,662.4 154.93,660.6 155.84,660.4 156.75,660.17 157.65,659.92 158.56,659.65 159.47,659.35 160.38,659.01 161.29,658.65 "
     id="polygon50"
     style="color:#000000;stroke:none;stroke-width:1;stroke-linecap:butt;stroke-linejoin:miter;shape-rendering:crispEdges" />
  <polygon
     fill="#1f78b4"
     fill-opacity="0.5"
     points="671.67,661.36 672.55,661.2 673.43,661.02 674.32,660.82 675.2,660.59 676.08,660.33 676.97,660.04 677.85,659.71 678.73,659.34 679.61,658.93 680.5,658.46 681.38,657.94 682.26,657.36 683.15,656.71 684.03,655.98 684.91,655.18 685.8,654.29 686.68,653.3 687.56,652.21 688.45,651 689.33,649.67 690.21,648.21 691.09,646.61 691.98,644.85 692.86,642.93 693.74,640.83 694.63,638.55 695.51,636.06 696.39,633.35 697.28,630.42 698.16,627.25 699.04,623.83 699.92,620.14 700.81,616.17 701.69,611.91 702.57,607.34 703.46,602.45 704.34,597.23 705.22,591.66 706.11,585.75 706.99,579.46 707.87,572.81 708.75,565.78 709.64,558.35 710.52,550.54 711.4,542.32 712.29,533.71 713.17,524.7 714.05,515.29 714.94,505.48 715.82,495.29 716.7,484.72 717.58,473.77 718.47,462.47 719.35,450.83 720.23,438.86 721.12,426.59 722,414.04 722.88,401.23 723.77,388.2 724.65,374.97 725.53,361.58 726.42,348.06 727.3,334.46 728.18,320.8 729.06,307.14 729.95,293.52 730.83,279.97 731.71,266.55 732.6,253.31 733.48,240.29 734.36,227.54 735.25,215.12 736.13,203.05 737.01,191.41 737.89,180.22 738.78,169.54 739.66,159.42 740.54,149.89 741.43,140.99 742.31,132.77 743.19,125.26 744.08,118.49 744.96,112.49 745.84,107.28 746.72,102.9 747.61,99.35 748.49,96.65 749.37,94.82 750.26,93.85 751.14,93.76 752.02,94.54 752.91,96.18 753.79,98.68 754.67,102.02 755.55,106.18 756.44,111.14 757.32,116.87 758.2,123.35 759.09,130.55 759.97,138.43 760.85,146.95 761.74,156.07 762.62,165.76 763.5,175.96 764.39,186.64 765.27,197.74 766.15,209.22 767.03,221.04 767.92,233.13 768.8,245.47 769.68,257.99 770.57,270.66 771.45,283.42 772.33,296.24 773.22,309.06 774.1,321.85 774.98,334.58 775.86,347.19 776.75,359.66 777.63,371.95 778.51,384.03 779.4,395.88 780.28,407.46 781.16,418.76 782.05,429.76 782.93,440.43 783.81,450.76 784.69,460.74 785.58,470.36 786.46,479.62 787.34,488.49 788.23,496.99 789.11,505.1 789.99,512.84 790.88,520.19 791.76,527.18 792.64,533.79 793.52,540.05 794.41,545.95 795.29,551.5 796.17,556.73 797.06,561.63 797.94,566.22 798.82,570.51 799.71,574.51 800.59,578.25 801.47,581.72 802.35,584.95 803.24,587.95 804.12,590.73 805,593.3 805.89,595.69 806.77,597.89 807.65,599.93 808.54,601.82 809.42,603.56 810.3,605.17 811.19,606.66 812.07,608.04 812.95,609.32 813.83,610.51 814.72,611.62 815.6,612.65 816.48,613.62 817.37,614.52 818.25,615.38 819.13,616.19 820.02,616.95 820.9,617.68 821.78,618.38 822.66,619.06 823.55,619.71 824.43,620.34 825.31,620.95 826.2,621.55 827.08,622.15 827.96,622.73 828.85,623.31 829.73,623.88 830.61,624.45 831.49,625.02 832.38,625.59 833.26,626.16 834.14,626.73 835.03,627.3 835.91,627.88 836.79,628.46 837.68,629.04 838.56,629.63 839.44,630.22 840.32,630.81 841.21,631.4 842.09,632 842.97,632.6 843.86,633.2 844.74,633.8 845.62,634.4 846.51,635 847.39,635.6 848.27,636.2 849.16,636.79 850.04,637.38 850.92,637.97 851.8,638.55 852.69,639.12 853.57,639.69 854.45,640.25 855.34,640.8 856.22,641.34 857.1,641.87 857.99,642.39 858.87,642.89 859.75,643.39 860.63,643.87 861.52,644.34 862.4,644.79 863.28,645.23 864.17,645.65 865.05,646.06 865.93,646.46 866.82,646.84 867.7,647.2 868.58,647.55 869.46,647.89 870.35,648.21 871.23,648.52 872.11,648.81 873,649.09 873.88,649.36 874.76,649.61 875.65,649.85 876.53,650.08 877.41,650.3 878.29,650.51 879.18,650.7 880.06,650.89 880.94,651.07 881.83,651.24 882.71,651.4 883.59,651.55 884.48,651.69 885.36,651.83 886.24,651.96 887.13,652.08 888.01,652.2 888.89,652.31 889.77,652.42 890.66,652.52 891.54,652.61 892.42,652.7 893.31,652.78 894.19,652.86 895.07,652.93 895.96,653 896.84,653.06 897.72,653.12 898.6,653.17 899.49,653.23 900.37,653.27 901.25,653.31 902.14,653.35 903.02,653.39 903.9,653.42 904.79,653.46 905.67,653.48 906.55,653.51 907.43,653.54 908.32,653.56 909.2,653.59 910.08,653.61 910.97,653.64 911.85,653.67 912.73,653.7 913.62,653.73 914.5,653.77 915.38,653.8 916.26,653.85 917.15,653.89 918.03,653.95 918.91,654 919.8,654.07 920.68,654.14 921.56,654.21 922.45,654.29 923.33,654.38 924.21,654.48 925.1,654.58 925.98,654.7 926.86,654.81 927.74,654.94 928.63,655.07 929.51,655.21 930.39,655.36 931.28,655.51 932.16,655.67 933.04,655.84 933.93,656.01 934.81,656.18 935.69,656.36 936.57,656.54 937.46,656.73 938.34,656.92 939.22,657.11 940.11,657.3 940.99,657.49 941.87,657.69 942.76,657.88 943.64,658.07 944.52,658.27 945.4,658.46 946.29,658.64 947.17,658.83 948.05,659.01 948.94,659.19 949.82,659.36 950.7,659.53 951.59,659.69 952.47,659.85 953.35,660.01 954.23,660.15 955.12,660.3 956,660.43 956.88,660.56 957.77,660.69 958.65,660.81 959.53,660.92 960.42,661.02 961.3,661.12 962.18,661.22 963.06,661.31 963.95,661.39 964.83,661.46 965.71,661.53 966.6,661.6 967.48,661.66 968.36,661.71 969.25,661.76 970.13,661.8 971.01,661.84 971.9,661.87 972.78,661.89 973.66,661.92 974.54,661.93 975.43,661.94 976.31,661.95 977.19,661.95 978.08,661.95 978.96,661.94 979.84,661.92 980.73,661.9 981.61,661.87 982.49,661.84 983.37,661.8 984.26,661.76 985.14,661.71 986.02,661.65 986.91,661.59 987.79,661.52 988.67,661.44 989.56,661.35 990.44,661.26 991.32,661.16 992.2,661.05 993.09,660.93 993.97,660.8 994.85,660.66 995.74,660.51 996.62,660.35 997.5,660.18 998.39,660.01 999.27,659.82 1000.15,659.62 1001.03,659.41 1001.92,659.19 1002.8,658.96 1003.68,658.72 1004.57,658.47 1005.45,658.21 1006.33,657.94 1007.22,657.66 1008.1,657.37 1008.98,657.07 1009.87,656.76 1010.75,656.45 1011.63,656.13 1012.51,655.81 1013.4,655.48 1014.28,655.14 1015.16,654.8 1016.05,654.46 1016.93,654.12 1017.81,653.78 1018.7,653.45 1019.58,653.11 1020.46,652.78 1021.34,652.45 1022.23,652.13 1023.11,651.82 1023.99,651.51 1024.88,651.22 1025.76,650.94 1026.64,650.67 1027.53,650.42 1028.41,650.18 1029.29,649.96 1030.17,649.75 1031.06,649.57 1031.94,649.4 1032.82,649.26 1033.71,649.13 1034.59,649.03 1035.47,648.95 1036.36,648.89 1037.24,648.86 1038.12,648.85 1039,648.86 1039.89,648.89 1040.77,648.95 1041.65,649.03 1042.54,649.13 1043.42,649.26 1044.3,649.4 1045.19,649.57 1046.07,649.76 1046.95,649.96 1047.84,650.18 1048.72,650.42 1049.6,650.68 1050.48,650.94 1051.37,651.23 1052.25,651.52 1053.13,651.82 1054.02,652.13 1054.9,652.46 1055.78,652.78 1056.67,653.11 1057.55,653.45 1058.43,653.79 1059.31,654.13 1060.2,654.47 1061.08,654.81 1061.96,655.15 1062.85,655.48 1063.73,655.81 1064.61,656.14 1065.5,656.46 1066.38,656.77 1067.26,657.08 1068.14,657.37 1069.03,657.66 1069.91,657.94 1070.79,658.21 1071.68,658.48 1072.56,658.73 1073.44,658.97 1074.33,659.2 1075.21,659.42 1076.09,659.63 1076.97,659.83 1077.86,660.02 1078.74,660.2 1079.62,660.37 1080.51,660.53 1081.39,660.68 1082.27,660.82 1083.16,660.95 1084.04,661.07 1084.92,661.19 1085.8,661.29 1086.69,661.39 1087.57,661.49 1088.45,661.57 1089.34,661.65 1090.22,661.72 1091.1,661.79 1091.99,661.85 1092.87,661.9 1093.75,661.95 1094.64,662 1095.52,662.04 1096.4,662.08 1097.28,662.12 1098.17,662.15 1099.05,662.18 1099.93,662.2 1100.82,662.22 1101.7,662.24 1102.58,662.26 1103.47,662.28 1104.35,662.29 1105.23,662.31 1105.23,662.4 1104.35,662.4 1103.47,662.4 1102.58,662.4 1101.7,662.4 1100.82,662.4 1099.93,662.4 1099.05,662.4 1098.17,662.4 1097.28,662.4 1096.4,662.4 1095.52,662.4 1094.64,662.4 1093.75,662.4 1092.87,662.4 1091.99,662.4 1091.1,662.4 1090.22,662.4 1089.34,662.4 1088.45,662.4 1087.57,662.4 1086.69,662.4 1085.8,662.4 1084.92,662.4 1084.04,662.4 1083.16,662.4 1082.27,662.4 1081.39,662.4 1080.51,662.4 1079.62,662.4 1078.74,662.4 1077.86,662.4 1076.97,662.4 1076.09,662.4 1075.21,662.4 1074.33,662.4 1073.44,662.4 1072.56,662.4 1071.68,662.4 1070.79,662.4 1069.91,662.4 1069.03,662.4 1068.14,662.4 1067.26,662.4 1066.38,662.4 1065.5,662.4 1064.61,662.4 1063.73,662.4 1062.85,662.4 1061.96,662.4 1061.08,662.4 1060.2,662.4 1059.31,662.4 1058.43,662.4 1057.55,662.4 1056.67,662.4 1055.78,662.4 1054.9,662.4 1054.02,662.4 1053.13,662.4 1052.25,662.4 1051.37,662.4 1050.48,662.4 1049.6,662.4 1048.72,662.4 1047.84,662.4 1046.95,662.4 1046.07,662.4 1045.19,662.4 1044.3,662.4 1043.42,662.4 1042.54,662.4 1041.65,662.4 1040.77,662.4 1039.89,662.4 1039,662.4 1038.12,662.4 1037.24,662.4 1036.36,662.4 1035.47,662.4 1034.59,662.4 1033.71,662.4 1032.82,662.4 1031.94,662.4 1031.06,662.4 1030.17,662.4 1029.29,662.4 1028.41,662.4 1027.53,662.4 1026.64,662.4 1025.76,662.4 1024.88,662.4 1023.99,662.4 1023.11,662.4 1022.23,662.4 1021.34,662.4 1020.46,662.4 1019.58,662.4 1018.7,662.4 1017.81,662.4 1016.93,662.4 1016.05,662.4 1015.16,662.4 1014.28,662.4 1013.4,662.4 1012.51,662.4 1011.63,662.4 1010.75,662.4 1009.87,662.4 1008.98,662.4 1008.1,662.4 1007.22,662.4 1006.33,662.4 1005.45,662.4 1004.57,662.4 1003.68,662.4 1002.8,662.4 1001.92,662.4 1001.03,662.4 1000.15,662.4 999.27,662.4 998.39,662.4 997.5,662.4 996.62,662.4 995.74,662.4 994.85,662.4 993.97,662.4 993.09,662.4 992.2,662.4 991.32,662.4 990.44,662.4 989.56,662.4 988.67,662.4 987.79,662.4 986.91,662.4 986.02,662.4 985.14,662.4 984.26,662.4 983.37,662.4 982.49,662.4 981.61,662.4 980.73,662.4 979.84,662.4 978.96,662.4 978.08,662.4 977.19,662.4 976.31,662.4 975.43,662.4 974.54,662.4 973.66,662.4 972.78,662.4 971.9,662.4 971.01,662.4 970.13,662.4 969.25,662.4 968.36,662.4 967.48,662.4 966.6,662.4 965.71,662.4 964.83,662.4 963.95,662.4 963.06,662.4 962.18,662.4 961.3,662.4 960.42,662.4 959.53,662.4 958.65,662.4 957.77,662.4 956.88,662.4 956,662.4 955.12,662.4 954.23,662.4 953.35,662.4 952.47,662.4 951.59,662.4 950.7,662.4 949.82,662.4 948.94,662.4 948.05,662.4 947.17,662.4 946.29,662.4 945.4,662.4 944.52,662.4 943.64,662.4 942.76,662.4 941.87,662.4 940.99,662.4 940.11,662.4 939.22,662.4 938.34,662.4 937.46,662.4 936.57,662.4 935.69,662.4 934.81,662.4 933.93,662.4 933.04,662.4 932.16,662.4 931.28,662.4 930.39,662.4 929.51,662.4 928.63,662.4 927.74,662.4 926.86,662.4 925.98,662.4 925.1,662.4 924.21,662.4 923.33,662.4 922.45,662.4 921.56,662.4 920.68,662.4 919.8,662.4 918.91,662.4 918.03,662.4 917.15,662.4 916.26,662.4 915.38,662.4 914.5,662.4 913.62,662.4 912.73,662.4 911.85,662.4 910.97,662.4 910.08,662.4 909.2,662.4 908.32,662.4 907.43,662.4 906.55,662.4 905.67,662.4 904.79,662.4 903.9,662.4 903.02,662.4 902.14,662.4 901.25,662.4 900.37,662.4 899.49,662.4 898.6,662.4 897.72,662.4 896.84,662.4 895.96,662.4 895.07,662.4 894.19,662.4 893.31,662.4 892.42,662.4 891.54,662.4 890.66,662.4 889.77,662.4 888.89,662.4 888.01,662.4 887.13,662.4 886.24,662.4 885.36,662.4 884.48,662.4 883.59,662.4 882.71,662.4 881.83,662.4 880.94,662.4 880.06,662.4 879.18,662.4 878.29,662.4 877.41,662.4 876.53,662.4 875.65,662.4 874.76,662.4 873.88,662.4 873,662.4 872.11,662.4 871.23,662.4 870.35,662.4 869.46,662.4 868.58,662.4 867.7,662.4 866.82,662.4 865.93,662.4 865.05,662.4 864.17,662.4 863.28,662.4 862.4,662.4 861.52,662.4 860.63,662.4 859.75,662.4 858.87,662.4 857.99,662.4 857.1,662.4 856.22,662.4 855.34,662.4 854.45,662.4 853.57,662.4 852.69,662.4 851.8,662.4 850.92,662.4 850.04,662.4 849.16,662.4 848.27,662.4 847.39,662.4 846.51,662.4 845.62,662.4 844.74,662.4 843.86,662.4 842.97,662.4 842.09,662.4 841.21,662.4 840.32,662.4 839.44,662.4 838.56,662.4 837.68,662.4 836.79,662.4 835.91,662.4 835.03,662.4 834.14,662.4 833.26,662.4 832.38,662.4 831.49,662.4 830.61,662.4 829.73,662.4 828.85,662.4 827.96,662.4 827.08,662.4 826.2,662.4 825.31,662.4 824.43,662.4 823.55,662.4 822.66,662.4 821.78,662.4 820.9,662.4 820.02,662.4 819.13,662.4 818.25,662.4 817.37,662.4 816.48,662.4 815.6,662.4 814.72,662.4 813.83,662.4 812.95,662.4 812.07,662.4 811.19,662.4 810.3,662.4 809.42,662.4 808.54,662.4 807.65,662.4 806.77,662.4 805.89,662.4 805,662.4 804.12,662.4 803.24,662.4 802.35,662.4 801.47,662.4 800.59,662.4 799.71,662.4 798.82,662.4 797.94,662.4 797.06,662.4 796.17,662.4 795.29,662.4 794.41,662.4 793.52,662.4 792.64,662.4 791.76,662.4 790.88,662.4 789.99,662.4 789.11,662.4 788.23,662.4 787.34,662.4 786.46,662.4 785.58,662.4 784.69,662.4 783.81,662.4 782.93,662.4 782.05,662.4 781.16,662.4 780.28,662.4 779.4,662.4 778.51,662.4 777.63,662.4 776.75,662.4 775.86,662.4 774.98,662.4 774.1,662.4 773.22,662.4 772.33,662.4 771.45,662.4 770.57,662.4 769.68,662.4 768.8,662.4 767.92,662.4 767.03,662.4 766.15,662.4 765.27,662.4 764.39,662.4 763.5,662.4 762.62,662.4 761.74,662.4 760.85,662.4 759.97,662.4 759.09,662.4 758.2,662.4 757.32,662.4 756.44,662.4 755.55,662.4 754.67,662.4 753.79,662.4 752.91,662.4 752.02,662.4 751.14,662.4 750.26,662.4 749.37,662.4 748.49,662.4 747.61,662.4 746.72,662.4 745.84,662.4 744.96,662.4 744.08,662.4 743.19,662.4 742.31,662.4 741.43,662.4 740.54,662.4 739.66,662.4 738.78,662.4 737.89,662.4 737.01,662.4 736.13,662.4 735.25,662.4 734.36,662.4 733.48,662.4 732.6,662.4 731.71,662.4 730.83,662.4 729.95,662.4 729.06,662.4 728.18,662.4 727.3,662.4 726.42,662.4 725.53,662.4 724.65,662.4 723.77,662.4 722.88,662.4 722,662.4 721.12,662.4 720.23,662.4 719.35,662.4 718.47,662.4 717.58,662.4 716.7,662.4 715.82,662.4 714.94,662.4 714.05,662.4 713.17,662.4 712.29,662.4 711.4,662.4 710.52,662.4 709.64,662.4 708.75,662.4 707.87,662.4 706.99,662.4 706.11,662.4 705.22,662.4 704.34,662.4 703.46,662.4 702.57,662.4 701.69,662.4 700.81,662.4 699.92,662.4 699.04,662.4 698.16,662.4 697.28,662.4 696.39,662.4 695.51,662.4 694.63,662.4 693.74,662.4 692.86,662.4 691.98,662.4 691.09,662.4 690.21,662.4 689.33,662.4 688.45,662.4 687.56,662.4 686.68,662.4 685.8,662.4 684.91,662.4 684.03,662.4 683.15,662.4 682.26,662.4 681.38,662.4 680.5,662.4 679.61,662.4 678.73,662.4 677.85,662.4 676.97,662.4 676.08,662.4 675.2,662.4 674.32,662.4 673.43,662.4 672.55,662.4 671.67,662.4 670.78,662.4 669.9,662.4 669.02,662.4 668.14,662.4 667.25,662.4 666.37,662.4 665.49,662.4 664.6,662.4 664.6,662.08 665.49,662.02 666.37,661.96 667.25,661.89 668.14,661.81 669.02,661.72 669.9,661.61 670.78,661.49 "
     id="polygon59"
     style="color:#000000;stroke:none;stroke-width:1;stroke-linecap:butt;stroke-linejoin:miter;shape-rendering:crispEdges" />
  <path
     stroke="#000000"
     d="M 72.53,54.01 V 662.4 H 1119.97 V 54.01 Z"
     id="path66"
     style="color:#000000;fill:none;stroke-width:1;stroke-linecap:butt;stroke-linejoin:miter;stroke:#ffffff;stroke-opacity:1" />
  <text
     id="text66"
     transform="rotate(-90)"
     style="color:#000000;font-size:12px;font-family:Helvetica;text-anchor:middle;fill:#f1f1f1;stroke:none;stroke-width:1;stroke-linecap:butt;stroke-linejoin:miter;fill-opacity:1"
     x="-358.20999"
     y="19.18"><tspan
       font-family="Helvetica"
       id="tspan66"
       style="fill:#f1f1f1;fill-opacity:1">Density (a.u.)</tspan></text>
  <text
     id="text68"
     style="color:#000000;font-size:12px;font-family:Helvetica;text-anchor:middle;fill:#f1f1f1;stroke:none;stroke-width:1;stroke-linecap:butt;stroke-linejoin:miter;fill-opacity:1"
     x="596.25"
     y="711.29999"><tspan
       font-family="Helvetica"
       id="tspan68"
       style="fill:#f1f1f1;fill-opacity:1">Average time (ms)</tspan></text>
  <text
     id="text71"
     style="color:#000000;font-size:12px;font-family:Helvetica;text-anchor:middle;fill:#f1f1f1;stroke:none;stroke-width:1;stroke-linecap:butt;stroke-linejoin:miter;fill-opacity:1"
     x="596.25"
     y="30.91"><tspan
       font-family="Helvetica"
       id="tspan71"
       style="fill:#f1f1f1;fill-opacity:1">verify DAO::propose-input</tspan></text>
  <metadata
     id="metadata74">
    <rdf:RDF>
      <cc:Work
         rdf:about="">
        <dc:title>Gnuplot</dc:title>
      </cc:Work>
    </rdf:RDF>
  </metadata>
</svg>
